<svg width="171" height="19" viewBox="0 0 171 19" fill="none" xmlns="http://www.w3.org/2000/svg">
<path d="M0.968 18V1.032H12.608V3.528H3.752V8.904H11.336V11.376H3.752V18H0.968ZM15.6952 0.0959988C16.1912 0.0959988 16.5992 0.247999 16.9192 0.551999C17.2552 0.855999 17.4232 1.272 17.4232 1.8C17.4232 2.312 17.2552 2.72 16.9192 3.024C16.5992 3.328 16.1912 3.48 15.6952 3.48C15.1672 3.48 14.7432 3.328 14.4232 3.024C14.1032 2.72 13.9432 2.312 13.9432 1.8C13.9432 1.272 14.1032 0.855999 14.4232 0.551999C14.7432 0.247999 15.1672 0.0959988 15.6952 0.0959988ZM14.3032 18V5.352H17.0392V18H14.3032ZM19.4855 18V1.032H22.2215V18H19.4855ZM27.1003 5.352C27.1163 5.48 27.1243 5.608 27.1243 5.736L27.1963 6.48C27.2123 6.608 27.2203 6.736 27.2203 6.864C28.1003 5.68 29.2523 5.088 30.6763 5.088C31.5723 5.088 32.2923 5.272 32.8363 5.64C33.3803 6.008 33.8043 6.496 34.1083 7.104C34.6043 6.448 35.1643 5.952 35.7883 5.616C36.4283 5.264 37.1723 5.088 38.0203 5.088C38.7403 5.088 39.3563 5.208 39.8683 5.448C40.3963 5.688 40.8123 6.024 41.1163 6.456C41.4363 6.888 41.6683 7.392 41.8123 7.968C41.9563 8.528 42.0283 9.128 42.0283 9.768V18H39.2923V10.776C39.2923 10.392 39.2683 10.008 39.2203 9.624C39.1723 9.24 39.0683 8.896 38.9083 8.592C38.7643 8.272 38.5483 8.016 38.2603 7.824C37.9723 7.616 37.5883 7.512 37.1083 7.512C36.5963 7.512 36.1723 7.64 35.8363 7.896C35.5163 8.136 35.2603 8.432 35.0683 8.784C34.8923 9.136 34.7723 9.536 34.7083 9.984C34.6443 10.416 34.6123 10.848 34.6123 11.28V18H31.9003V10.728C31.9003 10.36 31.8763 9.992 31.8283 9.624C31.7963 9.24 31.7083 8.896 31.5643 8.592C31.4203 8.288 31.2043 8.032 30.9163 7.824C30.6443 7.616 30.2603 7.512 29.7643 7.512C29.2523 7.512 28.8203 7.64 28.4683 7.896C28.1323 8.152 27.8683 8.472 27.6763 8.856C27.4843 9.224 27.3563 9.632 27.2923 10.08C27.2283 10.512 27.1963 10.912 27.1963 11.28V18H24.4843V5.352H27.1003ZM51.4636 0.0959988C51.9596 0.0959988 52.3676 0.247999 52.6876 0.551999C53.0236 0.855999 53.1916 1.272 53.1916 1.8C53.1916 2.312 53.0236 2.72 52.6876 3.024C52.3676 3.328 51.9596 3.48 51.4636 3.48C50.9356 3.48 50.5116 3.328 50.1916 3.024C49.8716 2.72 49.7116 2.312 49.7116 1.8C49.7116 1.272 49.8716 0.855999 50.1916 0.551999C50.5116 0.247999 50.9356 0.0959988 51.4636 0.0959988ZM50.0716 18V5.352H52.8076V18H50.0716ZM55.2539 18V5.352H57.8699L58.0139 7.104C58.4779 6.448 59.0539 5.96 59.7419 5.64C60.4459 5.304 61.1899 5.136 61.9739 5.136C62.8699 5.136 63.6219 5.288 64.2299 5.592C64.8539 5.896 65.3579 6.312 65.7419 6.84C66.1419 7.368 66.4219 7.992 66.5819 8.712C66.7579 9.432 66.8459 10.216 66.8459 11.064V18H64.1099V11.472C64.1099 10.928 64.0699 10.424 63.9899 9.96C63.9259 9.496 63.7899 9.088 63.5819 8.736C63.3739 8.368 63.0779 8.08 62.6939 7.872C62.3259 7.664 61.8459 7.56 61.2539 7.56C60.6939 7.56 60.1819 7.696 59.7179 7.968C59.2699 8.24 58.9179 8.592 58.6619 9.024C58.4219 9.456 58.2459 9.936 58.1339 10.464C58.0379 10.992 57.9899 11.496 57.9899 11.976V18H55.2539ZM75.2471 18V1.032H78.7511L83.8151 9.72L88.8311 1.032H92.2391V18H89.4791V4.776L84.3671 13.584H83.1191L78.0071 4.776V18H75.2471ZM100.665 5.136C101.673 5.136 102.561 5.296 103.329 5.616C104.097 5.936 104.745 6.384 105.273 6.96C105.817 7.52 106.225 8.2 106.497 9C106.769 9.8 106.905 10.688 106.905 11.664C106.905 12.656 106.769 13.552 106.497 14.352C106.241 15.136 105.849 15.816 105.321 16.392C104.793 16.968 104.137 17.408 103.353 17.712C102.585 18.016 101.689 18.168 100.665 18.168C99.6567 18.168 98.7687 18.016 98.0007 17.712C97.2327 17.392 96.5847 16.952 96.0567 16.392C95.5447 15.816 95.1527 15.128 94.8807 14.328C94.6247 13.528 94.4967 12.64 94.4967 11.664C94.4967 10.688 94.6247 9.8 94.8807 9C95.1527 8.2 95.5527 7.52 96.0807 6.96C96.6087 6.384 97.2567 5.936 98.0247 5.616C98.7927 5.296 99.6727 5.136 100.665 5.136ZM100.665 15.792C101.289 15.792 101.817 15.688 102.249 15.48C102.697 15.256 103.057 14.96 103.329 14.592C103.617 14.224 103.825 13.792 103.953 13.296C104.097 12.8 104.169 12.264 104.169 11.688C104.169 11.112 104.097 10.576 103.953 10.08C103.825 9.568 103.617 9.128 103.329 8.76C103.057 8.392 102.697 8.104 102.249 7.896C101.817 7.688 101.289 7.584 100.665 7.584C100.057 7.584 99.5367 7.688 99.1047 7.896C98.6727 8.104 98.3127 8.392 98.0247 8.76C97.7367 9.128 97.5207 9.568 97.3767 10.08C97.2487 10.576 97.1847 11.112 97.1847 11.688C97.1847 12.264 97.2487 12.8 97.3767 13.296C97.5207 13.792 97.7287 14.224 98.0007 14.592C98.2887 14.96 98.6487 15.256 99.0807 15.48C99.5287 15.688 100.057 15.792 100.665 15.792ZM108.671 18V1.032H111.407V18H108.671ZM125.646 18H123.078L122.934 16.248C122.47 16.92 121.886 17.4 121.182 17.688C120.478 17.976 119.686 18.136 118.806 18.168C117.83 18.152 116.99 17.976 116.286 17.64C115.582 17.288 114.998 16.824 114.534 16.248C114.07 15.656 113.726 14.976 113.502 14.208C113.294 13.44 113.19 12.624 113.19 11.76C113.19 10.816 113.31 9.944 113.55 9.144C113.806 8.344 114.182 7.648 114.678 7.056C115.174 6.464 115.782 6 116.502 5.664C117.222 5.312 118.062 5.136 119.022 5.136C119.71 5.136 120.406 5.248 121.11 5.472C121.814 5.696 122.414 6.112 122.91 6.72V1.032H125.646V18ZM119.334 7.608C118.726 7.608 118.206 7.712 117.774 7.92C117.342 8.128 116.982 8.416 116.694 8.784C116.422 9.152 116.222 9.592 116.094 10.104C115.966 10.6 115.902 11.136 115.902 11.712C115.902 12.288 115.966 12.824 116.094 13.32C116.222 13.816 116.422 14.248 116.694 14.616C116.982 14.984 117.342 15.28 117.774 15.504C118.222 15.712 118.758 15.816 119.382 15.816C119.974 15.816 120.486 15.704 120.918 15.48C121.366 15.24 121.734 14.928 122.022 14.544C122.326 14.16 122.55 13.72 122.694 13.224C122.838 12.728 122.91 12.216 122.91 11.688C122.91 11.128 122.838 10.6 122.694 10.104C122.566 9.608 122.358 9.184 122.07 8.832C121.782 8.464 121.414 8.176 120.966 7.968C120.518 7.744 119.974 7.624 119.334 7.608ZM133.591 5.136C134.599 5.136 135.487 5.296 136.255 5.616C137.023 5.936 137.671 6.384 138.199 6.96C138.743 7.52 139.151 8.2 139.423 9C139.695 9.8 139.831 10.688 139.831 11.664C139.831 12.656 139.695 13.552 139.423 14.352C139.167 15.136 138.775 15.816 138.247 16.392C137.719 16.968 137.063 17.408 136.279 17.712C135.511 18.016 134.615 18.168 133.591 18.168C132.583 18.168 131.695 18.016 130.927 17.712C130.159 17.392 129.511 16.952 128.983 16.392C128.471 15.816 128.079 15.128 127.807 14.328C127.551 13.528 127.423 12.64 127.423 11.664C127.423 10.688 127.551 9.8 127.807 9C128.079 8.2 128.479 7.52 129.007 6.96C129.535 6.384 130.183 5.936 130.951 5.616C131.719 5.296 132.599 5.136 133.591 5.136ZM133.591 15.792C134.215 15.792 134.743 15.688 135.175 15.48C135.623 15.256 135.983 14.96 136.255 14.592C136.543 14.224 136.751 13.792 136.879 13.296C137.023 12.8 137.095 12.264 137.095 11.688C137.095 11.112 137.023 10.576 136.879 10.08C136.751 9.568 136.543 9.128 136.255 8.76C135.983 8.392 135.623 8.104 135.175 7.896C134.743 7.688 134.215 7.584 133.591 7.584C132.983 7.584 132.463 7.688 132.031 7.896C131.599 8.104 131.239 8.392 130.951 8.76C130.663 9.128 130.447 9.568 130.303 10.08C130.175 10.576 130.111 11.112 130.111 11.688C130.111 12.264 130.175 12.8 130.303 13.296C130.447 13.792 130.655 14.224 130.927 14.592C131.215 14.96 131.575 15.256 132.007 15.48C132.455 15.688 132.983 15.792 133.591 15.792ZM140.157 5.352H143.181L146.685 15.384L150.165 5.352H153.189L148.437 18H144.909L140.157 5.352ZM162.162 16.44C161.746 17.032 161.194 17.472 160.506 17.76C159.818 18.032 159.05 18.168 158.202 18.168C157.53 18.168 156.914 18.088 156.354 17.928C155.81 17.768 155.33 17.528 154.914 17.208C154.498 16.872 154.17 16.464 153.93 15.984C153.69 15.488 153.57 14.928 153.57 14.304C153.57 13.616 153.706 13.032 153.978 12.552C154.25 12.056 154.618 11.656 155.082 11.352C155.562 11.048 156.122 10.824 156.762 10.68C157.402 10.52 158.074 10.44 158.778 10.44H162.018C162.018 9.512 161.81 8.792 161.394 8.28C160.978 7.768 160.25 7.504 159.21 7.488C158.602 7.488 158.074 7.592 157.626 7.8C157.194 8.008 156.906 8.352 156.762 8.832H153.954C154.05 8.16 154.266 7.592 154.602 7.128C154.954 6.664 155.37 6.28 155.85 5.976C156.346 5.672 156.89 5.456 157.482 5.328C158.09 5.2 158.698 5.136 159.306 5.136C160.09 5.136 160.818 5.24 161.49 5.448C162.162 5.656 162.746 6.008 163.242 6.504C163.802 7.08 164.178 7.768 164.37 8.568C164.562 9.368 164.658 10.24 164.658 11.184V18H162.282L162.162 16.44ZM162.018 12.384H159.378C158.914 12.384 158.45 12.424 157.986 12.504C157.522 12.568 157.122 12.736 156.786 13.008C156.466 13.264 156.306 13.64 156.306 14.136C156.306 14.744 156.522 15.208 156.954 15.528C157.402 15.832 157.946 15.984 158.586 15.984C159.082 15.984 159.538 15.92 159.954 15.792C160.386 15.664 160.754 15.456 161.058 15.168C161.362 14.864 161.594 14.488 161.754 14.04C161.93 13.576 162.018 13.024 162.018 12.384ZM167.691 12.6L167.379 1.032H170.331L170.019 12.6H167.691ZM168.867 14.712C169.395 14.712 169.819 14.88 170.139 15.216C170.459 15.536 170.619 15.96 170.619 16.488C170.619 17 170.451 17.416 170.115 17.736C169.795 18.04 169.379 18.192 168.867 18.192C168.339 18.192 167.915 18.04 167.595 17.736C167.275 17.432 167.115 17.016 167.115 16.488C167.115 15.96 167.275 15.536 167.595 15.216C167.915 14.88 168.339 14.712 168.867 14.712Z" fill="white"/>
</svg>
