<svg width="424" height="302" viewBox="0 0 424 302" fill="none" xmlns="http://www.w3.org/2000/svg">
<path d="M153.639 267.058V268.788L186.173 273.168L226.821 281.09C226.821 281.09 229.011 279.305 224.9 276.206C220.788 273.108 198.031 269.128 186.469 271.329C186.469 271.296 174.715 262.947 153.639 267.058Z" fill="#DDDDDD" stroke="#DDDDDD" stroke-linecap="round" stroke-linejoin="round"/>
<path d="M149.922 267.551C149.922 267.551 175.455 266.319 183.207 272.544C186.491 275.172 188.977 273.179 192.705 273.091C196.433 273.004 216.562 270.754 227.741 281.916L248.435 265.301C248.435 265.301 236.046 251.768 214.093 259.865C214.093 259.865 207.524 251.911 183.765 255.923C183.557 256.219 149.922 267.551 149.922 267.551Z" fill="#F9F9F9" stroke="#DDDDDD" stroke-linecap="round" stroke-linejoin="round"/>
<path d="M214.099 259.881L185.599 271.296" stroke="#DDDDDD" stroke-linecap="round" stroke-linejoin="round"/>
<path d="M390.765 106.586V269.051C362.719 260.889 325.071 255.557 284.013 252.403V106.586H390.765Z" fill="#F9F9F9" stroke="#DDDDDD" stroke-linecap="round" stroke-linejoin="round"/>
<path d="M390.764 150.989H382.963V178.679" stroke="#DDDDDD" stroke-linecap="round" stroke-linejoin="round"/>
<path d="M339.096 176.883V149.264L332.133 149.675V178.087" stroke="#DDDDDD" stroke-linecap="round" stroke-linejoin="round"/>
<path d="M324.572 179.976V151.701L332.132 151.421" stroke="#DDDDDD" stroke-linecap="round" stroke-linejoin="round"/>
<path d="M318.709 179.976L318.31 154.57H324.572V179.976" fill="#DDDDDD"/>
<path d="M318.709 179.976L318.31 154.57H324.572V179.976" stroke="#DDDDDD" stroke-linecap="round" stroke-linejoin="round"/>
<path d="M291.354 179.977L283.996 155.221L289.695 153.896" stroke="#DDDDDD" stroke-width="0.75" stroke-linecap="round" stroke-linejoin="round"/>
<path d="M297.233 179.867C297.168 179.976 288.885 151.071 288.885 151.071L295.591 150.589L304.498 179.976" fill="#DDDDDD"/>
<path d="M297.233 179.867C297.168 179.976 288.885 151.071 288.885 151.071L295.591 150.589L304.498 179.976" stroke="#DDDDDD" stroke-linecap="round" stroke-linejoin="round"/>
<path d="M297.906 158.221L306.441 157.252L316.169 179.976" stroke="#DDDDDD" stroke-width="0.75" stroke-linecap="round" stroke-linejoin="round"/>
<path d="M323.101 138.754C323.177 138.754 330.464 111.217 330.464 111.217L335.391 111.907L328.498 138.732" fill="#DDDDDD"/>
<path d="M323.101 138.754C323.177 138.754 330.464 111.217 330.464 111.217L335.391 111.907L328.498 138.732" stroke="#DDDDDD" stroke-miterlimit="10"/>
<path d="M336.475 138.086L336.272 109.279H344.928L344.539 137.057" fill="#F9F9F9"/>
<path d="M336.475 138.086L336.272 109.279H344.928L344.539 137.057" stroke="#DDDDDD" stroke-width="0.75" stroke-linecap="round" stroke-linejoin="round"/>
<path d="M344.899 111.217H354.901L354.201 137.341" fill="#F9F9F9"/>
<path d="M344.899 111.217H354.901L354.201 137.341" stroke="#DDDDDD" stroke-width="0.75" stroke-linecap="round" stroke-linejoin="round"/>
<path d="M377.068 108.672L384.218 109.28L376.335 138.754L370.455 136.728L377.068 108.672Z" stroke="#DDDDDD" stroke-linecap="round" stroke-linejoin="round"/>
<path d="M383.697 138.474L390.765 112.619L383.697 111.217L376.334 138.754" fill="#DDDDDD"/>
<path d="M383.697 138.474L390.765 112.619L383.697 111.217L376.334 138.754" stroke="#DDDDDD" stroke-linecap="round" stroke-linejoin="round"/>
<path d="M315.173 131.314H319.24V138.753" stroke="#DDDDDD" stroke-linecap="round" stroke-linejoin="round"/>
<path d="M290.576 131.829L290.757 138.754" stroke="#DDDDDD" stroke-linecap="round" stroke-linejoin="round"/>
<path d="M320.342 121.947H290.758V126.672H320.342V121.947Z" stroke="#DDDDDD" stroke-linecap="round" stroke-linejoin="round"/>
<path d="M290.758 126.671H287.008V131.899L315.174 131.314V126.671" fill="#DDDDDD"/>
<path d="M290.758 126.671H287.008V131.899L315.174 131.314V126.671" stroke="#DDDDDD" stroke-linecap="round" stroke-linejoin="round"/>
<path d="M390.764 138.753H283.996V145.991H390.764V138.753Z" stroke="#DDDDDD" stroke-linecap="round" stroke-linejoin="round"/>
<path d="M390.764 179.976H283.996V187.214H390.764V179.976Z" stroke="#DDDDDD" stroke-linecap="round" stroke-linejoin="round"/>
<path d="M398.615 97.0545V271.492C396.089 270.649 393.472 269.836 390.764 269.051C362.719 260.888 325.071 255.556 284.012 252.403C281.414 252.199 278.797 252.007 276.162 251.828V97.0545H398.615Z" stroke="#DDDDDD" stroke-width="2" stroke-linecap="round" stroke-linejoin="round"/>
<path d="M1 261.146C10.5529 258.907 24.2993 256.832 41.0675 255.048C47.6369 254.347 54.7044 253.69 62.1606 253.082C65.0803 252.849 68.0547 252.619 71.0839 252.393C73.2263 252.239 75.3978 252.09 77.5985 251.944C83.8321 251.524 90.2701 251.139 96.9124 250.789C127.411 249.196 161.73 248.418 196.58 248.79C198.748 248.812 200.92 248.842 203.095 248.878C207.474 248.936 211.839 249.019 216.19 249.124C220.697 249.234 225.201 249.36 229.701 249.502C245.391 250.011 260.976 250.772 276.146 251.829C278.777 252.008 281.394 252.199 283.996 252.404L285.814 252.546C300.004 253.641 313.734 255.031 326.839 256.701C348.398 259.438 368.111 262.975 384.869 267.409C386.883 267.946 388.856 268.493 390.786 269.051C393.495 269.84 396.111 270.654 398.637 271.493C407.943 274.597 415.98 278.062 422.434 281.933" stroke="#DDDDDD" stroke-width="2" stroke-linecap="round" stroke-linejoin="round"/>
<path d="M196.58 65.752V248.79C154.159 248.341 112.509 249.595 77.5986 251.944V65.752H196.58Z" fill="#F9F9F9" stroke="#DDDDDD" stroke-linecap="round" stroke-linejoin="round"/>
<path d="M158.576 237.6L167.625 210.014L172.854 210.529L164.905 237.551" stroke="#DDDDDD" stroke-linecap="round" stroke-linejoin="round"/>
<path d="M172.049 237.551L181.235 203.949H174.841L172.854 210.529" stroke="#DDDDDD" stroke-linecap="round" stroke-linejoin="round"/>
<path d="M178.344 237.551L185.078 209.276L179.866 208.953L172.049 237.551" fill="#DDDDDD"/>
<path d="M178.344 237.551L185.078 209.276L179.866 208.953L172.049 237.551" stroke="#DDDDDD" stroke-linecap="round" stroke-linejoin="round"/>
<path d="M196.58 203.073C196.58 203.204 186.299 203.073 186.299 203.073L186.677 237.277" stroke="#DDDDDD" stroke-linecap="round" stroke-linejoin="round"/>
<path d="M154.969 165.07H162.781L169.038 191.484H162.02" fill="#DDDDDD"/>
<path d="M154.969 165.07H162.781L169.038 191.484H162.02" stroke="#DDDDDD" stroke-linecap="round" stroke-linejoin="round"/>
<path d="M175.296 162.327H169.039C169.039 162.327 169.554 191.511 170.101 191.511H176.123" fill="#F9F9F9"/>
<path d="M175.296 162.327H169.039C169.039 162.327 169.554 191.511 170.101 191.511H176.123" stroke="#DDDDDD" stroke-linecap="round" stroke-linejoin="round"/>
<path d="M176.123 191.511C175.745 191.051 175.285 157.427 175.285 157.427H182.813V191.511" fill="#F9F9F9"/>
<path d="M176.123 191.511C175.745 191.051 175.285 157.427 175.285 157.427H182.813V191.511" stroke="#DDDDDD" stroke-linecap="round" stroke-linejoin="round"/>
<path d="M188.165 191.511L195.83 162.94L190.355 161.056C190.355 161.056 182.795 187.005 182.795 187.219V191.511" fill="#DDDDDD"/>
<path d="M188.165 191.511L195.83 162.94L190.355 161.056C190.355 161.056 182.795 187.005 182.795 187.219V191.511" stroke="#DDDDDD" stroke-linecap="round" stroke-linejoin="round"/>
<path d="M156.085 191.483L147.912 161.5L153.978 160.514L162.02 191.483" fill="#F9F9F9"/>
<path d="M156.085 191.483L147.912 161.5L153.978 160.514L162.02 191.483" stroke="#DDDDDD" stroke-linecap="round" stroke-linejoin="round"/>
<path d="M121.662 177.19L119.177 177.004V179.818" stroke="#DDDDDD" stroke-linecap="round" stroke-linejoin="round"/>
<path d="M147.118 178.411L146.894 182.867" stroke="#DDDDDD" stroke-linecap="round" stroke-linejoin="round"/>
<path d="M123.075 171.502L122.44 166.383H147.398V171.502" stroke="#DDDDDD" stroke-linecap="round" stroke-linejoin="round"/>
<path d="M121.663 177.19L121.252 171.502H149.27L149.593 178.465L121.663 177.19Z" fill="#DDDDDD" stroke="#DDDDDD" stroke-miterlimit="10"/>
<path d="M121.252 182.171L148.433 182.867V191.483" stroke="#DDDDDD" stroke-linecap="round" stroke-linejoin="round"/>
<path d="M128.566 127.963H95.4512V133.268H128.566V127.963Z" stroke="#DDDDDD" stroke-width="0.75" stroke-linecap="round" stroke-linejoin="round"/>
<path d="M127.033 145.301C127.307 145.805 127.033 137.921 127.033 137.921L100.088 137.555V145.41" stroke="#DDDDDD" stroke-width="0.75" stroke-linecap="round" stroke-linejoin="round"/>
<path d="M125.412 133.268V137.9" stroke="#DDDDDD" stroke-width="0.75" stroke-linecap="round" stroke-linejoin="round"/>
<path d="M131.609 145.454L132.754 109.016L141.277 109.509L140.544 145.416" fill="#DDDDDD"/>
<path d="M131.609 145.454L132.754 109.016L141.277 109.509L140.544 145.416" stroke="#DDDDDD" stroke-linecap="round" stroke-linejoin="round"/>
<path d="M141.233 111.617H148.339L147.693 145.416" stroke="#DDDDDD" stroke-width="0.75" stroke-linecap="round" stroke-linejoin="round"/>
<path d="M101.959 133.629L102.233 137.582" stroke="#DDDDDD" stroke-width="0.75" stroke-linecap="round" stroke-linejoin="round"/>
<path d="M77.5986 115.093H85.2738L86.626 145.454" stroke="#DDDDDD" stroke-linecap="round" stroke-linejoin="round"/>
<path d="M93.015 145.301L92.1227 117.523L85.3672 117.162" stroke="#DDDDDD" stroke-linecap="round" stroke-linejoin="round"/>
<path d="M148.339 145.416L155.899 114.179L163.837 115.997" stroke="#DDDDDD" stroke-linecap="round" stroke-linejoin="round"/>
<path d="M155.752 145.416L164.922 111.617L172.772 114.693L164.708 145.416" stroke="#DDDDDD" stroke-linecap="round" stroke-linejoin="round"/>
<path d="M183.857 145.454L183.387 109.016L172.815 108.617V145.454" stroke="#DDDDDD" stroke-linecap="round" stroke-linejoin="round"/>
<path d="M192.912 145.455L192.359 111.978H183.387L184.159 145.455" fill="#DDDDDD"/>
<path d="M192.912 145.455L192.359 111.978H183.387L184.159 145.455" stroke="#DDDDDD" stroke-linecap="round" stroke-linejoin="round"/>
<path d="M196.58 145.411H77.5928V152.653H196.58V145.411Z" stroke="#DDDDDD" stroke-linecap="round" stroke-linejoin="round"/>
<path d="M196.58 191.484H77.5928V198.721H196.58V191.484Z" stroke="#DDDDDD" stroke-linecap="round" stroke-linejoin="round"/>
<path d="M196.58 237.551H77.5928V244.794H196.58V237.551Z" stroke="#DDDDDD" stroke-width="2" stroke-linecap="round" stroke-linejoin="round"/>
<path d="M203.095 56.5217V248.877C200.905 248.841 198.734 248.812 196.58 248.79C154.159 248.341 112.509 249.595 77.5986 251.943C75.4088 252.086 73.2373 252.235 71.084 252.392V56.5217H203.095Z" stroke="#DDDDDD" stroke-width="2" stroke-linecap="round" stroke-linejoin="round"/>
<path d="M151.389 69.5072L150.174 73.3174L141.869 99.3484H136.789L146.703 68.248L151.389 69.5072Z" stroke="#DDDDDD" stroke-width="0.75" stroke-linecap="round" stroke-linejoin="round"/>
<path d="M150.179 73.3176L157.274 75.2008L149.922 99.3486" stroke="#DDDDDD" stroke-width="0.75" stroke-linecap="round" stroke-linejoin="round"/>
<path d="M157.443 65.7572L156.841 99.343" stroke="#DDDDDD" stroke-width="0.75" stroke-linecap="round" stroke-linejoin="round"/>
<path d="M160.06 68.4508H167.248" stroke="#DDDDDD" stroke-width="0.75" stroke-linecap="round" stroke-linejoin="round"/>
<path d="M169.377 65.7572V99.343" stroke="#DDDDDD" stroke-width="0.75" stroke-linecap="round" stroke-linejoin="round"/>
<path d="M169.377 83.5381L174.194 99.3428" stroke="#DDDDDD" stroke-width="0.75" stroke-linecap="round" stroke-linejoin="round"/>
<path d="M178.563 99.3431L183.386 97.323L173.592 72.0748L169.377 73.3175" stroke="#DDDDDD" stroke-width="0.75" stroke-linecap="round" stroke-linejoin="round"/>
<path d="M182.495 97.6953L183.092 99.3431H185.166L188.719 97.5475L182.407 75.792L175.701 77.511" stroke="#DDDDDD" stroke-width="0.75" stroke-linecap="round" stroke-linejoin="round"/>
<path d="M196.58 99.3431H77.5928V106.58H196.58V99.3431Z" stroke="#DDDDDD" stroke-linecap="round" stroke-linejoin="round"/>
<path d="M90.6169 99.3486H85.0877L77.5986 75.2117L83.5603 73.3176L90.6716 96.157" stroke="#DDDDDD" stroke-linecap="round" stroke-linejoin="round"/>
<path d="M98.2376 99.3484H90.6172L90.6719 96.1568L91.1482 68.9652H97.6847L97.8435 77.3904L98.2595 99.3484" stroke="#DDDDDD" stroke-linecap="round" stroke-linejoin="round"/>
<path d="M113.834 99.3484H105.151L104.762 75.5072L104.647 68.4889L112.284 68.248C112.284 68.248 112.355 69.6659 112.465 71.9324C112.793 78.7371 113.5 93.1075 113.834 99.3484Z" stroke="#DDDDDD" stroke-linecap="round" stroke-linejoin="round"/>
<path d="M98.2376 99.3484L97.8434 77.3904L97.7832 73.8649L104.763 75.5072H104.769L105.152 99.3484H98.2595" fill="#DDDDDD"/>
<path d="M98.2376 99.3484L97.8434 77.3904L97.7832 73.8649L104.763 75.5072H104.769L105.152 99.3484H98.2595" stroke="#DDDDDD" stroke-linecap="round" stroke-linejoin="round"/>
<path d="M113.833 99.3485H121.416L120.748 73.3175L120.715 71.9324H112.465L113.833 99.3485Z" fill="#DDDDDD" stroke="#DDDDDD" stroke-linecap="round" stroke-linejoin="round"/>
<path d="M120.748 73.3176H129.086L129.343 99.3486H121.416" stroke="#DDDDDD" stroke-linecap="round" stroke-linejoin="round"/>
<path d="M283.274 288.146L322.789 273.08L362.003 277.46C362.003 277.46 364.69 278.401 363.42 281.713L324.628 301L283.274 288.146Z" fill="#F9F9F9" stroke="#DDDDDD" stroke-linecap="round" stroke-linejoin="round"/>
<path d="M325.093 295.881C325.093 295.881 350.719 283.941 362.002 277.482L325.093 295.881Z" fill="#F9F9F9"/>
<path d="M325.093 295.881C325.093 295.881 350.719 283.941 362.002 277.482" stroke="#DDDDDD" stroke-linecap="round" stroke-linejoin="round"/>
<path d="M283.274 288.146C283.274 288.146 322.789 293.96 325.094 295.881C326.145 296.757 326.238 301.268 323.939 300.972C321.639 300.677 283.274 294.901 283.274 294.901C283.274 294.901 288.897 292.339 283.274 288.146Z" fill="#DDDDDD" stroke="#DDDDDD" stroke-linecap="round" stroke-linejoin="round"/>
<path d="M335.518 82.8419C345.99 80.7056 352.748 70.4844 350.612 60.0121C348.475 49.5399 338.254 42.7823 327.782 44.9186C317.31 47.0549 310.552 57.2762 312.688 67.7484C314.825 78.2206 325.046 84.9783 335.518 82.8419Z" stroke="#DDDDDD" stroke-width="2" stroke-linecap="round" stroke-linejoin="round"/>
<path d="M341.018 69.3049L333.934 64.2137C333.953 64.0996 333.964 63.9844 333.967 63.8688C333.966 63.4495 333.85 63.0384 333.633 62.6797C333.416 62.3209 333.106 62.028 332.735 61.8323C332.609 59.1881 332.379 54.3542 332.16 49.8213C332.117 48.8852 331.219 48.8907 331.18 49.8213L330.633 61.7775C330.168 62.0082 329.795 62.3886 329.572 62.8574C329.35 63.3263 329.292 63.8563 329.408 64.3622C329.523 64.868 329.806 65.3201 330.21 65.6457C330.614 65.9713 331.116 66.1515 331.635 66.1571C332.121 66.1571 332.595 66.0018 332.987 65.7137L340.465 70.0932C341.292 70.6133 341.784 69.8523 341.018 69.3049Z" fill="#DDDDDD" stroke="#DDDDDD" stroke-miterlimit="10"/>
<path d="M136.848 269.894L190.355 279.978C190.355 279.978 186.687 285.951 191.45 287.708L152.828 298.263C152.828 298.263 103.498 286.936 101.718 286.159C99.9393 285.382 98.0177 281.664 102.463 280.219C106.908 278.774 136.848 269.894 136.848 269.894Z" fill="#F9F9F9" stroke="#DDDDDD" stroke-linecap="round" stroke-linejoin="round"/>
<path d="M152.829 298.263C150.83 298.027 149.506 293.713 153.518 292.241C157.383 290.818 190.334 280 190.334 280" fill="#F9F9F9"/>
<path d="M152.829 298.263C150.83 298.027 149.506 293.713 153.518 292.241C157.383 290.818 190.334 280 190.334 280" stroke="#DDDDDD" stroke-linecap="round" stroke-linejoin="round"/>
<path d="M109.017 283.11L145 291.688" stroke="#DDDDDD" stroke-linecap="round" stroke-linejoin="round"/>
<path d="M32.6534 285.486C38.3468 284.166 37.3231 282.36 35.8341 278.867C34.345 275.374 29.8122 271.947 22.7446 273.436C15.6771 274.925 15.6771 281.692 21.1954 283.624C26.7136 285.557 29.7684 286.153 32.6534 285.486Z" fill="#F9F9F9" stroke="#DDDDDD" stroke-linecap="round" stroke-linejoin="round"/>
<path d="M33.9453 280.454C34.6186 281.739 35.1686 283.084 35.5876 284.472L33.9453 280.454Z" fill="#F9F9F9"/>
<path d="M33.9453 280.454C34.6186 281.739 35.1686 283.084 35.5876 284.472" stroke="#DDDDDD" stroke-linecap="round" stroke-linejoin="round"/>
<path d="M31.4205 278.484C31.9212 279.249 32.4911 279.968 33.123 280.63C33.8457 281.347 34.6176 281.062 34.4752 280.301C34.208 279.102 33.6432 277.989 32.8329 277.066C32.6389 276.912 32.3954 276.836 32.1487 276.851C31.902 276.865 31.6693 276.97 31.4948 277.145C31.3204 277.32 31.2164 277.553 31.2027 277.8C31.189 278.047 31.2665 278.29 31.4205 278.484Z" fill="#F9F9F9" stroke="#DDDDDD" stroke-linecap="round" stroke-linejoin="round"/>
<path d="M280.235 1V67.8376C279.955 68.0397 279.726 68.3053 279.568 68.6126C279.41 68.92 279.327 69.2603 279.326 69.6058V71.4288C279.327 71.7744 279.41 72.1147 279.568 72.422C279.726 72.7294 279.955 72.9949 280.235 73.1971V75.792H282.802V73.1971C283.082 72.9944 283.309 72.7285 283.466 72.4212C283.623 72.1139 283.705 71.7739 283.706 71.4288V69.6058C283.705 69.2608 283.623 68.9207 283.466 68.6134C283.309 68.3062 283.082 68.0403 282.802 67.8376V1" fill="#DDDDDD"/>
<path d="M280.235 1V67.8376C279.955 68.0397 279.726 68.3053 279.568 68.6126C279.41 68.92 279.327 69.2603 279.326 69.6058V71.4288C279.327 71.7744 279.41 72.1147 279.568 72.422C279.726 72.7294 279.955 72.9949 280.235 73.1971V75.792H282.802V73.1971C283.082 72.9944 283.309 72.7285 283.466 72.4212C283.623 72.1139 283.705 71.7739 283.706 71.4288V69.6058C283.705 69.2608 283.623 68.9207 283.466 68.6134C283.309 68.3062 283.082 68.0403 282.802 67.8376V1" stroke="#DDDDDD" stroke-width="2" stroke-linecap="round" stroke-linejoin="round"/>
<path d="M169.225 1V67.8376C168.945 68.0403 168.718 68.3062 168.561 68.6134C168.404 68.9207 168.322 69.2608 168.321 69.6058V71.4288C168.322 71.7739 168.404 72.1139 168.561 72.4212C168.718 72.7285 168.945 72.9944 169.225 73.1971V75.792H171.792V73.1971C172.072 72.9949 172.301 72.7294 172.459 72.422C172.617 72.1147 172.7 71.7744 172.701 71.4288V69.6058C172.7 69.2603 172.617 68.92 172.459 68.6126C172.301 68.3053 172.072 68.0397 171.792 67.8376V1" fill="#DDDDDD"/>
<path d="M169.225 1V67.8376C168.945 68.0403 168.718 68.3062 168.561 68.6134C168.404 68.9207 168.322 69.2608 168.321 69.6058V71.4288C168.322 71.7739 168.404 72.1139 168.561 72.4212C168.718 72.7285 168.945 72.9944 169.225 73.1971V75.792H171.792V73.1971C172.072 72.9949 172.301 72.7294 172.459 72.422C172.617 72.1147 172.7 71.7744 172.701 71.4288V69.6058C172.7 69.2603 172.617 68.92 172.459 68.6126C172.301 68.3053 172.072 68.0397 171.792 67.8376V1" stroke="#DDDDDD" stroke-width="2" stroke-linecap="round" stroke-linejoin="round"/>
<path d="M288.19 70.2848H163.838V78.0366H288.19V70.2848Z" fill="#DDDDDD" stroke="#DDDDDD" stroke-width="2" stroke-linecap="round" stroke-linejoin="round"/>
<path d="M289.876 72.2828H288.189V76.0438H289.876V72.2828Z" fill="#F9F9F9" stroke="#DDDDDD" stroke-linecap="round" stroke-linejoin="round"/>
<path d="M282.852 78.0367H169.17C168.187 78.0367 167.391 78.8333 167.391 79.8159V79.9254C167.391 80.9081 168.187 81.7046 169.17 81.7046H282.852C283.835 81.7046 284.632 80.9081 284.632 79.9254V79.8159C284.632 78.8333 283.835 78.0367 282.852 78.0367Z" fill="#F9F9F9" stroke="#DDDDDD" stroke-linecap="round" stroke-linejoin="round"/>
<path d="M274.246 281.494L313.153 266.045L351.764 270.025C351.764 270.025 354.381 273.069 352.602 276.529L314.965 293.916L274.246 281.494Z" fill="#F9F9F9" stroke="#DDDDDD" stroke-linecap="round" stroke-linejoin="round"/>
<path d="M315.425 288.803C315.425 288.803 346.815 274.454 351.764 270.026L315.425 288.803Z" fill="#F9F9F9"/>
<path d="M315.425 288.803C315.425 288.803 346.815 274.454 351.764 270.026" stroke="#DDDDDD" stroke-linecap="round" stroke-linejoin="round"/>
<path d="M274.246 281.495C274.246 281.495 313.153 286.903 315.425 288.803C316.454 289.668 316.553 294.179 314.281 293.905C312.009 293.632 274.246 288.25 274.246 288.25C274.246 288.25 279.759 285.633 274.246 281.495Z" fill="#F9F9F9" stroke="#DDDDDD" stroke-linecap="round" stroke-linejoin="round"/>
<path d="M137.445 218.336C142.126 224.221 153.66 247.898 144.666 254.834C132.228 264.425 117.841 237.918 115.202 230.199L137.445 218.336Z" fill="#FEBD9D"/>
<path d="M138.747 217.355C138.747 217.355 136.995 218.708 134.214 220.574C129.167 223.963 120.731 229.032 113.253 230.697C113.253 230.697 112.481 229.153 111.304 226.826L108.676 221.62C107.094 218.472 105.337 214.98 103.837 211.985L102.09 208.481C101.767 207.835 101.477 207.25 101.231 206.741C96.8513 197.866 91.9517 176.959 106.339 175.569C107.568 175.441 108.806 175.416 110.039 175.492H110.099C110.439 175.52 110.767 175.553 111.09 175.596L111.364 175.635L111.846 175.722C112.037 175.755 112.229 175.799 112.393 175.843C112.558 175.887 112.689 175.914 112.831 175.958L113.034 176.007L113.45 176.144C113.582 176.184 113.712 176.231 113.839 176.286C113.972 176.326 114.101 176.375 114.227 176.434C114.378 176.492 114.526 176.558 114.671 176.631C114.803 176.686 114.933 176.749 115.059 176.817C115.231 176.897 115.395 176.985 115.552 177.08C115.694 177.157 115.831 177.239 115.963 177.321L116.302 177.545C116.701 177.81 117.085 178.097 117.452 178.405C117.61 178.536 117.764 178.662 117.912 178.804C118.41 179.256 118.883 179.735 119.329 180.239C119.477 180.408 119.631 180.584 119.778 180.786C119.926 180.989 120.008 181.065 120.123 181.208C120.309 181.438 120.495 181.678 120.671 181.93C120.797 182.089 120.917 182.259 121.037 182.428C121.224 182.686 121.41 182.976 121.585 183.228C121.76 183.48 121.875 183.649 122.017 183.879L122.466 184.591C122.62 184.832 122.767 185.078 122.921 185.335C123.271 185.91 123.616 186.518 123.966 187.147C124.076 187.355 124.196 187.569 124.311 187.782C124.426 187.996 124.623 188.363 124.782 188.664C124.941 188.965 125.089 189.211 125.236 189.529C125.384 189.846 125.581 190.191 125.756 190.536C126.118 191.248 126.479 191.965 126.851 192.688C130.979 200.938 135.194 209.861 137.302 214.377C138.233 216.239 138.747 217.355 138.747 217.355Z" fill="#161616"/>
<path d="M126.906 192.682C122.876 192.824 119.062 194.538 116.28 197.456C115.894 197.86 115.528 198.284 115.185 198.726C111.706 203.023 107.203 206.377 102.09 208.481C101.767 207.835 101.477 207.25 101.231 206.741C96.8513 197.866 91.9517 176.959 106.339 175.569C107.568 175.441 108.806 175.416 110.039 175.492H110.099C110.439 175.52 110.767 175.553 111.09 175.596L111.364 175.635L111.846 175.722C112.037 175.755 112.229 175.799 112.393 175.843C112.558 175.887 112.689 175.914 112.831 175.958L113.034 176.007L113.45 176.144C113.582 176.184 113.712 176.231 113.839 176.286C113.972 176.326 114.101 176.375 114.227 176.434C114.378 176.492 114.526 176.558 114.671 176.631C114.803 176.686 114.933 176.749 115.059 176.817C115.231 176.897 115.395 176.985 115.552 177.08C115.694 177.157 115.831 177.239 115.963 177.321L116.302 177.545C116.701 177.81 117.085 178.097 117.452 178.405C117.61 178.536 117.764 178.662 117.912 178.804C118.41 179.256 118.883 179.735 119.329 180.239C119.477 180.408 119.631 180.584 119.778 180.786C119.926 180.989 120.008 181.065 120.123 181.208C120.309 181.438 120.495 181.678 120.671 181.93C120.797 182.089 120.917 182.259 121.037 182.428C121.224 182.686 121.41 182.976 121.585 183.228C121.76 183.48 121.875 183.649 122.017 183.879L122.466 184.591C122.62 184.832 122.767 185.078 122.921 185.335C123.271 185.91 123.616 186.518 123.966 187.147C124.076 187.355 124.196 187.569 124.311 187.782C124.426 187.996 124.623 188.363 124.782 188.664C124.941 188.965 125.089 189.211 125.236 189.529C125.384 189.846 125.581 190.191 125.756 190.536C126.189 191.242 126.55 191.96 126.906 192.682Z" fill="#161616"/>
<path d="M134.215 220.575C129.167 223.963 120.731 229.033 113.253 230.697C113.253 230.697 112.481 229.153 111.304 226.826L108.676 221.62C107.094 218.472 105.337 214.98 103.837 211.985L112.388 203.669C112.722 203.544 119.264 203.877 117.244 209.363C115.224 214.848 111.66 218.522 114.567 220.75C117.474 222.978 125.872 205.011 133.279 218.319C133.682 219.03 133.996 219.787 134.215 220.575Z" fill="#393939"/>
<path d="M117.206 189.009C117.206 189.299 117.206 189.595 117.162 189.901C117.069 191.429 116.899 193.142 116.67 195.069C116.587 195.797 116.456 196.591 116.281 197.456C116.078 198.501 115.816 199.646 115.514 200.845C114.556 204.611 113.139 209.106 111.469 213.901C111.272 214.449 111.069 215.051 110.861 215.626C110.494 216.671 110.111 217.722 109.728 218.779C109.385 219.72 109.035 220.668 108.677 221.62C104.582 232.569 99.8685 243.868 96.9123 250.788C90.2772 251.135 83.8393 251.52 77.5984 251.943C75.4086 252.085 73.2371 252.235 71.0838 252.392C68.051 252.618 65.0765 252.848 62.1604 253.082C54.7042 253.689 47.6531 254.346 41.0674 255.047C42.2663 249.151 45.5126 233.533 49.3283 217.219C51.4305 208.241 53.7079 199.049 55.8977 191.155C57.4469 185.598 58.9634 180.688 60.3484 176.921C61.7937 173.04 63.0856 170.396 64.1805 169.558C67.9798 166.657 71.2535 165.726 75.3539 166.23C75.8028 166.29 76.2572 166.361 76.728 166.449C77.1988 166.536 77.675 166.646 78.1677 166.766C78.3484 166.804 78.5291 166.854 78.7152 166.903C78.9013 166.952 79.1039 167.012 79.301 167.067L79.9196 167.242C80.894 167.534 81.9287 167.876 83.0236 168.266L83.7024 168.507C84.2499 168.704 84.7973 168.912 85.3885 169.137C86.4834 169.547 87.644 170.007 88.8812 170.494C91.9743 171.726 96.0473 173.379 104.681 175.197C105.255 175.312 105.808 175.438 106.323 175.558L106.783 175.662L107.226 175.772C107.445 175.821 107.67 175.881 107.878 175.936C108.086 175.991 108.299 176.045 108.502 176.1C108.912 176.21 109.306 176.319 109.684 176.439C110.292 176.631 110.861 176.828 111.392 177.042L111.89 177.25C112.208 177.397 112.509 177.545 112.788 177.699L113.16 177.907C113.737 178.244 114.27 178.65 114.748 179.116L114.841 179.21L114.972 179.352L115.148 179.549C115.321 179.754 115.483 179.968 115.635 180.189C115.717 180.315 115.794 180.436 115.87 180.573C115.947 180.71 115.991 180.781 116.045 180.896L116.122 181.049C116.566 182.002 116.862 183.017 116.998 184.06C116.998 184.197 117.036 184.334 117.058 184.481C117.08 184.629 117.058 184.662 117.091 184.761C117.124 184.859 117.124 185.073 117.135 185.231C117.146 185.39 117.162 185.582 117.168 185.779V186.014C117.168 186.206 117.168 186.403 117.168 186.606C117.255 187.345 117.244 188.144 117.206 189.009Z" fill="#161616"/>
<path d="M96.9121 250.788C99.8683 243.868 104.576 232.585 108.677 221.62C109.042 220.667 109.392 219.72 109.728 218.778C110.111 217.722 110.494 216.671 110.861 215.625C111.069 215.05 111.272 214.47 111.469 213.901C113.111 209.105 114.556 204.594 115.514 200.844" stroke="#393939" stroke-width="0.75" stroke-linecap="round" stroke-linejoin="round"/>
<path d="M116.671 195.069C116.588 195.797 116.457 196.591 116.282 197.455C115.896 197.86 115.53 198.284 115.187 198.726C111.707 203.022 107.205 206.377 102.092 208.481C94.1651 211.618 84.8968 210.841 78.9078 198.572C77.8512 196.382 76.8166 194.423 75.8147 192.622C70.4279 183.003 65.6377 178.388 60.3604 176.932C61.8056 173.05 63.0976 170.406 64.1925 169.569C67.9917 166.667 71.2655 165.737 75.3658 166.24C75.8147 166.3 76.2691 166.372 76.7399 166.459C77.2107 166.547 77.687 166.656 78.1797 166.777C78.3603 166.815 78.541 166.864 78.7271 166.914C78.9133 166.963 79.1158 167.023 79.3129 167.078L79.9315 167.253C80.906 167.545 81.9406 167.886 83.0355 168.277L83.7144 168.518C84.2618 168.715 84.8093 168.923 85.4005 169.147C85.8549 169.322 86.3312 169.497 86.8129 169.695C87.1359 169.815 87.4534 169.941 87.7874 170.078L88.8822 170.51C91.9753 171.742 96.0483 173.395 104.682 175.213C105.256 175.328 105.809 175.454 106.324 175.574C116.452 177.873 118.439 180.403 116.671 195.069Z" fill="#161616"/>
<path d="M110.057 175.492C108.3 180.912 103.909 186.523 97.2029 185.505C89.8836 184.41 85.3726 176.85 85.4055 169.147C86.5003 169.558 87.6609 170.018 88.8982 170.505C91.9912 171.737 96.0642 173.39 104.697 175.207C105.272 175.322 105.825 175.448 106.34 175.569C107.575 175.44 108.818 175.415 110.057 175.492Z" fill="white"/>
<path d="M82.1094 245.549C79.2243 247.848 71.3958 251.023 62.1604 253.081C54.7042 253.689 47.6531 254.346 41.0674 255.047C42.2663 249.151 45.5126 233.532 49.3283 217.218C51.4305 208.24 53.7079 199.049 55.8977 191.154C72.0145 193.421 76.3119 210.485 68.9926 216.255C60.7809 222.747 59.8776 228.14 70.2736 227.997C80.6696 227.855 90.2334 239.083 82.1094 245.549Z" fill="#393939"/>
<path d="M107.807 154.722C107.731 155.5 107.649 156.239 107.577 156.945C106.931 163.263 106.641 167.144 106.597 170.708C106.597 172.591 106.597 174.387 106.729 176.407C106.729 176.407 104.167 184.816 95.0409 181.334C88.603 178.87 88.8986 170.522 88.8986 170.522C90.7818 164.55 92.035 158.398 92.6376 152.166C92.8566 149.04 108.99 143.412 107.807 154.722Z" fill="#FEBD9D"/>
<path d="M107.576 156.945C106.93 163.262 106.64 167.143 106.596 170.707C101.363 172.295 95.9103 166.18 98.9322 159.468C101.122 154.711 105.042 155.653 107.576 156.945Z" fill="#F4A789"/>
<path d="M138.748 217.356C138.748 217.356 124.843 228.113 113.254 230.697C113.254 230.697 112.482 229.153 111.305 226.827C120.83 223.542 130.805 218.752 137.358 214.372C138.234 216.239 138.748 217.356 138.748 217.356Z" fill="white"/>
<path d="M111.38 163.114C108.315 167.105 102.868 166.175 94.3768 157.558C91.1633 154.273 87.4571 148.979 87.5556 144.791C87.6542 140.603 92.7235 131.784 102.337 136.848C106.048 138.808 108.703 142.585 110.39 146.702C111.027 148.276 111.534 149.9 111.906 151.558C113.028 156.578 112.804 161.259 111.38 163.114Z" fill="#FEBD9D"/>
<path d="M100.87 151.268C100.35 152.566 98.2091 152.938 96.0851 152.095C93.961 151.252 92.6526 149.511 93.1726 148.213C93.6927 146.916 95.8277 146.538 97.9573 147.381C100.087 148.224 101.384 149.965 100.87 151.268Z" fill="#F4A789"/>
<path d="M111.89 151.547C110.555 152.04 109.279 151.903 108.688 151.109C107.872 150.014 108.628 148.06 110.374 146.691C111.012 148.266 111.519 149.89 111.89 151.547Z" fill="#F4A789"/>
<path d="M109.722 147.868C111.844 147.868 113.565 146.148 113.565 144.025C113.565 141.903 111.844 140.182 109.722 140.182C107.6 140.182 105.879 141.903 105.879 144.025C105.879 146.148 107.6 147.868 109.722 147.868Z" stroke="#683F1D" stroke-miterlimit="10"/>
<path d="M101.161 146.072C101.16 146.231 101.206 146.386 101.293 146.518C101.38 146.65 101.505 146.753 101.651 146.815C101.797 146.876 101.958 146.893 102.113 146.862C102.268 146.832 102.411 146.756 102.524 146.645C102.636 146.533 102.713 146.391 102.744 146.236C102.775 146.081 102.76 145.92 102.699 145.773C102.639 145.627 102.537 145.502 102.405 145.414C102.273 145.326 102.119 145.279 101.96 145.279C101.749 145.278 101.547 145.362 101.397 145.511C101.247 145.659 101.163 145.861 101.161 146.072Z" fill="#683F1D"/>
<path d="M106.729 144.824C106.729 144.982 106.775 145.137 106.863 145.268C106.951 145.4 107.076 145.502 107.222 145.563C107.368 145.623 107.529 145.639 107.684 145.608C107.839 145.577 107.981 145.501 108.093 145.39C108.205 145.278 108.281 145.135 108.312 144.98C108.343 144.825 108.327 144.665 108.266 144.519C108.206 144.372 108.103 144.248 107.972 144.16C107.84 144.072 107.686 144.025 107.528 144.025C107.316 144.025 107.113 144.109 106.963 144.259C106.813 144.409 106.729 144.612 106.729 144.824Z" fill="#683F1D"/>
<path d="M95.1764 156.988C93.2166 158.116 90.1728 158.116 89.1217 154.996C88.0706 151.875 91.0651 150.31 92.7622 150.616C94.8534 150.999 96.014 154.065 95.1764 156.988Z" fill="#FEBD9D"/>
<path d="M94.1306 154.131C93.178 152.324 91.0265 151.941 90.1123 154.388" stroke="#F4A789" stroke-width="0.75" stroke-linecap="round" stroke-linejoin="round"/>
<path d="M93.6005 153.386C91.2738 152.341 90.8085 156.31 93.491 155.308" stroke="#F4A789" stroke-width="0.75" stroke-linecap="round" stroke-linejoin="round"/>
<path d="M109.169 144.14C108.216 142.323 106.992 140.662 105.54 139.213C103.18 140.538 101.598 139.328 101.598 139.328C101.598 139.328 99.2987 141.786 97.1527 141.189C95.0067 140.593 95.1655 139.098 93.8133 138.759C92.4611 138.419 91.1582 139.854 91.1582 140.264C91.1582 140.675 91.8589 140.932 93.1454 143.981C94.4319 147.031 94.0487 151.306 91.421 151.788C90.5834 151.941 86.3954 151.366 84.3042 148.208C84.2622 148.155 84.2238 148.101 84.1892 148.043C82.1472 144.731 83.3407 142.35 84.0359 141.474C84.7312 140.598 85.8206 140.987 85.9739 140.155C86.8607 135.419 91.2239 131.346 95.8991 130.908C100.574 130.47 100.426 132.173 100.426 132.173C100.426 132.173 105.096 131.817 107.631 135.042C107.784 135.233 107.926 135.425 108.052 135.616C108.9 136.847 109.443 138.262 109.637 139.744C109.831 141.226 109.671 142.732 109.169 144.14Z" fill="#7F542D"/>
<path d="M109.17 144.14C108.217 142.323 106.993 140.661 105.54 139.213C103.181 140.538 101.598 139.328 101.598 139.328C101.598 139.328 99.2992 141.786 97.1532 141.189C95.0072 140.592 95.166 139.098 93.8138 138.758C92.4616 138.419 91.1587 139.853 91.1587 140.264C91.1587 140.675 91.8594 140.932 93.1459 143.981C94.4324 147.03 94.0492 151.306 91.4215 151.788C90.5839 151.941 86.3959 151.366 84.3047 148.207C89.7791 147.189 89.9598 144.277 88.7883 139.591C88.0218 136.503 93.7153 133.612 96.8959 135.578C98.8777 136.81 104.319 136.421 108.053 135.616C108.9 136.847 109.443 138.262 109.637 139.744C109.832 141.225 109.671 142.732 109.17 144.14Z" fill="#683F1D"/>
<path d="M100.437 132.179C98.5466 132.173 96.6742 132.546 94.9297 133.274" stroke="#BF8228" stroke-width="0.75" stroke-linecap="round" stroke-linejoin="round"/>
<path d="M101.029 135.507C101.894 135.66 104.621 138.009 105.54 139.219C105.54 139.219 107.068 140.313 107.807 138.759" stroke="#BF8228" stroke-width="0.75" stroke-linecap="round" stroke-linejoin="round"/>
<path d="M96.0312 136.897C96.7922 136.229 98.2758 136.415 99.3159 137.554C99.9809 138.252 100.742 138.851 101.577 139.333" stroke="#BF8228" stroke-width="0.75" stroke-linecap="round" stroke-linejoin="round"/>
<path d="M103.575 142.24C103.328 144.978 104.188 146.264 105.365 146.335C106.542 146.406 108.102 146.801 107.806 148.646" stroke="#F4A789" stroke-width="0.75" stroke-linecap="round" stroke-linejoin="round"/>
<path d="M102.217 152.149C103.844 152.43 105.493 152.557 107.144 152.527C107.144 152.527 106.596 154.629 104.565 154.388C103.986 154.314 103.446 154.057 103.024 153.654C102.601 153.251 102.318 152.724 102.217 152.149Z" fill="white" stroke="#F4A789" stroke-width="0.75" stroke-linecap="round" stroke-linejoin="round"/>
<path d="M96.8252 146.894C96.8252 147.652 97.0499 148.393 97.471 149.023C97.8921 149.653 98.4906 150.144 99.1908 150.434C99.8911 150.724 100.662 150.8 101.405 150.652C102.148 150.505 102.831 150.14 103.367 149.604C103.903 149.068 104.268 148.385 104.416 147.642C104.564 146.898 104.488 146.128 104.198 145.428C103.908 144.727 103.417 144.129 102.786 143.708C102.156 143.287 101.415 143.062 100.657 143.062C99.641 143.062 98.6663 143.466 97.9476 144.184C97.2289 144.903 96.8252 145.878 96.8252 146.894V146.894Z" stroke="#683F1D" stroke-miterlimit="10"/>
<path d="M104.166 140.642C104.095 142.011 107.932 141.737 107.965 141.146C107.998 140.555 104.237 139.339 104.166 140.642Z" fill="#7F542D"/>
<path d="M97.7495 143.85C98.1437 144.638 101.91 142.602 101.034 141.179C100.158 139.755 97.2076 142.788 97.7495 143.85Z" fill="#7F542D"/>
<path d="M95.1768 156.988C94.2022 157.562 93.059 157.781 91.9414 157.607" stroke="#F4A789" stroke-width="0.75" stroke-linecap="round" stroke-linejoin="round"/>
<path d="M71.9091 199.663C67.0752 206.687 63.1172 213.776 59.5533 220.302C50.7558 236.402 45.7248 248.117 34.8799 247.975C24.9876 247.838 23.931 233.304 35.4657 209.654L32.5533 206.944C32.5533 206.944 41.0332 194.583 49.1902 182.167C56.5588 170.96 63.0077 162.836 75.369 166.231C82.6664 168.251 80.4931 187.132 71.9091 199.663Z" fill="#FEBD9D"/>
<path d="M75.8121 192.606C74.7221 195.064 73.4159 197.42 71.9088 199.646C68.0767 205.197 64.8194 210.787 61.8577 216.108C61.0639 217.52 60.2975 218.916 59.553 220.285C56.0923 219.454 52.6787 218.438 49.3267 217.241C44.1862 215.331 39.0238 212.862 35.4271 209.659L32.5146 206.949C32.5146 206.949 33.4453 205.597 34.9782 203.347C38.0822 198.776 43.688 190.487 49.1515 182.172C50.4106 180.25 51.6479 178.422 52.8906 176.725C58.9125 168.513 65.0876 163.422 75.3358 166.236C81.4125 167.933 80.9581 181.06 75.8121 192.606Z" fill="#161616"/>
<path d="M61.8575 216.146C61.0637 217.558 60.2973 218.954 59.5527 220.323C51.9761 218.451 41.487 215.068 35.4651 209.681L32.5527 206.971C32.5527 206.971 33.4834 205.619 35.0162 203.369C39.5108 208.246 45.5327 211.35 61.8575 216.146Z" fill="white"/>
<path d="M75.8117 192.606C70.4249 182.987 65.6347 178.373 60.3574 176.916C57.9224 176.291 55.3782 176.22 52.9121 176.708C58.934 168.497 65.1092 163.405 75.3574 166.219C81.4121 167.933 80.9577 181.06 75.8117 192.606Z" fill="#161616"/>
<path d="M75.8447 192.541C74.7512 195.027 73.4337 197.409 71.9086 199.657C67.0746 206.681 63.1166 213.77 59.5527 220.296" stroke="#393939" stroke-width="0.75" stroke-linecap="round" stroke-linejoin="round"/>
<path d="M75.1775 182.884C76.2724 186.798 78.0078 188.615 74.4385 195.475" stroke="#393939" stroke-width="0.75" stroke-linecap="round" stroke-linejoin="round"/>
<path d="M28.3389 237.266C32.5378 227.144 47.9155 226.81 66.4848 233.582C85.0542 240.354 105.468 247.137 108.561 247.974C111.655 248.812 111.074 259.35 103.29 258.764C95.5049 258.179 66.0633 260.73 48.8352 257.527C31.6071 254.325 25.5743 243.885 28.3389 237.266Z" fill="#FEBD9D"/>
<path d="M37 229.969C41.927 228.513 48.3978 228.726 55.7938 230.396" stroke="#F4A789" stroke-width="0.75" stroke-linecap="round" stroke-linejoin="round"/>
<path d="M152.872 248.287C161.083 236.484 165.32 189.885 165.32 189.885C165.32 189.885 173.56 186.053 174.928 185.128C176.297 184.203 178.957 179.572 179.417 178.186C179.417 178.186 181.727 176.774 181.656 175.997C181.585 175.219 180.736 175.219 180.736 175.219C180.736 175.219 181.284 173.451 178.3 173.949C178.159 173.764 177.969 173.623 177.751 173.541C177.533 173.46 177.296 173.442 177.069 173.489C176.182 173.593 165.627 176.736 165.627 176.736C165.627 176.736 169.935 173.736 170.007 172.537C170.078 171.338 168.622 171.803 167.631 172.4C165.624 173.582 163.465 174.487 161.215 175.088C160.158 175.395 156.835 178.055 153.835 183.809C150.835 189.562 133.229 227.446 131.308 232.57C125.023 249.42 139.202 267.869 152.872 248.287Z" fill="#FEBD9D"/>
<path d="M137.625 218.298C134.516 225.174 131.97 230.823 131.308 232.57" stroke="#F4A789" stroke-width="0.75" stroke-linecap="round" stroke-linejoin="round"/>
<path d="M174.928 185.128C176.302 184.208 178.958 179.572 179.417 178.186C179.417 178.186 181.728 176.774 181.656 175.997C181.585 175.219 180.737 175.219 180.737 175.219C180.737 175.219 181.284 173.451 178.301 173.949C178.16 173.764 177.969 173.623 177.751 173.541C177.533 173.46 177.297 173.442 177.069 173.489C176.182 173.593 165.627 176.736 165.627 176.736C165.627 176.736 169.936 173.736 170.007 172.537C170.078 171.338 168.622 171.803 167.631 172.4C165.624 173.582 163.465 174.487 161.215 175.088" stroke="#F4A789" stroke-width="0.75" stroke-linecap="round" stroke-linejoin="round"/>
<path d="M165.626 176.73L163.984 177.858C163.984 177.858 165.331 180.852 162.019 183.332" stroke="#F4A789" stroke-width="0.75" stroke-linecap="round" stroke-linejoin="round"/>
<path d="M168.496 178.466L178.301 173.949" stroke="#F4A789" stroke-width="0.75" stroke-linecap="round" stroke-linejoin="round"/>
<path d="M172.235 181.777C172.317 181.723 175.208 180.359 175.208 180.359C175.208 180.359 178.181 175.728 178.969 175.493C179.757 175.257 180.661 175.64 179.418 178.186" stroke="#F4A789" stroke-width="0.75" stroke-linecap="round" stroke-linejoin="round"/>
<path d="M170.099 180.037L178.622 175.728" stroke="#F4A789" stroke-width="0.75" stroke-linecap="round" stroke-linejoin="round"/>
<path d="M180.737 175.22L179.637 175.488" stroke="#F4A789" stroke-width="0.75" stroke-linecap="round" stroke-linejoin="round"/>
<path d="M147.337 233.478C142.497 248.018 134.05 268.815 134.05 268.815L77.6142 281.62L38.5156 272.357V269.505L83.2145 260.078C86.4335 251.921 90.5393 236.39 92.5704 235.991C95.8934 235.334 142.361 228.096 145.87 228.003C149.187 227.91 148.388 230.319 147.337 233.478Z" fill="#F9F9F9" stroke="#DDDDDD" stroke-linecap="round" stroke-linejoin="round"/>
<path d="M83.215 260.078L77.1055 276.206" stroke="#DDDDDD" stroke-linecap="round" stroke-linejoin="round"/>
<path d="M77.7018 278.484L77.6142 281.621L38.5156 272.358V269.506L77.7018 278.484Z" fill="#DDDDDD" stroke="#DDDDDD" stroke-linecap="round" stroke-linejoin="round"/>
<path d="M289.814 223.3C289.771 223.799 289.732 224.291 289.694 224.773C288.282 240.649 286.721 248.8 285.813 252.545L283.995 252.403C281.396 252.198 278.78 252.007 276.145 251.828C260.975 250.771 245.389 250.01 229.699 249.501C225.207 249.355 220.703 249.229 216.188 249.123C219.473 242.291 223.568 229.7 226.951 218.466C227.406 216.923 227.86 215.412 228.287 213.939C228.652 212.713 228.999 211.523 229.327 210.37C229.371 210.206 229.42 210.041 229.47 209.877C229.519 209.713 229.584 209.461 229.65 209.253C229.798 208.738 229.94 208.218 230.088 207.698C230.165 207.457 230.23 207.216 230.296 206.976C230.406 206.598 230.51 206.22 230.614 205.848C230.718 205.476 230.8 205.202 230.887 204.89C231.024 204.403 231.156 203.921 231.287 203.461C231.364 203.165 231.451 202.875 231.522 202.596L232.07 200.696C232.136 200.477 232.185 200.275 232.234 200.089C232.344 199.711 232.426 199.399 232.497 199.169C232.497 199.114 232.524 199.06 232.535 199.016C232.546 198.972 232.563 198.917 232.574 198.873C232.575 198.85 232.575 198.826 232.574 198.802V198.731C232.623 198.539 232.672 198.364 232.716 198.184L232.913 197.456C233.209 196.361 233.367 195.775 233.367 195.775C232.399 196.162 231.348 196.297 230.313 196.169C225.572 195.813 218.614 192.195 217.782 187.41C217.763 187.316 217.751 187.221 217.743 187.125C217.717 186.944 217.702 186.761 217.699 186.578C217.7 185.078 218.22 183.625 219.172 182.466C224.811 174.972 228.511 172.333 232.207 171.03C232.65 170.883 233.083 170.746 233.526 170.62C237.692 169.476 250.464 168.594 250.464 168.594C252.002 166.404 255.019 159.08 256.557 151.87C258.325 143.565 264.944 142.306 268.459 146.943C269.778 148.678 270.648 151.235 270.698 154.552C270.736 158.68 270.802 163.711 270.84 166.727C270.867 168.37 270.884 169.393 270.884 169.393C270.884 169.393 277.097 167.056 287.044 166.914C289.152 166.886 291.216 167.384 292.743 168.786C294.999 170.855 297.123 175.01 299.039 180.047C303.605 192.058 306.96 209.061 308.055 215.215C309.506 223.716 289.814 223.3 289.814 223.3Z" fill="#A7CAF0"/>
<path d="M293.932 212.029C289.038 213.139 283.938 212.933 279.151 211.432C274.037 213.726 255.249 217.257 242.674 216.052C230.099 214.848 229.563 210.425 229.563 210.425L229.306 210.364C230.811 205.136 232.59 198.726 232.59 198.726C232.59 198.726 233.368 198.884 234.78 199.109C246.931 200.873 259.3 200.446 271.3 197.85C271.3 197.85 281.154 200.631 290.975 198.572L293.932 212.029Z" fill="#83ADDF"/>
<path d="M294.993 216.873C294.993 216.873 277.973 219.282 263.241 221.614C248.509 223.946 233.132 222.709 226.962 218.461L228.303 213.928C233.821 218.718 241.622 219.911 255.801 219.309C269.98 218.707 278.947 214.453 278.947 214.453C286.294 216.408 291.829 215.548 294.56 214.804L294.993 216.873Z" fill="#83ADDF"/>
<path d="M299.065 180.063C291.362 179.477 282.056 183.151 274.315 190.054C267.614 196.021 254.678 203.587 244.923 193.886C242.946 191.946 240.643 190.371 238.118 189.233C232.288 186.583 225.116 185.795 217.726 186.583C217.726 185.083 218.247 183.631 219.198 182.472C224.837 174.977 228.538 172.338 232.233 171.036C232.676 170.888 233.109 170.751 233.552 170.625C237.718 169.481 250.49 168.599 250.49 168.599C252.029 166.41 255.045 159.085 256.583 151.875C258.352 143.57 264.97 142.311 268.485 146.948C269.804 148.683 270.674 151.24 270.724 154.557C270.762 158.685 270.828 163.716 270.866 166.733C270.893 168.375 270.91 169.399 270.91 169.399C270.91 169.399 277.123 167.061 287.07 166.919C289.178 166.891 291.242 167.39 292.769 168.791C295.025 170.871 297.149 175.026 299.065 180.063Z" fill="#A7CAF0"/>
<path d="M289.694 224.773C288.281 240.649 286.721 248.801 285.812 252.545L283.995 252.403C281.396 252.199 278.78 252.007 276.144 251.828C260.975 250.772 245.389 250.011 229.699 249.501C235.376 243.534 245.712 241.142 252.38 244.514C259.863 248.297 272.088 244.744 268.869 235.668C266.958 230.286 268.157 223.859 278.925 219.337L289.694 224.773Z" fill="#A7CAF0"/>
<path d="M292.771 168.802C289.569 169.312 285.326 171.074 280.131 173.018C278.302 173.702 276.365 174.408 274.317 175.087C267.685 177.377 260.774 178.758 253.771 179.193C251.145 179.349 248.512 179.329 245.888 179.133C243.876 178.998 241.887 178.63 239.959 178.038C235.837 176.702 233.538 174.343 232.229 171.058C232.673 170.91 233.111 170.773 233.554 170.647C235.432 170.133 239.073 169.673 242.489 169.317C244.651 169.087 246.737 168.912 248.231 168.797C249.611 168.682 250.492 168.622 250.492 168.622C252.031 166.432 255.047 159.107 256.585 151.897C258.354 143.593 264.972 142.333 268.487 146.97C269.806 148.706 270.677 151.262 270.726 154.58C270.764 158.708 270.83 163.739 270.868 166.755C270.896 168.397 270.912 169.421 270.912 169.421C272.395 168.911 273.912 168.501 275.45 168.195C276.939 167.877 278.768 167.565 280.886 167.324C282.941 167.093 285.005 166.966 287.073 166.941C289.124 166.927 291.124 167.581 292.771 168.802Z" fill="#B25E47"/>
<path d="M270.867 166.744C265.606 166.432 261.123 162.167 262.234 156.737C263.477 150.666 265.842 147.78 268.486 146.959C269.805 148.695 270.676 151.251 270.725 154.569C270.763 158.697 270.829 163.728 270.867 166.744Z" fill="#914839"/>
<path d="M280.885 167.313C280.465 169.188 280.214 171.097 280.135 173.017C278.307 173.702 276.369 174.408 274.321 175.087C274.41 172.747 274.791 170.428 275.455 168.183C276.938 167.866 278.767 167.554 280.885 167.313Z" fill="#161616"/>
<path d="M248.231 168.791C247.096 172.149 246.311 175.614 245.888 179.133C243.876 178.998 241.886 178.63 239.959 178.038C240.525 175.057 241.372 172.137 242.488 169.317C244.651 169.065 246.742 168.906 248.231 168.791Z" fill="#161616"/>
<path d="M297.71 234.797C297.129 240.414 296.067 245.998 294.222 249.901C293.084 252.304 291.644 254.062 289.815 254.795C286.142 256.279 282.983 255.89 280.465 254.494C275.954 252.003 273.512 246.337 273.896 242.664C273.896 242.489 273.929 242.292 273.95 242.116C273.994 241.569 274.033 240.983 274.071 240.326C274.071 240.113 274.071 239.888 274.115 239.658C274.115 239.615 274.115 239.571 274.115 239.521C274.115 239.357 274.115 239.188 274.115 239.018C274.115 238.717 274.148 238.399 274.158 238.087C274.169 237.775 274.158 237.594 274.191 237.337C274.191 237.25 274.191 237.162 274.191 237.074C274.191 236.819 274.202 236.556 274.224 236.286C274.224 236.012 274.224 235.739 274.262 235.448C274.262 234.824 274.306 234.195 274.328 233.538C274.35 232.881 274.366 232.372 274.388 231.775C274.388 231.518 274.388 231.261 274.388 231.009C274.438 229.624 274.476 228.184 274.52 226.722C274.547 225.803 274.575 224.872 274.607 223.936L274.64 222.781L274.689 221.198L274.722 220.104C274.722 219.469 274.772 218.844 274.788 218.22C274.821 217.317 274.854 216.419 274.887 215.538C274.887 214.958 274.936 214.383 274.958 213.813C275.002 212.746 275.051 211.722 275.1 210.731L298.257 213.956C298.538 220.907 298.356 227.87 297.71 234.797Z" fill="#A7CAF0"/>
<path d="M275.139 210.671C274.591 221.193 274.422 236.948 273.863 242.653" stroke="#83ADDF" stroke-width="0.75" stroke-linecap="round" stroke-linejoin="round"/>
<path d="M297.709 234.797C297.129 240.414 296.067 245.998 294.222 249.901C293.083 252.304 291.644 254.062 289.815 254.795C286.142 256.279 282.983 255.89 280.465 254.494C281.765 253.913 283.137 253.507 284.543 253.284C290.691 252.239 288.753 244.678 291.425 239.428C292.503 237.332 294.326 235.596 297.709 234.797Z" fill="#A7CAF0"/>
<path d="M240.775 266.045C239.209 267.413 238.174 273.161 241.946 277.749C245.718 282.337 249.408 279.391 249.408 279.391C249.408 279.391 254.817 274.733 251.05 267.802C247.284 260.871 240.775 266.045 240.775 266.045Z" fill="#83ADDF"/>
<path d="M248.975 264.939C245.012 266.849 242.193 268.136 241.481 268.087C240.769 268.037 234.129 268.853 232.218 269.428C230.308 270.003 225.966 274.579 226.393 275.247C226.82 275.915 228.496 275.795 228.496 275.795C228.496 275.795 221.926 280.618 221.286 282.364C220.645 284.11 222.627 283.7 222.627 283.7C221.603 284.247 220.196 287.17 223.771 286.087C222.912 286.634 222.392 288.249 224.822 287.663C228.353 286.804 234.129 284.417 234.129 284.417C234.129 284.417 230.116 287.422 228.496 288.189C226.875 288.955 226.777 290.718 230.264 289.716C233.751 288.714 240.523 283.99 242.855 282.315C245.187 280.639 247.437 279.216 247.963 278.882C248.488 278.548 253.503 276.254 253.503 276.254C253.503 276.254 258.375 263.986 248.975 264.939Z" fill="#B25E47"/>
<path d="M228.495 275.817C230.931 274.098 234.32 271.59 235.037 271.508" stroke="#914839" stroke-width="0.75" stroke-linecap="round" stroke-linejoin="round"/>
<path d="M222.654 283.744C222.753 283.475 232.475 277.235 232.475 277.235" stroke="#914839" stroke-width="0.75" stroke-linecap="round" stroke-linejoin="round"/>
<path d="M223.749 286.13C223.798 285.824 233.713 280.831 233.713 280.831" stroke="#914839" stroke-width="0.75" stroke-linecap="round" stroke-linejoin="round"/>
<path d="M232.218 269.428C230.308 269.976 225.966 274.58 226.393 275.248C226.82 275.915 228.496 275.795 228.496 275.795C228.496 275.795 221.926 280.618 221.286 282.364C220.645 284.111 222.627 283.7 222.627 283.7C221.603 284.248 220.196 287.171 223.771 286.087C222.912 286.634 222.392 288.249 224.822 287.664C228.353 286.804 234.129 284.417 234.129 284.417C234.129 284.417 230.116 287.423 228.496 288.189C226.875 288.956 226.777 290.718 230.264 289.717C231.113 289.449 231.937 289.108 232.727 288.698" stroke="#914839" stroke-width="0.75" stroke-linecap="round" stroke-linejoin="round"/>
<path d="M294.222 249.901C293.319 254.05 283.136 260.926 272.707 266.997C261.375 273.567 249.753 279.233 249.408 279.397C251.882 275.45 251.362 264.775 240.78 266.028C240.78 266.028 268.596 246.32 273.824 242.05C273.856 242.022 273.891 241.996 273.928 241.974C279.884 237.178 287.291 236.302 291.446 239.428C293.992 241.377 295.3 244.859 294.222 249.901Z" fill="#A7CAF0"/>
<path d="M294.223 249.9C293.319 254.05 283.137 260.926 272.708 266.997C274.005 260.975 275.719 256.661 280.454 254.493C281.755 253.913 283.126 253.506 284.533 253.283C290.681 252.238 288.743 244.678 291.414 239.428C293.993 241.377 295.301 244.858 294.223 249.9Z" fill="#A7CAF0"/>
<path d="M264.654 248.921C268.809 245.893 272.291 243.309 273.829 242.061C276.039 240.239 278.607 238.904 281.368 238.141" stroke="#83ADDF" stroke-width="0.75" stroke-linecap="round" stroke-linejoin="round"/>
<path d="M238.12 189.228C237.2 192.582 236.089 195.882 234.791 199.109C233.25 202.966 231.514 206.743 229.591 210.425C229.134 211.312 228.662 212.197 228.173 213.08C228.102 213.217 228.025 213.359 227.943 213.496C227.324 214.624 226.673 215.751 226.01 216.868C224.215 219.89 222.494 222.669 220.848 225.206C218.353 229.14 215.586 232.893 212.565 236.439C207.014 242.795 202.164 245.549 197.417 244.651C196.505 244.475 195.618 244.184 194.779 243.786C193.859 243.363 193.036 242.756 192.36 242.003C191.684 241.25 191.17 240.366 190.848 239.406C190.537 238.522 190.338 237.603 190.257 236.669C189.901 232.974 190.908 228.211 193.081 222.764C194.322 219.715 195.744 216.742 197.341 213.863C197.8 213.031 198.277 212.22 198.764 211.355C200.341 208.662 202.12 205.881 204.074 203.056C204.277 202.771 204.468 202.509 204.66 202.208C205.306 201.277 205.934 200.365 206.543 199.47L208.41 196.733C208.552 196.525 208.689 196.317 208.831 196.115C211.065 192.83 213.091 189.802 214.985 187.087L215.072 186.956L216.167 185.417C222.479 176.549 227.379 171.304 233.565 170.636C240.277 169.936 241.125 178.016 238.12 189.228Z" fill="#A7CAF0"/>
<path d="M238.12 189.228C231.594 186.239 223.388 185.642 215.062 186.956L216.156 185.418C222.468 176.549 227.368 171.304 233.554 170.637C240.277 169.936 241.125 178.016 238.12 189.228Z" fill="#A7CAF0"/>
<path d="M233.39 195.786C235.141 188.904 235.459 186.32 235.459 186.32" stroke="#83ADDF" stroke-width="0.75" stroke-linecap="round" stroke-linejoin="round"/>
<path d="M234.791 199.109C233.249 202.966 231.513 206.743 229.59 210.425C229.59 210.425 216.084 208.733 208.825 196.115C211.059 192.83 213.084 189.802 214.978 187.087C217.124 190.531 222.522 196.574 234.791 199.109Z" fill="#83ADDF"/>
<path d="M229.327 210.364C230.833 205.136 232.064 200.746 232.738 198.195L232.935 197.467C233.23 196.372 233.389 195.786 233.389 195.786" stroke="#83ADDF" stroke-width="0.75" stroke-linecap="round" stroke-linejoin="round"/>
<path d="M228.167 213.08L227.937 213.485L226.005 216.857C226.005 216.857 209.767 213.649 204.654 202.208C205.3 201.277 205.928 200.365 206.538 199.47C213.923 211.18 228.167 213.08 228.167 213.08Z" fill="#83ADDF"/>
<path d="M217.475 217.322C217.475 217.322 216.638 224.105 213.205 234.654C213.008 235.268 212.794 235.859 212.559 236.445C209.822 243.392 204.939 248.57 200.11 250.339C198.421 251.009 196.573 251.167 194.794 250.793C188.269 249.293 185.34 243.939 187.103 234.654C187.891 230.494 190.059 226.487 193.07 222.78C194.79 220.687 196.675 218.735 198.709 216.945C201.291 214.665 204.036 212.576 206.92 210.693L217.475 217.322Z" fill="#A7CAF0"/>
<path d="M200.11 250.339C198.421 251.009 196.573 251.167 194.794 250.793C188.269 249.293 185.34 243.939 187.103 234.655C187.891 230.494 190.059 226.487 193.07 222.78C194.79 220.687 196.675 218.735 198.709 216.945C199.245 218.612 199.33 220.391 198.956 222.101C198.582 223.812 197.762 225.393 196.579 226.684C193.65 229.968 190.612 233.642 190.245 236.686C190.099 237.64 190.309 238.614 190.836 239.423C191.362 240.172 192.073 240.772 192.9 241.164C194.604 242.048 196.132 243.237 197.406 244.673C198.961 246.436 199.962 248.445 200.11 250.339Z" fill="#A7CAF0"/>
<path d="M213.205 234.66C214.015 232.163 214.683 229.886 215.225 227.85" stroke="#83ADDF" stroke-width="0.75" stroke-linecap="round" stroke-linejoin="round"/>
<path d="M201.348 214.728C194.269 220.366 188.499 227.259 187.114 234.66" stroke="#83ADDF" stroke-width="0.75" stroke-linecap="round" stroke-linejoin="round"/>
<path d="M204.79 216.255C203.148 219.107 200.81 223.919 202.781 227.045C204.752 230.171 209.033 230.877 212.301 227.855C215.569 224.833 217.228 221.833 217.474 218.593L204.79 216.255Z" fill="#83ADDF"/>
<path d="M209.751 209.943C209.044 209.083 210.846 207.928 212.154 208.738C213.467 209.584 214.891 210.242 216.386 210.693C217.481 210.934 218.17 213.736 217.667 214.251C217.667 214.251 210.61 210.961 209.751 209.943Z" fill="#B25E47"/>
<path d="M216.386 210.671C217.481 210.912 218.17 213.715 217.667 214.229" stroke="#914839" stroke-width="0.75" stroke-linecap="round" stroke-linejoin="round"/>
<path d="M194.85 203.554C193.372 202.629 194.91 199.946 196.394 200.565C197.877 201.184 220.016 215.598 220.016 215.598L221.658 218.335L218.374 217.897C218.374 217.897 196.082 204.348 194.85 203.554Z" fill="#683F1D"/>
<path d="M204.72 212.199C204.37 210.096 207.129 209.538 208.492 210.518C209.855 211.498 214.667 213.731 216.238 214.251C217.809 214.772 218.795 216.731 217.815 217.416C217.815 217.416 218.795 218.812 217.645 219.452C217.137 219.774 216.583 220.017 216.003 220.175C216.003 220.175 216.474 221.68 212.899 223.251C212.899 223.251 212.351 225.441 210.43 225.989C208.508 226.536 204.955 226.115 204.129 225.441C203.302 224.768 202.891 222.704 203.702 221.949C203.702 221.949 201.649 220.985 202.016 219.474C202.508 217.438 203.91 218.029 203.488 217.224C203.067 216.419 202.393 214.903 203.444 214.273C204.496 213.644 204.912 213.326 204.72 212.199Z" fill="#B25E47"/>
<path d="M216.238 214.251C217.815 214.771 218.795 216.731 217.815 217.415C217.815 217.415 218.795 218.811 217.645 219.452C217.137 219.773 216.583 220.017 216.003 220.174C216.003 220.174 216.473 221.68 212.899 223.251C212.899 223.251 212.351 225.441 210.43 225.988" stroke="#914839" stroke-width="0.75" stroke-linecap="round" stroke-linejoin="round"/>
<path d="M205.327 218.296C208.044 219.312 210.869 220.01 213.747 220.377C214.51 220.374 215.272 220.306 216.024 220.174" stroke="#914839" stroke-width="0.75" stroke-linecap="round" stroke-linejoin="round"/>
<path d="M217.815 217.415C217.815 217.415 213.818 217.53 212.97 217.415C212.22 217.311 206.499 215.05 206.499 215.05" stroke="#914839" stroke-width="0.75" stroke-linecap="round" stroke-linejoin="round"/>
<path d="M206.39 222.781C206.39 222.781 210.61 223.629 212.921 223.251" stroke="#914839" stroke-width="0.75" stroke-linecap="round" stroke-linejoin="round"/>
<path d="M257.521 135.884C256.238 138.179 254.387 140.105 252.146 141.479C248.341 143.855 245.127 142.071 243.759 140.253C243.255 139.574 243.266 137.729 243.655 135.649C244.317 132.129 246.058 127.914 248.198 127.437C249.438 127.141 250.729 127.126 251.975 127.393C253.222 127.661 254.393 128.203 255.403 128.981C255.75 129.249 256.061 129.559 256.328 129.906C257.768 131.746 257.812 131.839 257.521 135.884Z" fill="#FFEACC"/>
<path d="M257.521 135.884C256.238 138.178 254.387 140.105 252.146 141.479C248.341 143.855 245.127 142.07 243.759 140.253C243.255 139.574 243.266 137.729 243.655 135.649C245.51 138.933 248.779 140.242 250.065 139.191C251.894 137.685 249.113 130.355 255.403 128.959C255.75 129.226 256.061 129.537 256.328 129.884C257.768 131.745 257.812 131.839 257.521 135.884Z" fill="#EDD6B7"/>
<path d="M252.765 136.766C253.816 136.492 254.051 134.116 253.039 133.963C252.026 133.809 251.238 135.479 251.484 136.766C251.637 137.581 252.256 138.145 254.166 137.685" stroke="#BF8228" stroke-width="0.75" stroke-linecap="round" stroke-linejoin="round"/>
<path d="M251.669 139.333C247.383 139.234 245.79 138.424 245.467 136.508C245.144 134.592 244.952 131.362 244.952 131.362" stroke="#BF8228" stroke-width="0.75" stroke-linecap="round" stroke-linejoin="round"/>
<path d="M249.42 139.185C248.301 138.239 247.53 136.946 247.23 135.512C246.88 133.322 248.626 130.398 249.809 130.262C251.851 130.032 256.378 131.784 256.017 135.325" stroke="#BF8228" stroke-width="0.75" stroke-linecap="round" stroke-linejoin="round"/>
<path d="M273.786 159.567C269.691 161.494 262.246 159.567 257.992 154.946C252.671 149.16 257.237 136.333 263.314 134.516C269.39 132.698 272.538 139.131 274.317 144.293L274.35 144.403C274.811 145.759 275.195 147.141 275.5 148.541C276.458 152.91 276.775 158.16 273.786 159.567Z" fill="#B25E47"/>
<path d="M257.816 146.346C257.493 147.474 259.13 148.935 261.478 149.631C263.827 150.326 265.984 149.926 266.307 148.793C266.63 147.66 264.993 146.198 262.65 145.508C260.307 144.819 258.139 145.213 257.816 146.346Z" fill="#914839"/>
<path d="M275.5 148.541C274.323 149.039 273.277 149.056 272.79 148.481C272.095 147.649 272.79 145.903 274.35 144.403C274.811 145.759 275.195 147.141 275.5 148.541Z" fill="#914839"/>
<path d="M270.359 143.171C270.358 143.329 270.404 143.485 270.492 143.617C270.579 143.749 270.704 143.852 270.85 143.914C270.997 143.975 271.158 143.991 271.313 143.96C271.469 143.93 271.612 143.854 271.724 143.741C271.836 143.629 271.912 143.486 271.943 143.331C271.973 143.175 271.957 143.014 271.896 142.868C271.835 142.722 271.732 142.597 271.599 142.509C271.467 142.422 271.312 142.376 271.153 142.377C270.943 142.378 270.742 142.462 270.593 142.611C270.445 142.76 270.361 142.961 270.359 143.171Z" fill="#683F1D"/>
<path d="M265.902 144.298C265.902 144.457 265.949 144.611 266.037 144.743C266.126 144.874 266.251 144.977 266.397 145.037C266.543 145.098 266.704 145.113 266.86 145.082C267.015 145.051 267.157 144.974 267.269 144.862C267.38 144.749 267.456 144.606 267.486 144.451C267.516 144.295 267.5 144.135 267.438 143.989C267.377 143.843 267.274 143.718 267.142 143.631C267.01 143.544 266.854 143.498 266.696 143.499C266.591 143.499 266.488 143.52 266.391 143.56C266.294 143.6 266.207 143.659 266.133 143.733C266.059 143.808 266.001 143.896 265.961 143.993C265.922 144.09 265.902 144.194 265.902 144.298Z" fill="#683F1D"/>
<path d="M263.898 147.715C263.898 147.789 263.921 147.862 263.962 147.925C264.004 147.987 264.063 148.035 264.132 148.064C264.201 148.092 264.277 148.1 264.35 148.085C264.423 148.071 264.49 148.035 264.543 147.982C264.596 147.929 264.632 147.862 264.647 147.788C264.661 147.715 264.654 147.639 264.625 147.57C264.597 147.501 264.548 147.442 264.486 147.401C264.424 147.359 264.351 147.337 264.276 147.337C264.176 147.337 264.08 147.377 264.009 147.448C263.938 147.518 263.898 147.614 263.898 147.715Z" fill="#914839"/>
<path d="M265.53 146.565C265.739 146.565 265.908 146.396 265.908 146.187C265.908 145.978 265.739 145.809 265.53 145.809C265.321 145.809 265.152 145.978 265.152 146.187C265.152 146.396 265.321 146.565 265.53 146.565Z" fill="#914839"/>
<path d="M265.908 147.934C266.117 147.934 266.286 147.764 266.286 147.556C266.286 147.347 266.117 147.178 265.908 147.178C265.699 147.178 265.53 147.347 265.53 147.556C265.53 147.764 265.699 147.934 265.908 147.934Z" fill="#914839"/>
<path d="M266.921 146.564C266.921 146.639 266.943 146.712 266.985 146.774C267.026 146.836 267.085 146.885 267.154 146.913C267.223 146.942 267.299 146.95 267.372 146.935C267.446 146.92 267.513 146.884 267.566 146.832C267.619 146.779 267.655 146.711 267.669 146.638C267.684 146.565 267.676 146.489 267.648 146.42C267.619 146.351 267.571 146.292 267.509 146.25C267.446 146.209 267.373 146.187 267.299 146.187C267.198 146.187 267.102 146.227 267.032 146.297C266.961 146.368 266.921 146.464 266.921 146.564Z" fill="#914839"/>
<path d="M273.107 145.152C273.107 145.227 273.13 145.3 273.171 145.362C273.213 145.424 273.272 145.473 273.341 145.501C273.41 145.53 273.486 145.537 273.559 145.523C273.632 145.508 273.699 145.472 273.752 145.419C273.805 145.367 273.841 145.299 273.856 145.226C273.87 145.153 273.863 145.077 273.834 145.008C273.806 144.939 273.757 144.88 273.695 144.838C273.633 144.797 273.56 144.775 273.485 144.775C273.385 144.775 273.289 144.814 273.218 144.885C273.147 144.956 273.107 145.052 273.107 145.152Z" fill="#914839"/>
<path d="M272.127 144.966C272.335 144.966 272.505 144.797 272.505 144.589C272.505 144.38 272.335 144.211 272.127 144.211C271.918 144.211 271.749 144.38 271.749 144.589C271.749 144.797 271.918 144.966 272.127 144.966Z" fill="#914839"/>
<path d="M277.914 144.079C277.454 144.627 276.896 144.901 276.65 144.627C276.168 144.112 277.553 143.302 276.65 142.371C275.746 141.441 273.453 141.994 273.453 141.994C270.119 133.278 265.066 133.552 262.066 135.052C259.066 136.552 258.781 139.174 258.737 140.745C258.693 142.317 258.682 142.853 260.927 144.112C263.172 145.371 261.08 147.342 260.719 148.902C260.358 150.463 262.011 149.997 262.909 151.552C263.807 153.107 262.005 153.868 262.082 153.194C262.159 152.521 261.535 151.656 260.894 151.804C260.254 151.952 258.967 151.475 258.907 150.709C258.847 149.943 258.359 148.152 257.549 147.89C254.719 146.959 253.246 149.691 253.635 151.826C253.762 152.462 254.033 153.06 254.428 153.575C254.823 154.089 255.331 154.506 255.912 154.793C255.912 154.793 254.27 155.603 251.505 152.22C250.912 151.488 250.495 150.631 250.285 149.713C249.48 146.351 251.122 142.24 252.688 139.787C254.675 136.656 255.458 136.503 255.458 136.503C256.381 134.388 257.766 132.507 259.509 130.995C262.504 128.318 265.153 130.574 265.153 130.574C268.038 128.559 271.476 129.37 272.462 131.242C273.447 133.114 273.069 136.054 273.223 137.017C273.376 137.981 274.126 139.607 275.96 139.607C277.794 139.607 278.495 140.302 278.61 141.983C278.652 142.744 278.403 143.494 277.914 144.079Z" fill="#FFEACC"/>
<path d="M277.914 144.079C277.454 144.627 276.895 144.9 276.649 144.627C276.167 144.112 277.552 143.302 276.649 142.371C275.746 141.44 273.452 141.993 273.452 141.993C270.118 133.278 265.065 133.552 262.065 135.052C259.065 136.552 258.781 139.174 258.737 140.745C258.693 142.316 258.682 142.853 260.927 144.112C263.171 145.371 261.08 147.342 260.718 148.902C260.357 150.462 262.01 149.997 262.908 151.552C263.806 153.107 262.005 153.867 262.082 153.194C262.158 152.521 261.534 151.656 260.894 151.804C260.253 151.951 258.967 151.475 258.906 150.709C258.846 149.942 258.474 148.448 257.538 148.065C254.653 146.877 253.383 149.707 253.771 151.826C253.915 152.473 254.212 153.077 254.637 153.586C255.062 154.096 255.602 154.496 256.213 154.754C256.213 154.754 254.779 156.287 251.505 152.22C250.915 151.486 250.498 150.629 250.284 149.712C253.109 147.134 252.967 144.534 254.855 143.97C257.166 143.28 256.864 138.687 259.525 134.198C262.186 129.709 266.68 132.889 267.791 133.951C267.791 133.951 271.005 132.309 271.963 136.503C272.921 140.696 275.078 141.336 276.534 141.194C277.399 141.107 278.116 142.607 277.914 144.079Z" fill="#EDD6B7"/>
<path d="M257.521 145.065C258.578 145.229 259.104 146.8 258.529 149.176" stroke="#BF8228" stroke-width="0.75" stroke-linecap="round" stroke-linejoin="round"/>
<path d="M258.999 137.893C260.515 133.574 261.222 133.246 261.676 132.966C262.503 132.468 264.353 133.016 264.353 133.016" stroke="#BF8228" stroke-width="0.75" stroke-linecap="round" stroke-linejoin="round"/>
<path d="M265.152 130.574C266.08 131.369 266.956 132.223 267.775 133.13" stroke="#BF8228" stroke-width="0.75" stroke-linecap="round" stroke-linejoin="round"/>
<path d="M253.672 149.904C252.156 147.671 250.64 142.738 253.371 138.737" stroke="#BF8228" stroke-width="0.75" stroke-linecap="round" stroke-linejoin="round"/>
<path d="M255.183 148.021C254.088 145.76 253.234 141.413 255.457 136.525" stroke="#BF8228" stroke-width="0.75" stroke-linecap="round" stroke-linejoin="round"/>
<path d="M269.094 141.194C268.41 143.745 269.417 144.78 270.616 145.092C271.815 145.404 272.773 146.017 272.636 147.079" stroke="#914839" stroke-width="0.75" stroke-linecap="round" stroke-linejoin="round"/>
<path d="M262.268 142.24C262.815 142.787 266.1 140.641 265.257 139.377C264.414 138.112 261.469 141.473 262.268 142.24Z" fill="#FFEACC"/>
<path d="M268.251 138.605C268.251 139.891 271.536 139.196 271.475 138.775C271.377 138.014 268.246 137.428 268.251 138.605Z" fill="#FFEACC"/>
<path d="M268.158 149.001C268.651 149.478 269.268 149.808 269.938 149.953C270.608 150.098 271.306 150.053 271.952 149.822" stroke="#914839" stroke-width="0.75" stroke-linecap="round" stroke-linejoin="round"/>
<path d="M259.508 151.547V154.722C258.445 155.079 257.296 155.094 256.224 154.766H256.169C255.423 154.507 254.773 154.028 254.305 153.391C253.838 152.755 253.575 151.991 253.552 151.202C253.516 150.689 253.6 150.175 253.796 149.7C253.993 149.225 254.297 148.802 254.685 148.464C254.944 148.244 255.238 148.07 255.556 147.95C256.214 147.777 256.911 147.841 257.527 148.131C258.457 148.514 258.83 149.981 258.895 150.775C258.93 150.942 259.004 151.099 259.11 151.234C259.216 151.368 259.353 151.475 259.508 151.547Z" fill="#B25E47"/>
<path d="M254.839 150.829C255.162 150.003 257.308 149.083 258.321 151.339" stroke="#914839" stroke-width="0.75" stroke-linecap="round" stroke-linejoin="round"/>
<path d="M258.156 150.999C255.808 149.636 254.839 153.129 257.882 152.915" stroke="#914839" stroke-width="0.75" stroke-linecap="round" stroke-linejoin="round"/>
<path d="M259.509 154.711C258.304 155.13 256.987 155.091 255.809 154.601" stroke="#914839" stroke-width="0.75" stroke-linecap="round" stroke-linejoin="round"/>
<path d="M375.551 168.704C375.151 171.25 373.399 173.495 371.062 175.077C366.589 178.126 359.949 178.783 356.483 174.672C352.153 169.542 341.275 145.411 337.481 136.859C336.655 134.982 336.162 133.849 336.162 133.849C336.48 122.544 344.861 117.65 353.259 118.038C361.657 118.427 367.383 124.4 367.826 133.4C368.27 142.4 364.646 155.642 367.142 158.385C369.638 161.128 376.722 161.27 375.551 168.704Z" fill="#BF8228"/>
<path d="M372.529 171.316C372.254 172.643 371.758 173.914 371.062 175.077C366.589 178.126 359.949 178.783 356.483 174.671C352.153 169.542 341.275 145.411 337.481 136.859C340.12 124.569 346.591 120.748 353.812 121.942C361.131 123.157 364.268 133.027 361.941 137.341C359.615 141.655 353.686 150.151 356.708 155.505C359.73 160.859 359.204 161.872 362.73 162.715C366.255 163.558 373.613 165.31 372.529 171.316Z" fill="#BF8228"/>
<path d="M338.938 131.899C340.367 124.098 347.698 122.675 350.917 123.436" stroke="#7F542D" stroke-width="0.75" stroke-linecap="round" stroke-linejoin="round"/>
<path d="M344.308 130.903C348.403 127.449 354.342 128.615 354.304 131.582C354.266 134.549 354.041 136.766 355.749 137.971C357.457 139.175 360.003 141.732 358.558 145.328" stroke="#7F542D" stroke-width="0.75" stroke-linecap="round" stroke-linejoin="round"/>
<path d="M362.101 149.264C361.006 155.708 360.327 158.866 363.234 159.753C366.141 160.64 367.11 161.609 366.481 163C365.851 164.39 365.046 164.976 366.946 165.693C368.846 166.41 369.01 168.814 369.01 168.814" stroke="#7F542D" stroke-width="0.75" stroke-linecap="round" stroke-linejoin="round"/>
<path d="M342.134 209.232C338.768 225.967 332.943 243.409 327.102 251.664C325.421 254.035 323.751 255.65 322.131 256.274C308.007 261.748 302.248 255.146 303.863 235.241C304.793 223.744 310.919 202.679 319.191 187.367C325.12 176.418 332.144 168.425 339.167 169.027C346.678 169.684 346.213 188.943 342.134 209.232Z" fill="#A7CAF0"/>
<path d="M342.135 209.232C340.496 208.674 338.999 207.766 337.746 206.571C336.494 205.376 335.516 203.923 334.881 202.312C334.069 200.199 333.03 198.18 331.783 196.29C328.744 191.736 324.518 188.314 319.191 187.34C325.12 176.391 332.144 168.398 339.168 169C346.679 169.685 346.213 188.944 342.135 209.232Z" fill="#A7CAF0"/>
<path d="M331.794 197.85C324.979 198.639 323.517 200.741 324.327 205.487C325.137 210.234 315.327 205.088 312.683 210.693C310.039 216.299 323.03 237.234 323.265 237.354L327.234 239.38L334.756 230.62L339.76 218.336L339.842 207.097L331.794 197.85Z" fill="#83ADDF"/>
<path d="M391.963 201.682C391.853 204.135 390.983 212.598 389.888 222.715C387.999 240.086 385.432 262.323 384.846 267.409L382.837 266.888C374.686 264.786 365.866 262.903 356.472 261.206C347.078 259.509 337.186 258.014 326.839 256.701C326.921 255.228 327.009 253.52 327.102 251.664C327.572 242.062 328.12 228.485 327.682 222.951C326.976 214.055 326.554 207.699 329.516 202.049C330.453 200.214 331.215 198.295 331.793 196.317C333.321 191.297 334.136 185.571 334.038 181.816C333.917 177.387 331.377 170.565 339.184 169.027C341.211 168.687 343.274 168.615 345.321 168.814C360.397 169.909 363.479 168.814 363.479 168.814C373.213 167.078 381.288 169.219 383.543 170.007L383.751 170.084C387.036 171.299 390.124 175.843 391.416 185.456C392.073 190.838 392.256 196.268 391.963 201.682Z" fill="#A7CAF0"/>
<path d="M371.789 210.053C361.01 204.995 353.565 216.623 354.123 225.831C354.841 237.54 341.165 223.23 335.362 235.942C330.753 246.042 353.587 255.103 365.598 245.248C377.609 235.394 386.341 216.874 371.789 210.053Z" fill="#83ADDF"/>
<path d="M391.438 185.456C384.081 184.268 374.796 187.767 369.168 192.847C366.814 194.982 365.101 197.396 364.438 199.86C362.194 208.258 350.385 212.276 342.135 209.232C340.497 208.674 338.999 207.766 337.747 206.571C336.494 205.376 335.517 203.923 334.882 202.312C334.069 200.199 333.031 198.18 331.783 196.29C333.311 191.27 334.126 185.544 334.028 181.789C333.907 177.36 331.367 170.539 339.174 169C341.201 168.66 343.264 168.588 345.311 168.787C360.387 169.882 363.469 168.787 363.469 168.787C373.203 167.051 381.278 169.192 383.533 169.98L383.741 170.057C387.037 171.299 390.13 175.843 391.438 185.456Z" fill="#A7CAF0"/>
<path d="M326.839 256.7C326.921 255.228 327.009 253.52 327.102 251.664C327.572 242.062 328.12 228.485 327.682 222.95C326.976 214.054 326.554 207.699 329.516 202.049C330.453 200.214 331.215 198.295 331.793 196.317C332.817 192.904 333.512 189.401 333.868 185.855" stroke="#83ADDF" stroke-width="0.75" stroke-linecap="round" stroke-linejoin="round"/>
<path d="M360.803 168.814C361.038 170.544 350.314 182.878 345.83 181.745C341.347 180.611 343.641 168.973 343.641 168.973C343.641 168.973 343.367 168.184 342.945 167.024C341.911 164.144 340.017 158.933 339.327 157.509C338.535 155.899 337.903 154.216 337.438 152.484C334.022 139.471 344.982 134.451 350.905 147.639C356.894 160.936 360.562 167.079 360.803 168.814Z" fill="#FEBD9D"/>
<path d="M342.956 167.024C341.921 164.144 340.027 158.932 339.337 157.509C338.545 155.899 337.913 154.216 337.448 152.484C341.352 149.943 346.815 152.221 348.945 156.682C351.003 161.018 348.293 166.12 342.956 167.024Z" fill="#F4A789"/>
<path d="M343.263 167.867C344.227 169.832 344.073 170.215 344.073 171.288C344.073 172.361 344.32 177.781 343.833 179.867C343.833 179.867 341.44 177.316 340.148 177.737C338.856 178.159 336.798 179.867 336.798 179.867L340.471 170.56C341.243 168.557 342.3 167.829 343.263 167.867Z" fill="#683F1D"/>
<path d="M363.484 168.814C363.528 167.719 360.473 165.666 360.019 166.69C357.523 172.339 351.046 179.609 348.802 181.17C349.776 181.41 350.702 181.815 351.539 182.369C352.793 183.272 355.114 187.356 355.114 187.356C355.114 187.356 363.03 179.867 363.484 168.814Z" fill="#683F1D"/>
<path d="M343.257 186.639C343.257 186.994 343.362 187.341 343.559 187.636C343.757 187.932 344.037 188.162 344.365 188.298C344.693 188.433 345.054 188.469 345.403 188.4C345.751 188.33 346.071 188.159 346.322 187.908C346.573 187.657 346.744 187.337 346.814 186.989C346.883 186.641 346.847 186.28 346.711 185.951C346.576 185.623 346.345 185.343 346.05 185.146C345.755 184.948 345.408 184.843 345.052 184.843C344.576 184.843 344.12 185.032 343.783 185.369C343.446 185.706 343.257 186.162 343.257 186.639Z" fill="white"/>
<path d="M342.337 193.257C342.336 193.614 342.441 193.963 342.638 194.26C342.835 194.556 343.116 194.788 343.445 194.925C343.774 195.062 344.136 195.099 344.486 195.03C344.836 194.961 345.157 194.79 345.41 194.538C345.662 194.287 345.834 193.966 345.904 193.616C345.974 193.267 345.939 192.904 345.803 192.575C345.666 192.245 345.436 191.964 345.139 191.766C344.843 191.568 344.494 191.462 344.138 191.462C343.902 191.461 343.668 191.507 343.449 191.597C343.231 191.687 343.032 191.819 342.865 191.986C342.697 192.153 342.565 192.351 342.474 192.569C342.384 192.787 342.337 193.021 342.337 193.257Z" fill="white"/>
<path d="M382.837 266.889C374.685 264.787 365.866 262.904 356.472 261.206C356.688 260.556 357.004 259.943 357.408 259.389C362.756 251.67 366.78 243.124 379.388 246.863C384.512 248.385 381.895 256.991 379.388 260.002C376.776 263.101 383.959 263.183 382.837 266.889Z" fill="#83ADDF"/>
<path d="M311.407 257.845C299.91 256.017 296.56 238.794 294.797 229.975C293.489 223.405 290.856 206.703 289.596 198.568C289.159 195.765 288.885 193.98 288.885 193.98C288.885 193.98 294.699 195.015 300.611 189.518C300.972 190.422 301.558 191.675 302.303 193.203C307.695 204.316 321.742 229.81 324.326 238.482C327.261 248.347 322.761 259.657 311.407 257.845Z" fill="#A7CAF0"/>
<path d="M294.797 229.974C294.19 226.914 293.292 221.647 292.377 216.074C291.332 209.691 290.27 202.908 289.596 198.556C289.159 195.753 288.885 193.969 288.885 193.969" stroke="#83ADDF" stroke-width="0.75" stroke-linecap="round" stroke-linejoin="round"/>
<path d="M300.611 189.518C299.248 186.781 295.87 181.575 292.662 179.172C290.943 177.89 288.83 177.901 288.102 178.416C288.102 178.416 282.244 177.546 277.794 178.63C273.343 179.713 272.637 182.161 274.482 182.374C276.327 182.588 279.474 181.509 281.757 181.454C281.757 181.454 279.452 182.002 279.502 184.126C278.954 183.803 277.668 184.646 277.941 186.381C277.941 186.381 277.022 185.418 276.655 187.203C276.288 188.987 277.843 191.615 279.628 191.713C281.412 191.812 281.215 190.526 281.215 190.526C281.215 190.526 282.671 193.197 288.879 193.98C288.879 193.98 289.974 195.88 289.974 195.781C289.974 195.682 300.797 196.788 300.611 189.518Z" fill="#FEBD9D"/>
<path d="M292.662 179.172C290.943 177.89 288.83 177.901 288.102 178.416C288.102 178.416 282.244 177.546 277.794 178.63C273.343 179.713 272.637 182.161 274.482 182.374C276.327 182.588 279.474 181.509 281.757 181.454C281.757 181.454 279.452 182.002 279.502 184.126C278.954 183.803 277.668 184.646 277.941 186.381C277.941 186.381 277.022 185.418 276.655 187.203C276.288 188.987 277.843 191.615 279.628 191.713C281.412 191.812 281.215 190.526 281.215 190.526" stroke="#F4A789" stroke-width="0.75" stroke-linecap="round" stroke-linejoin="round"/>
<path d="M281.78 181.454C282.872 181.336 283.973 181.336 285.065 181.454" stroke="#F4A789" stroke-width="0.75" stroke-linecap="round" stroke-linejoin="round"/>
<path d="M277.947 186.381C278.725 188.391 279.754 189.765 281.232 190.526C282.71 191.287 284.648 189.069 284.549 188.451C285.294 187.936 285.776 186.776 284.281 185.867" stroke="#F4A789" stroke-width="0.75" stroke-linecap="round" stroke-linejoin="round"/>
<path d="M279.502 184.126C279.913 186.277 281.314 188.982 284.533 188.451" stroke="#F4A789" stroke-width="0.75" stroke-linecap="round" stroke-linejoin="round"/>
<path d="M293.374 188.774C289.706 187.131 289.066 184.881 288.885 183.179C288.885 183.179 283.739 186.934 282.551 185.976C281.073 184.777 286.931 179.1 288.102 178.416" stroke="#F4A789" stroke-width="0.75" stroke-linecap="round" stroke-linejoin="round"/>
<path d="M302.303 193.203C299.067 196.197 295.098 198.737 289.596 198.568C289.159 195.765 288.885 193.98 288.885 193.98C288.885 193.98 294.699 195.015 300.611 189.518C300.972 190.416 301.558 191.675 302.303 193.203Z" fill="#683F1D"/>
<path d="M299.067 192.464C299.067 192.664 299.127 192.86 299.238 193.027C299.35 193.193 299.508 193.323 299.694 193.4C299.879 193.476 300.083 193.496 300.28 193.456C300.476 193.417 300.657 193.32 300.798 193.178C300.94 193.036 301.036 192.855 301.074 192.658C301.113 192.461 301.092 192.257 301.014 192.072C300.937 191.887 300.806 191.729 300.639 191.619C300.472 191.508 300.275 191.45 300.075 191.451C299.942 191.451 299.811 191.477 299.688 191.528C299.565 191.579 299.454 191.654 299.36 191.748C299.267 191.842 299.193 191.954 299.142 192.076C299.092 192.199 299.067 192.331 299.067 192.464Z" fill="white"/>
<path d="M389.888 222.716C386.894 233.079 383.428 243.234 381.545 248.779C376.903 262.498 359.729 270.677 357.759 258.119C355.416 243.185 365.423 216.239 369.009 193.991C369.069 193.635 369.118 193.252 369.167 192.847C370.142 184.991 370.027 168.842 380.368 169.427C381.449 169.487 382.517 169.682 383.549 170.008L383.757 170.084C389.702 172.132 392.921 178.608 394.405 186.239C394.913 188.925 395.232 191.644 395.357 194.374C395.675 200.632 393.047 211.794 389.888 222.716Z" fill="#A7CAF0"/>
<path d="M394.405 186.239C393.445 185.879 392.451 185.616 391.438 185.456C384.08 184.268 374.796 187.767 369.168 192.847C370.142 184.991 370.027 168.841 380.369 169.427C381.449 169.487 382.518 169.681 383.549 170.007L383.757 170.084C389.703 172.132 392.911 178.608 394.405 186.239Z" fill="#A7CAF0"/>
<path d="M358.767 240.233C360.956 227.905 365.281 213.321 367.953 199.859" stroke="#83ADDF" stroke-width="0.75" stroke-linecap="round" stroke-linejoin="round"/>
<path d="M387.545 230.522C385.229 237.951 382.946 244.646 381.523 248.779C380.116 252.841 377.721 256.489 374.554 259.394" stroke="#83ADDF" stroke-width="0.75" stroke-linecap="round" stroke-linejoin="round"/>
<path d="M367.947 199.86C369.042 195.546 371.484 192.743 372.995 192.519" stroke="#83ADDF" stroke-width="0.75" stroke-linecap="round" stroke-linejoin="round"/>
<path d="M266.132 195.474C268.677 193.695 273.249 194.418 278.723 200.401C282.101 204.163 284.845 208.449 286.847 213.091C290.741 210.276 295.241 208.416 299.986 207.66C307.727 206.505 317.334 209.965 317.334 209.965L318.829 214.153L287.072 218.336L266.132 195.474Z" fill="#F9F9F9" stroke="#DDDDDD" stroke-linecap="round" stroke-linejoin="round"/>
<path d="M288.884 214.553L320.74 212.007L333.369 246.567L302.866 249.031L288.884 214.553Z" fill="#F9F9F9" stroke="#DDDDDD" stroke-linecap="round" stroke-linejoin="round"/>
<path d="M264.736 193.257L285.238 214.175L299.149 246.923L279.293 228.146L264.736 193.257Z" fill="#F9F9F9" stroke="#DDDDDD" stroke-linecap="round" stroke-linejoin="round"/>
<path d="M285.238 214.175L288.884 214.553L302.866 249.031L299.149 246.923L285.238 214.175Z" fill="#F9F9F9" stroke="#DDDDDD" stroke-linecap="round" stroke-linejoin="round"/>
<path d="M278.927 203.801C281.921 206.828 284.949 212.051 284.949 212.051" stroke="#DDDDDD" stroke-linecap="round" stroke-linejoin="round"/>
<path d="M288.895 213.08C291.539 211.555 294.403 210.447 297.385 209.795" stroke="#DDDDDD" stroke-linecap="round" stroke-linejoin="round"/>
<path d="M289.268 213.682C292.005 212.483 297.578 211.432 297.578 211.432" stroke="#DDDDDD" stroke-linecap="round" stroke-linejoin="round"/>
<path d="M283.486 213.173C284.302 211.564 288.912 210.436 289.815 215.363C288.783 215.944 287.59 216.174 286.415 216.02C285.435 215.834 283.486 213.173 283.486 213.173Z" fill="#F9F9F9" stroke="#DDDDDD" stroke-linecap="round" stroke-linejoin="round"/>
<path d="M319.272 231.305C316.323 229.664 313.617 227.619 311.236 225.228C308.991 223.038 303.15 220.131 302.602 220.471C302.055 220.81 301.628 222.31 304.71 225.025C305.654 225.782 306.445 226.711 307.042 227.763C305.941 228.163 304.756 228.277 303.599 228.091C301.628 227.79 293.312 227.242 292.31 227.138C291.309 227.034 291.106 228.392 292.606 228.994C290.197 228.633 289.535 230.062 291.708 231.387C291.708 231.387 289.825 231.89 292.026 233.527C293.895 234.817 295.861 235.961 297.905 236.949C297.905 236.949 293.427 235.651 292.847 235.733C292.267 235.815 291.944 236.741 293.482 237.562C295.02 238.383 305.783 242.544 307.644 243.091C309.927 243.753 314.526 244.542 314.526 244.542C314.526 244.542 320.066 236.549 319.272 231.305Z" fill="#FEBD9D"/>
<path d="M363.988 264.321C353.548 265.033 327.38 252.644 317.154 247.767C315.063 246.776 313.64 246.124 313.152 245.905C313.152 245.905 313.36 233.462 320.001 230.971C320.863 231.45 321.783 231.818 322.738 232.066C323.978 232.426 325.248 232.674 326.532 232.805C330.911 233.292 344.565 235.318 351.999 235.92C359.433 236.522 368.833 241.608 372.194 247.652C374.499 251.796 374.296 263.631 363.988 264.321Z" fill="#A7CAF0"/>
<path d="M363.988 264.321C353.548 265.032 327.38 252.644 317.154 247.766C315.063 246.775 313.64 246.124 313.152 245.905" stroke="#83ADDF" stroke-width="0.75" stroke-linecap="round" stroke-linejoin="round"/>
<path d="M320.001 230.981C320.863 231.461 321.783 231.829 322.738 232.076C323.978 232.437 325.248 232.684 326.532 232.815C330.912 233.303 344.565 235.328 351.999 235.93C356.926 236.33 362.669 238.668 366.988 241.952" stroke="#83ADDF" stroke-width="0.75" stroke-linecap="round" stroke-linejoin="round"/>
<path d="M308.11 222.945C305.673 221.462 302.964 220.246 302.602 220.471C302.055 220.81 301.628 222.31 304.71 225.026C305.654 225.782 306.445 226.711 307.042 227.763C305.941 228.164 304.756 228.277 303.599 228.091C301.628 227.79 293.312 227.243 292.31 227.139C291.309 227.035 291.106 228.392 292.606 228.995C290.197 228.633 289.535 230.062 291.708 231.387C291.708 231.387 289.825 231.891 292.026 233.527C293.895 234.817 295.861 235.961 297.905 236.949C297.905 236.949 293.427 235.651 292.847 235.734C292.267 235.816 291.944 236.741 293.482 237.562C293.936 237.803 295.217 238.345 296.838 239.002" stroke="#F4A789" stroke-width="0.75" stroke-linecap="round" stroke-linejoin="round"/>
<path d="M322.76 232.104C319.557 234.523 317.324 241.596 317.154 247.777C315.063 246.786 313.64 246.135 313.152 245.916C313.152 245.916 313.36 233.472 320.001 230.981C320.869 231.472 321.796 231.849 322.76 232.104Z" fill="#683F1D"/>
<path d="M314.279 243.814C314.278 244.04 314.344 244.262 314.469 244.451C314.595 244.64 314.773 244.787 314.982 244.875C315.191 244.962 315.421 244.986 315.643 244.942C315.866 244.898 316.07 244.79 316.231 244.63C316.391 244.47 316.501 244.266 316.545 244.044C316.59 243.822 316.567 243.592 316.481 243.383C316.395 243.173 316.248 242.994 316.06 242.868C315.871 242.742 315.65 242.675 315.423 242.675C315.121 242.675 314.831 242.795 314.616 243.008C314.402 243.222 314.281 243.511 314.279 243.814Z" fill="white"/>
<path d="M297.906 236.949C299.324 237.387 300.386 237.808 300.386 237.808" stroke="#F4A789" stroke-width="0.75" stroke-linecap="round" stroke-linejoin="round"/>
<path d="M291.708 231.365L301.173 234.66" stroke="#F4A789" stroke-width="0.75" stroke-linecap="round" stroke-linejoin="round"/>
<path d="M292.607 228.972L301.487 231.365" stroke="#F4A789" stroke-width="0.75" stroke-linecap="round" stroke-linejoin="round"/>
<path d="M351.506 150.452C349.163 156.168 343.147 166.027 335.937 161.199C334.432 160.172 333.132 158.872 332.105 157.367C330.758 155.405 329.775 153.217 329.204 150.907C328.368 147.648 328.246 144.248 328.848 140.938C329.057 139.798 329.378 138.681 329.806 137.604C332.767 130.317 342.353 130.898 345.884 134.434C345.983 134.533 346.092 134.642 346.202 134.763C347.977 136.878 349.372 139.286 350.324 141.879C350.466 142.244 350.598 142.609 350.718 142.974C351.753 145.892 352.18 148.81 351.506 150.452Z" fill="#FEBD9D"/>
<path d="M330.972 149.035C330.972 149.193 331.019 149.348 331.107 149.479C331.195 149.611 331.32 149.713 331.466 149.774C331.613 149.834 331.774 149.85 331.929 149.818C332.084 149.787 332.227 149.71 332.338 149.598C332.45 149.486 332.525 149.343 332.556 149.187C332.586 149.032 332.569 148.871 332.508 148.725C332.446 148.579 332.343 148.455 332.211 148.368C332.079 148.28 331.924 148.234 331.766 148.235C331.661 148.235 331.557 148.256 331.46 148.296C331.364 148.337 331.276 148.396 331.202 148.47C331.128 148.544 331.07 148.632 331.031 148.729C330.991 148.826 330.971 148.93 330.972 149.035Z" fill="#683F1D"/>
<path d="M335.362 147.638C335.362 147.796 335.409 147.951 335.497 148.082C335.585 148.214 335.71 148.316 335.856 148.377C336.002 148.437 336.162 148.453 336.318 148.422C336.473 148.391 336.615 148.315 336.727 148.204C336.839 148.092 336.915 147.949 336.946 147.794C336.976 147.639 336.961 147.479 336.9 147.333C336.84 147.186 336.737 147.062 336.606 146.974C336.474 146.886 336.32 146.839 336.162 146.839C336.056 146.838 335.952 146.859 335.855 146.898C335.758 146.938 335.669 146.997 335.595 147.072C335.52 147.146 335.462 147.234 335.422 147.332C335.382 147.429 335.362 147.533 335.362 147.638Z" fill="#683F1D"/>
<path d="M349.776 150.152C353.127 151.044 356.986 146.867 355.037 143.407C353.088 139.947 349.267 142.137 348.802 144.595L349.776 150.152Z" fill="#FEBD9D"/>
<path d="M349.777 150.151C350.378 150.302 351.006 150.302 351.606 150.151" stroke="#F4A789" stroke-width="0.75" stroke-linecap="round" stroke-linejoin="round"/>
<path d="M350.324 146.582C350.631 143.773 353.165 143.637 353.817 144.901" stroke="#F4A789" stroke-width="0.75" stroke-linecap="round" stroke-linejoin="round"/>
<path d="M350.405 146.073C352.562 143.73 355.272 147.65 351.013 147.994" stroke="#F4A789" stroke-width="0.75" stroke-linecap="round" stroke-linejoin="round"/>
<path d="M350.718 142.936C350.703 143.038 350.681 143.138 350.652 143.237C350.165 144.962 348.348 144.102 347.609 142.465C346.755 140.527 341.756 133.553 337.251 138.332C333.912 141.868 331.163 142.345 328.848 140.938C329.044 139.858 329.345 138.801 329.745 137.779C329.762 137.72 329.782 137.661 329.806 137.604C332.767 130.317 342.353 130.898 345.884 134.434C345.983 134.533 346.092 134.642 346.202 134.763C347.977 136.878 349.372 139.286 350.324 141.879C350.466 142.223 350.598 142.575 350.718 142.936Z" fill="#BF8228"/>
<path d="M350.652 143.237C350.165 144.962 348.348 144.102 347.609 142.465C346.755 140.528 341.756 133.553 337.251 138.332C333.912 141.869 331.163 142.345 328.848 140.938C329.044 139.859 329.345 138.801 329.745 137.779C332.587 138.962 335.22 137.281 336.955 135.858C339.145 134.101 341.806 134.243 344.548 136.159C346.968 137.861 349.021 143.533 350.652 143.237Z" fill="#BF8228"/>
<path d="M331.711 141.622C331.267 136.695 333.32 133.52 334.995 132.568" stroke="#7F542D" stroke-width="0.75" stroke-linecap="round" stroke-linejoin="round"/>
<path d="M333.024 141.375C333.232 139.372 336.824 132.069 340.886 132.069" stroke="#7F542D" stroke-width="0.75" stroke-linecap="round" stroke-linejoin="round"/>
<path d="M337.618 137.992C338.894 134.894 340.465 132.912 342.337 132.414" stroke="#7F542D" stroke-width="0.75" stroke-linecap="round" stroke-linejoin="round"/>
<path d="M345.217 133.854C345.518 136.389 345.277 138.064 344.538 138.475" stroke="#7F542D" stroke-width="0.75" stroke-linecap="round" stroke-linejoin="round"/>
<path d="M346.76 135.42C347.597 138.677 346.896 140.144 346.409 140.522" stroke="#7F542D" stroke-width="0.75" stroke-linecap="round" stroke-linejoin="round"/>
<path d="M332.144 146.276C333.638 146.878 334.333 147.918 333.961 148.87C333.501 150.053 332.746 152.155 334.191 153.075" stroke="#F4A789" stroke-width="0.75" stroke-linecap="round" stroke-linejoin="round"/>
<path d="M333.978 143.511C334.131 144.71 338.407 143.511 338.571 142.805C338.79 141.847 333.71 141.398 333.978 143.511Z" fill="#BF8228"/>
<path d="M331.596 144.589C332.143 145.569 328.311 146.96 327.764 146.5C327.129 145.898 330.698 142.859 331.596 144.589Z" fill="#BF8228"/>
<path d="M336.479 154.52C337.178 154.24 337.814 153.821 338.348 153.288C338.881 152.756 339.301 152.121 339.583 151.421C339.583 151.421 341.006 153.907 339.325 155.193C338.039 156.173 336.479 154.52 336.479 154.52Z" fill="white" stroke="#F4A789" stroke-width="0.75" stroke-linecap="round" stroke-linejoin="round"/>
<path d="M343.448 151.487C345.492 151.487 347.149 149.83 347.149 147.787C347.149 145.743 345.492 144.086 343.448 144.086C341.404 144.086 339.747 145.743 339.747 147.787C339.747 149.83 341.404 151.487 343.448 151.487Z" fill="#F4A789"/>
<path d="M333.392 154.569C333.395 155.101 333.281 155.627 333.059 156.111C332.836 156.594 332.511 157.023 332.106 157.367C330.759 155.405 329.776 153.217 329.204 150.907C329.365 150.883 329.528 150.87 329.691 150.869C330.673 150.869 331.614 151.259 332.308 151.953C333.002 152.647 333.392 153.588 333.392 154.569Z" fill="#F4A789"/>
</svg>
