<svg width="534" height="302" viewBox="0 0 534 302" fill="none" xmlns="http://www.w3.org/2000/svg">
<path d="M452.587 13.7061H91.8779V278.741H452.587V13.7061Z" stroke="#DDDDDD" stroke-linecap="round" stroke-linejoin="round"/>
<path d="M463.826 278.741H80.6396V291.448H463.826V278.741Z" stroke="#DDDDDD" stroke-width="2" stroke-miterlimit="10"/>
<path d="M367.858 154.523H343.19V213.463H367.858V154.523Z" fill="#DDDDDD"/>
<path d="M432.647 90.223H407.979V213.455H432.647V90.223Z" fill="#DDDDDD"/>
<path d="M443.328 213.455H313.931V47.8885" stroke="#DDDDDD" stroke-width="2" stroke-miterlimit="10"/>
<path d="M400.256 138.835H375.589V213.455H400.256V138.835Z" stroke="#DDDDDD" stroke-linecap="round" stroke-linejoin="round"/>
<path d="M151.481 72.9098C151.323 74.1518 151.202 75.4164 151.127 76.6735M177.481 76.6735C177.405 75.4014 177.285 74.1368 177.119 72.9098L177.481 76.6735Z" stroke="#DDDDDD" stroke-width="2" stroke-linecap="round" stroke-linejoin="round"/>
<path d="M196.856 70.1251C190.355 71.5346 183.758 72.4606 177.119 72.8952C175.614 60.9792 170.39 50.7268 164.323 50.7268C158.255 50.7268 153.031 60.9792 151.526 72.8952C144.89 72.46 138.295 71.5341 131.796 70.1251L130.803 155.306C138.33 157.512 144.834 160.086 155.643 161.034V161.162C158.805 161.343 161.665 161.418 164.36 161.411C167.055 161.403 169.915 161.343 173.085 161.162V161.034C183.879 160.086 190.398 157.512 197.925 155.306L196.856 70.1251ZM164.3 55.5293C168.538 55.5293 172.091 63.4031 172.58 71.8715H156.005C156.509 63.4031 160.07 55.5293 164.3 55.5293V55.5293Z" stroke="#DDDDDD" stroke-width="2" stroke-linecap="round" stroke-linejoin="round"/>
<path d="M463.826 1H80.6396V13.7064H463.826V1Z" stroke="#DDDDDD" stroke-width="2" stroke-miterlimit="10"/>
<path d="M338.583 141.38L357.01 120.469L372.75 117.382L386.021 93.4826L405.826 85.6917L425.879 66.9332" stroke="#DDDDDD" stroke-linecap="round" stroke-linejoin="round"/>
<path d="M431.804 62.1156L416.711 66.331L426.015 76.6737L431.804 62.1156Z" fill="#DDDDDD"/>
<path d="M235.411 83.0269L228.524 73.5423C228.385 73.3465 228.201 73.1869 227.987 73.0768C227.774 72.9666 227.537 72.9092 227.297 72.9092C227.057 72.9092 226.82 72.9666 226.606 73.0768C226.393 73.1869 226.209 73.3465 226.07 73.5423L219.182 83.0269C219.013 83.2521 218.911 83.5202 218.886 83.8007C218.862 84.0812 218.917 84.3628 219.045 84.6137C219.173 84.8646 219.368 85.0746 219.609 85.2199C219.851 85.3652 220.128 85.4399 220.409 85.4357H221.915C222.314 85.4357 222.697 85.5943 222.979 85.8766C223.261 86.159 223.42 86.5419 223.42 86.9412V95.4472C223.42 95.8465 223.579 96.2295 223.861 96.5118C224.143 96.7941 224.526 96.9527 224.926 96.9527H229.593C229.992 96.9527 230.375 96.7941 230.657 96.5118C230.939 96.2295 231.098 95.8465 231.098 95.4472V86.9563C231.098 86.557 231.257 86.174 231.539 85.8917C231.821 85.6094 232.204 85.4508 232.604 85.4508H234.109C234.399 85.4725 234.69 85.4096 234.945 85.2696C235.201 85.1296 235.41 84.9185 235.548 84.662C235.686 84.4055 235.746 84.1144 235.722 83.8242C235.698 83.534 235.59 83.257 235.411 83.0269Z" fill="#DDDDDD" stroke="#DDDDDD" stroke-miterlimit="10"/>
<path d="M245.07 134.598L233.922 123.472C233.512 123.062 233.189 122.574 232.973 122.036C232.756 121.499 232.651 120.923 232.663 120.343C232.675 119.764 232.804 119.193 233.042 118.665C233.281 118.137 233.623 117.662 234.05 117.269L255.127 97.9238C255.9 97.2179 256.903 96.8167 257.949 96.7947L267.517 96.599C268.095 96.5867 268.669 96.6914 269.206 96.9067C269.743 97.1221 270.23 97.4436 270.639 97.8521C271.048 98.2606 271.371 98.7476 271.587 99.2838C271.803 99.82 271.909 100.394 271.898 100.972L271.717 110.547C271.695 111.596 271.284 112.599 270.565 113.363L251.257 134.44C250.867 134.866 250.395 135.209 249.869 135.448C249.344 135.688 248.775 135.819 248.197 135.834C247.62 135.848 247.045 135.747 246.508 135.534C245.97 135.322 245.481 135.003 245.07 134.598V134.598Z" stroke="#DDDDDD" stroke-width="2" stroke-linecap="round" stroke-linejoin="round"/>
<path d="M254.607 120.551C254.029 121.186 253.27 121.628 252.432 121.816C251.595 121.927 250.745 121.75 250.023 121.312L248.187 123.148C248.161 123.175 248.131 123.196 248.097 123.21C248.064 123.224 248.027 123.231 247.991 123.231C247.955 123.231 247.92 123.224 247.888 123.21C247.856 123.195 247.827 123.175 247.803 123.148L245.364 120.71C245.338 120.686 245.317 120.657 245.303 120.624C245.289 120.592 245.281 120.557 245.281 120.521C245.281 120.486 245.289 120.451 245.303 120.419C245.317 120.386 245.338 120.357 245.364 120.333L247.005 118.685C246.568 118.21 246.184 117.766 245.861 117.352C245.823 117.294 245.807 117.225 245.815 117.157C245.821 117.085 245.854 117.018 245.906 116.968L248.059 115.192C248.088 115.166 248.123 115.147 248.161 115.136C248.199 115.126 248.238 115.124 248.277 115.132C248.356 115.147 248.427 115.193 248.473 115.26C248.585 115.448 248.706 115.629 248.834 115.809C248.962 115.99 249.143 116.231 249.368 116.509C249.567 116.776 249.786 117.028 250.023 117.262C250.215 117.477 250.448 117.651 250.708 117.774C250.888 117.869 251.093 117.906 251.295 117.879C251.436 117.858 251.573 117.818 251.702 117.759C251.79 117.715 251.871 117.659 251.943 117.593C252.018 117.517 252.079 117.428 252.123 117.33C252.192 117.183 252.242 117.029 252.274 116.871C252.313 116.619 252.295 116.362 252.221 116.118C252.13 115.774 251.986 115.446 251.792 115.147C251.547 114.751 251.367 114.319 251.258 113.867C251.142 113.389 251.091 112.898 251.107 112.407C251.124 111.86 251.252 111.322 251.484 110.826C251.737 110.264 252.091 109.754 252.53 109.321C253.094 108.719 253.84 108.32 254.653 108.184C255.479 108.084 256.316 108.236 257.054 108.62L258.943 106.724C258.969 106.697 258.999 106.676 259.033 106.662C259.066 106.648 259.102 106.641 259.139 106.641C259.175 106.638 259.212 106.643 259.245 106.656C259.279 106.669 259.31 106.69 259.335 106.716L261.774 109.147C261.826 109.202 261.855 109.275 261.855 109.351C261.855 109.426 261.826 109.499 261.774 109.554L260.14 111.195C260.554 111.654 260.953 112.113 261.33 112.587C261.368 112.645 261.387 112.714 261.382 112.783C261.38 112.819 261.37 112.853 261.353 112.884C261.337 112.916 261.313 112.943 261.284 112.964L259.131 114.74C259.101 114.764 259.066 114.781 259.028 114.79C258.99 114.799 258.951 114.8 258.913 114.793C258.876 114.791 258.84 114.78 258.808 114.76C258.777 114.74 258.75 114.713 258.733 114.68C258.265 113.937 257.723 113.243 257.114 112.61C256.927 112.398 256.699 112.227 256.444 112.106C256.259 112.01 256.049 111.973 255.842 112C255.702 112.021 255.566 112.059 255.435 112.113C255.344 112.157 255.26 112.215 255.187 112.286C255.115 112.361 255.056 112.447 255.014 112.542C254.945 112.688 254.897 112.843 254.871 113.001C254.835 113.254 254.856 113.511 254.931 113.754C255.022 114.098 255.167 114.426 255.36 114.725C255.591 115.126 255.766 115.557 255.88 116.005C256.002 116.484 256.055 116.978 256.038 117.473C256.015 118.017 255.885 118.552 255.654 119.046C255.398 119.606 255.043 120.116 254.607 120.551Z" fill="#DDDDDD"/>
<path d="M282.232 144.128V150.007C282.232 151.241 285.785 152.265 290.174 152.265C294.562 152.265 298.123 151.264 298.123 150.007V144.128H282.232Z" fill="#F9F9F9" stroke="#DDDDDD" stroke-linecap="round" stroke-linejoin="round"/>
<path d="M282.232 138.399V144.278C282.232 145.512 285.785 146.536 290.174 146.536C294.562 146.536 298.123 145.535 298.123 144.278V138.399H282.232Z" fill="#F9F9F9" stroke="#DDDDDD" stroke-linecap="round" stroke-linejoin="round"/>
<path d="M282.232 132.671V138.55C282.232 139.784 285.785 140.808 290.174 140.808C294.562 140.808 298.123 139.807 298.123 138.55V132.671H282.232Z" fill="#F9F9F9" stroke="#DDDDDD" stroke-linecap="round" stroke-linejoin="round"/>
<path d="M282.232 126.912V132.791C282.232 134.026 285.785 135.049 290.174 135.049C294.562 135.049 298.123 134.048 298.123 132.791V126.912H282.232Z" fill="#F9F9F9" stroke="#DDDDDD" stroke-linecap="round" stroke-linejoin="round"/>
<path d="M282.232 121.221V127.1C282.232 128.335 285.785 129.359 290.174 129.359C294.562 129.359 298.123 128.357 298.123 127.1V121.221H282.232Z" fill="#F9F9F9" stroke="#DDDDDD" stroke-linecap="round" stroke-linejoin="round"/>
<path d="M282.232 115.493V121.372C282.232 122.606 285.785 123.63 290.174 123.63C294.562 123.63 298.123 122.629 298.123 121.372V115.493H282.232Z" fill="#F9F9F9" stroke="#DDDDDD" stroke-linecap="round" stroke-linejoin="round"/>
<path d="M298.123 115.493C298.123 116.727 294.562 117.751 290.174 117.751C285.785 117.751 282.232 116.75 282.232 115.493C282.232 114.236 285.785 113.235 290.174 113.235C294.562 113.235 298.123 114.258 298.123 115.493Z" fill="#F9F9F9" stroke="#DDDDDD" stroke-linecap="round" stroke-linejoin="round"/>
<path d="M266.108 147.312V153.19C266.108 154.425 269.669 155.449 274.05 155.449C278.431 155.449 281.999 154.448 281.999 153.19V147.312H266.108Z" fill="#F9F9F9" stroke="#DDDDDD" stroke-linecap="round" stroke-linejoin="round"/>
<path d="M266.108 141.583V147.462C266.108 148.696 269.669 149.72 274.05 149.72C278.431 149.72 281.999 148.719 281.999 147.462V141.583H266.108Z" fill="#F9F9F9" stroke="#DDDDDD" stroke-linecap="round" stroke-linejoin="round"/>
<path d="M266.108 135.855V141.734C266.108 142.968 269.669 143.992 274.05 143.992C278.431 143.992 281.999 142.991 281.999 141.734V135.855H266.108Z" fill="#F9F9F9" stroke="#DDDDDD" stroke-linecap="round" stroke-linejoin="round"/>
<path d="M266.108 130.127V136.006C266.108 137.24 269.669 138.264 274.05 138.264C278.431 138.264 281.999 137.263 281.999 136.006V130.127H266.108Z" fill="#F9F9F9" stroke="#DDDDDD" stroke-linecap="round" stroke-linejoin="round"/>
<path d="M281.999 130.127C281.999 131.369 278.438 132.385 274.05 132.385C269.661 132.385 266.108 131.384 266.108 130.127C266.108 128.87 269.669 127.868 274.05 127.868C278.431 127.868 281.999 128.892 281.999 130.127Z" fill="#F9F9F9" stroke="#DDDDDD" stroke-linecap="round" stroke-linejoin="round"/>
<path d="M97.63 185.19C97.63 189.774 93.1136 196.662 85.7592 195.555C78.4049 194.449 69.4999 188.863 70.5914 175.811C70.9075 172.002 75.2584 148.185 75.9584 142.916C77.0499 134.778 97.4644 127.959 96.5687 148.832C96.5687 149.464 96.516 150.082 96.4934 150.699C96.3428 155.155 96.3353 159.243 96.4181 162.946C96.6816 173.921 97.63 181.516 97.63 185.19Z" fill="#B25E47"/>
<path d="M96.417 162.947C90.0488 162.901 85.1258 158.551 85.8108 151.332L96.4923 150.699C96.3417 155.156 96.3342 159.281 96.417 162.947Z" fill="#914839"/>
<path d="M137.074 247.021L140.717 301H106.294L112.534 240.367L104.254 218.251L89.4854 189.85C90.5273 186.545 91.3496 183.176 91.9468 179.763L98.5183 168.043C99.5933 167.543 100.694 167.101 101.815 166.718L101.958 166.673H102.094C106.091 165.318 112.911 163.662 119.798 164.904C125.557 165.95 130.337 168.163 134.183 174.238C138.497 181.065 141.606 192.77 143.533 213.177C145.565 234.352 140.213 243.761 137.074 247.021Z" fill="#A7CAF0"/>
<path d="M134.205 174.17C128.567 176.631 123.509 181.456 120.987 190.369C119.688 194.988 117.899 199.454 115.65 203.693C112.798 209.224 108.935 214.172 104.261 218.281L89.4922 189.88C90.5341 186.575 91.3564 183.206 91.9537 179.793C92.2247 179.198 96.5605 169.683 97.6143 167.802C99.5715 167.335 101.047 166.966 101.822 166.755L101.965 166.71H102.101C106.098 165.355 112.918 163.699 119.805 164.941C125.579 165.882 130.366 168.095 134.205 174.17Z" fill="#A7CAF0"/>
<path d="M122.93 301H66.6846V281.376H121.741L122.93 301Z" fill="#683F1D"/>
<path d="M118.413 281.376H69.0025C69.0025 281.376 59.4275 234.028 61.189 201.254C61.6858 191.92 63.1009 183.767 65.9237 178.227C66.7139 176.608 67.7528 175.122 69.0025 173.823C70.1918 173.613 71.5016 173.372 72.8942 173.071C75.1524 175.623 79.5485 179.175 85.7586 182.781C85.7586 182.781 87.9717 189.044 89.5224 189.819C91.073 190.595 91.9839 179.733 91.9839 179.733C92.2548 179.138 96.5907 169.623 97.6445 167.741C99.7296 167.244 101.273 166.861 101.995 166.65H102.131C102.131 166.65 102.884 169.232 104.111 173.01C106.068 179.032 109.207 188.103 112.391 194.592C113.782 197.507 114.874 200.557 115.65 203.692C117.908 212.537 118.119 223.196 116.012 237.107C115.861 238.108 115.733 239.124 115.628 240.118C113.678 258.688 118.413 281.376 118.413 281.376Z" fill="white"/>
<path d="M115.651 203.693C112.799 209.224 108.936 214.172 104.262 218.281C94.7319 226.336 83.3729 227.389 74.4303 215.534C72.172 212.523 70.0117 209.873 67.8814 207.547C65.8429 205.263 63.6033 203.167 61.1895 201.284C61.6863 191.95 63.1014 183.798 65.9242 178.258C66.7144 176.638 67.7532 175.152 69.003 173.854C70.1923 173.643 71.5021 173.402 72.8947 173.101C75.1529 175.653 79.549 179.206 85.7591 182.812C85.7591 182.812 87.9722 189.075 89.5229 189.85C90.5648 186.546 91.3871 183.176 91.9843 179.763C92.2553 179.168 96.5912 169.654 97.645 167.772C99.7301 167.275 101.273 166.891 101.996 166.68H102.131C102.131 166.68 102.884 169.262 104.111 173.041C106.068 179.063 109.207 188.134 112.391 194.622C113.781 197.528 114.873 200.567 115.651 203.693Z" fill="#F9F9F9"/>
<path d="M108.567 185.687C109.772 188.818 111.059 191.897 112.331 194.547C113.746 197.474 114.858 200.539 115.651 203.693C117.111 209.731 117.714 215.944 117.442 222.15" stroke="#83ADDF" stroke-width="0.75" stroke-linecap="round" stroke-linejoin="round"/>
<path d="M76.4177 301H39.2922C39.1718 287.533 38.9234 277.213 38.1781 268.384C37.4513 258.21 35.4431 248.17 32.2013 238.5C26.6009 221.691 27.0074 206.741 30.3345 195.902C32.239 189.669 35.1145 184.799 38.3739 181.697C39.1129 181.028 39.9382 180.461 40.8278 180.011C49.2661 175.57 68.9881 173.823 68.9881 173.823C66.5492 178.92 66.7976 192.642 67.8665 207.516C69.0634 224.077 71.2689 242.143 71.8862 251.244C72.3303 257.838 73.3917 269.483 74.4982 281.353C75.1606 288.136 75.823 294.971 76.4177 301Z" fill="#A7CAF0"/>
<path d="M67.8809 207.516C65.8425 205.232 63.6028 203.136 61.189 201.254C60.6621 200.847 60.1276 200.456 59.5932 200.102C51.8248 194.78 43.2284 193.553 30.3339 195.902C28.8811 196.157 27.3756 196.474 25.8174 196.827C31.0189 187.727 36.2956 181.02 40.8723 180.011C49.3106 175.57 69.0326 173.823 69.0326 173.823C66.5711 178.92 66.812 192.635 67.8809 207.516Z" fill="#A7CAF0"/>
<path d="M85.7582 182.812C78.0726 180.659 72.0281 191.363 72.0281 191.363C68.9634 187.541 66.8689 183.034 65.9233 178.227C65.6164 176.903 65.5224 175.539 65.6448 174.185C66.1265 171.016 70.1613 168.539 71.2904 170.88C71.7233 171.689 72.2625 172.436 72.8937 173.101C75.1746 175.653 79.548 179.206 85.7582 182.812Z" fill="#161616"/>
<path d="M104.096 172.966C103.968 177.655 103.546 182.925 103.546 182.925C97.8782 178.506 94.7317 178.408 91.9541 179.763L96.5684 167.561C98.3223 164.437 103.765 164.166 104.051 167.87C104.149 169.164 104.149 171.016 104.096 172.966Z" fill="#161616"/>
<path d="M85.7588 182.811C85.7588 182.811 87.9719 189.074 89.5225 189.849C90.0193 188.193 91.984 179.762 91.984 179.762" stroke="#DDDDDD" stroke-linecap="round" stroke-linejoin="round"/>
<path d="M89.4922 189.849C89.4922 189.849 95.6873 204.716 98.5252 214.6C101.363 224.483 103.313 233.855 102.688 246.546C102.063 259.238 100.708 270.792 101.024 272.14C101.34 273.487 105.601 277.07 99.3607 281.368" stroke="#DDDDDD" stroke-linecap="round" stroke-linejoin="round"/>
<path d="M129.05 252.907C122.922 252.599 116.501 245.418 111.255 237.506C106.932 230.823 103.144 223.808 99.9258 216.527L108.65 204.122C120.16 211.243 137.669 222.542 142.441 230.077C142.79 230.611 143.085 231.178 143.322 231.77C146.799 240.818 144.857 253.698 129.05 252.907Z" fill="#A7CAF0"/>
<path d="M129.051 252.908C122.923 252.599 116.503 245.418 111.256 237.506C116.141 236.415 122.607 239.2 123.894 243.596C126.228 251.568 144.731 247.797 142.442 230.047C142.791 230.581 143.086 231.148 143.323 231.74C146.801 240.819 144.858 253.698 129.051 252.908Z" fill="#A7CAF0"/>
<path d="M143.299 231.77C143.062 231.178 142.767 230.611 142.418 230.077C137.646 222.549 120.137 211.258 108.628 204.122L99.9033 216.527C103.121 223.808 106.909 230.823 111.232 237.506C116.501 245.418 122.9 252.599 129.027 252.908" stroke="#83ADDF" stroke-width="0.75" stroke-linecap="round" stroke-linejoin="round"/>
<path d="M91.6984 208.706L88.4014 214.231L92.263 213.885C92.263 213.885 120.536 189.722 120.973 188.894C121.409 188.066 119.038 185.454 118.255 185.74C117.472 186.026 91.6984 208.706 91.6984 208.706Z" fill="#683F1D"/>
<path d="M91.6982 208.706C92.2402 205.552 92.18 204.461 92.6693 203.798C93.1586 203.136 98.1794 199.372 99.3913 198.951C100.603 198.529 103.697 200.042 103.697 200.042C103.697 200.042 106.061 200.343 107.513 200.584C108.966 200.825 108.861 204.265 109.809 204.852C110.758 205.439 111.94 205.123 112.67 206.644C113.4 208.164 112.12 209.188 112.67 210.159C113.219 211.13 114.604 211.732 114.175 213.434C113.746 215.135 112.903 215.127 113.144 216.098C113.385 217.069 114.356 219.734 111.142 220.765C107.927 221.797 105.579 222.542 103.81 221.857C102.041 221.172 99.9408 219.975 99.6397 218.846C99.6397 218.846 95.876 218.289 94.2952 215.255C94.2952 215.255 90.2379 214.043 93.2037 211.988C93.2037 211.988 91.7509 210.528 92.6618 209.316L91.6982 208.706Z" fill="#B25E47"/>
<path d="M103.817 221.856C102.049 221.164 99.9484 219.975 99.6473 218.845C99.6473 218.845 95.8835 218.288 94.3027 215.255C94.3027 215.255 90.2454 214.043 93.2113 211.988C93.2113 211.988 91.7585 210.528 92.6693 209.316L91.6982 208.713C92.2402 205.559 92.18 204.468 92.6693 203.806" stroke="#914839" stroke-width="0.75" stroke-linecap="round" stroke-linejoin="round"/>
<path d="M92.6699 209.308C96.7197 205.62 103.961 200.275 106.596 200.441" stroke="#914839" stroke-width="0.75" stroke-linecap="round" stroke-linejoin="round"/>
<path d="M93.2109 211.973C99.3308 211.694 104.457 209.03 108.025 206.47" stroke="#914839" stroke-width="0.75" stroke-linecap="round" stroke-linejoin="round"/>
<path d="M94.3027 215.248C97.103 216.414 107.619 213.411 110.216 210.867" stroke="#914839" stroke-width="0.75" stroke-linecap="round" stroke-linejoin="round"/>
<path d="M99.6484 218.838C101.079 219.117 106.641 218.635 109.502 216.715" stroke="#914839" stroke-width="0.75" stroke-linecap="round" stroke-linejoin="round"/>
<path d="M59.5931 200.102C59.4194 203.919 58.8262 207.706 57.8242 211.393L57.1091 214.111C56.9961 214.555 56.8757 215.006 56.7477 215.473C56.4115 216.738 56.0552 218.06 55.6788 219.44L55.453 220.261C55.0014 221.894 54.5196 223.61 54.0153 225.372C53.8497 225.966 53.6765 226.561 53.5034 227.156C52.2839 231.356 50.9215 235.827 49.431 240.359C49.2203 241.006 49.002 241.661 48.7837 242.308C47.7298 245.425 46.6233 248.564 45.4565 251.658C45.2081 252.32 44.9597 252.975 44.7038 253.622L43.951 255.564C43.7478 256.076 43.5445 256.581 43.3338 257.07C41.7154 261.029 39.9916 264.838 38.1925 268.361L38.0043 268.722C32.035 280.194 25.1399 288.241 17.6802 287.398C11.4549 286.706 7.29976 284.244 4.58235 280.932C0.532565 275.956 -0.265348 269.069 0.12608 263.348C0.25031 261.421 0.519551 259.506 0.93152 257.619C2.3241 251.319 13.9089 217.724 25.8776 196.835C31.0791 187.734 36.3558 181.027 40.9325 180.019C51.6065 177.632 60.1351 184.874 59.5931 200.102Z" fill="#A7CAF0"/>
<path d="M59.5932 200.102C51.8248 194.78 43.2284 193.553 30.3339 195.901C28.8811 196.157 27.3756 196.473 25.8174 196.827C31.0189 187.727 36.2956 181.02 40.8723 180.011C51.6065 177.632 60.1351 184.874 59.5932 200.102Z" fill="#A7CAF0"/>
<path d="M59.5934 200.102C59.4197 203.919 58.8264 207.706 57.8244 211.393C54.2188 225.184 47.286 250.694 38.1777 268.346" stroke="#83ADDF" stroke-width="0.75" stroke-linecap="round" stroke-linejoin="round"/>
<path d="M37.9672 268.745C31.9979 280.217 25.1028 288.264 17.643 287.421C11.4178 286.728 7.26265 284.267 4.54523 280.955C0.495453 275.979 -0.302458 269.091 0.088971 263.37C1.03621 263.55 1.94855 263.881 2.79133 264.349C6.71315 266.509 9.28754 271.327 12.3061 274.835C19.1485 282.731 27.775 269.558 37.9672 268.745Z" fill="#A7CAF0"/>
<path d="M77.0501 112.775L66.9934 123.758C54.7914 122.185 51.3288 113.972 53.3386 106.957C53.4139 106.708 53.4967 106.452 53.5945 106.204C56.4399 99.3841 70.5163 95.3569 75.507 106.791C76.3151 108.698 76.8352 110.715 77.0501 112.775Z" fill="#7F542D"/>
<path d="M77.0501 112.775L66.9934 123.758C54.7914 122.185 51.3288 113.972 53.3386 106.957C53.4139 106.708 53.4967 106.452 53.5945 106.204C55.6345 114.522 61.122 117.939 63.9147 112.504C66.4289 107.649 71.54 105.79 75.507 106.791C76.3151 108.698 76.8352 110.715 77.0501 112.775Z" fill="#683F1D"/>
<path d="M95.1764 114.665C95.1764 114.665 81.5065 141.914 71.7133 138C69.5565 137.15 67.6976 135.684 66.3688 133.785C62.3717 128.094 63.4933 119.302 68.07 115.132C71.8764 111.689 76.5695 109.379 81.6194 108.462C85.9628 102.884 94.8076 101.033 98.1799 104.796C98.2551 104.872 98.3229 104.954 98.3906 105.037C101.552 109.087 98.5261 112.693 95.1764 114.665Z" fill="#7F542D"/>
<path d="M95.1758 114.665C95.1758 114.665 81.5059 141.914 71.7127 138C69.5559 137.15 67.697 135.684 66.3682 133.785C70.8846 134.041 73.8956 132.942 74.4376 129.313C75.1904 124.255 76.2969 113.634 76.2969 113.634C76.2969 113.634 92.6993 114.146 98.1266 104.797C98.2019 104.872 98.2696 104.955 98.3373 105.037C101.552 109.087 98.5255 112.693 95.1758 114.665Z" fill="#683F1D"/>
<path d="M98.187 154.892C90.9682 156.729 82.5148 152.137 77.0724 147.116C74.0615 148.622 68.6492 145.325 69.0406 140.928C69.4772 136.156 73.0227 135.358 75.5368 137.014C76.3046 136.467 76.9569 135.774 77.4564 134.974C78.417 133.387 78.9847 131.593 79.1124 129.743C79.82 122.546 76.3122 113.604 76.3122 113.604C79.0754 115.449 82.2821 116.52 85.5994 116.707C88.9166 116.893 92.2233 116.188 95.176 114.665C95.3416 114.665 100.445 122.787 103.208 131.226C103.524 132.197 103.81 133.168 104.051 134.139C104.373 135.441 104.625 136.761 104.804 138.091C105.97 146.04 104.375 153.311 98.187 154.892Z" fill="#B25E47"/>
<path d="M89.501 129.284C89.501 129.494 89.5632 129.699 89.6798 129.873C89.7965 130.048 89.9622 130.184 90.1562 130.264C90.3501 130.345 90.5635 130.366 90.7694 130.325C90.9753 130.284 91.1644 130.183 91.3128 130.034C91.4613 129.886 91.5624 129.697 91.6033 129.491C91.6443 129.285 91.6233 129.071 91.5429 128.877C91.4626 128.684 91.3266 128.518 91.152 128.401C90.9775 128.285 90.7723 128.222 90.5623 128.222C90.2808 128.222 90.0109 128.334 89.8118 128.533C89.6128 128.732 89.501 129.002 89.501 129.284Z" fill="#683F1D"/>
<path d="M96.5684 127.296C96.5684 127.506 96.6306 127.711 96.7472 127.886C96.8639 128.06 97.0296 128.196 97.2236 128.277C97.4175 128.357 97.6309 128.378 97.8368 128.337C98.0427 128.296 98.2318 128.195 98.3802 128.047C98.5287 127.898 98.6298 127.709 98.6707 127.503C98.7117 127.297 98.6906 127.084 98.6103 126.89C98.53 126.696 98.3939 126.53 98.2194 126.414C98.0449 126.297 97.8396 126.235 97.6297 126.235C97.3482 126.235 97.0783 126.347 96.8792 126.546C96.6802 126.745 96.5684 127.015 96.5684 127.296Z" fill="#683F1D"/>
<path d="M78.074 148.84C79.5582 148.84 80.7613 147.637 80.7613 146.153C80.7613 144.669 79.5582 143.465 78.074 143.465C76.5899 143.465 75.3867 144.669 75.3867 146.153C75.3867 147.637 76.5899 148.84 78.074 148.84Z" fill="#161616"/>
<path d="M81.9343 124.903C82.529 126.197 88.9047 123.517 87.4143 121.056C86.2024 119.069 81.0461 123.006 81.9343 124.903Z" fill="#7F542D"/>
<path d="M92.5122 119.987C92.2864 121.778 97.3524 121.455 97.3147 120.167C97.2771 118.88 92.8058 117.638 92.5122 119.987Z" fill="#7F542D"/>
<path d="M77.4331 141.274C74.663 138.956 72.5176 140.213 71.9004 142.17" stroke="#914839" stroke-width="0.75" stroke-linecap="round" stroke-linejoin="round"/>
<path d="M75.605 144.225C73.4672 143.292 74.4533 140.153 77.0578 140.951" stroke="#914839" stroke-width="0.75" stroke-linecap="round" stroke-linejoin="round"/>
<path d="M89.2002 137.383C90.0774 138.196 91.1415 138.78 92.2983 139.083C93.455 139.386 94.6687 139.399 95.8319 139.122" stroke="#914839" stroke-width="0.75" stroke-linecap="round" stroke-linejoin="round"/>
<path d="M94.0996 126.235C94.0996 129.697 96.2826 131.248 98.172 131.655C98.454 131.734 98.7154 131.874 98.938 132.064C99.1606 132.255 99.339 132.492 99.4608 132.758C99.5825 133.025 99.6448 133.314 99.6432 133.607C99.6417 133.9 99.5763 134.19 99.4516 134.455" stroke="#914839" stroke-width="0.75" stroke-linecap="round" stroke-linejoin="round"/>
<path d="M87.1968 135.945C86.4441 137.819 83.3955 138.346 80.4221 137.119C79.2673 136.655 78.2364 135.928 77.4111 134.997C78.3717 133.41 78.9395 131.616 79.0672 129.765C80.4883 129.561 81.9382 129.759 83.2525 130.337C86.2183 131.542 87.9722 134.048 87.1968 135.945Z" fill="#914839"/>
<path d="M104.819 138.083C103.275 138.339 101.913 137.97 101.228 136.977C100.189 135.471 101.07 133.01 103.2 131.218C103.516 132.189 103.802 133.16 104.043 134.131C104.373 135.434 104.632 136.753 104.819 138.083Z" fill="#914839"/>
<path d="M93.4737 274.804H45.8022L33.0205 206.478H80.6995L93.4737 274.804Z" fill="#F9F9F9" stroke="#DDDDDD" stroke-linecap="round" stroke-linejoin="round"/>
<path d="M65.6674 203.045H60.5487C60.5444 202.828 60.5217 202.611 60.481 202.397C60.227 201.193 59.578 200.108 58.6371 199.314C57.6961 198.521 56.5171 198.064 55.287 198.016C54.7403 197.997 54.1965 198.105 53.6984 198.331C53.2003 198.558 52.7615 198.896 52.4164 199.321C52.0714 199.745 51.8295 200.244 51.7098 200.778C51.5901 201.312 51.5958 201.866 51.7265 202.397C51.7717 202.617 51.8321 202.833 51.9072 203.045H46.7734L48.166 210.497H67.06L65.6674 203.045Z" fill="#DDDDDD"/>
<path d="M58.0925 204.212C58.9239 203.299 58.706 201.747 57.6057 200.744C56.5055 199.742 54.9395 199.67 54.108 200.583C53.2766 201.495 53.4945 203.048 54.5948 204.05C55.695 205.052 57.261 205.125 58.0925 204.212Z" fill="#F9F9F9" stroke="#DDDDDD" stroke-linecap="round" stroke-linejoin="round"/>
<path d="M58.1924 236.369C62.7089 234.073 65.4263 233.494 66.0812 232.507C66.7361 231.521 75.3701 224.935 77.6735 223.994C79.9769 223.053 83.9363 225.394 83.9363 225.394C83.9363 225.394 87.7001 223.497 89.4916 223.994C91.2831 224.491 92.6682 228.066 89.6949 231.107C87.6474 233.208 91.7875 234.036 90.1691 236.377C89.4163 237.445 91.238 237.942 90.9896 240.329C90.7412 242.715 89.5518 242.956 89.6949 243.942C89.8379 244.928 90.4476 247.48 88.0313 248.458C85.615 249.437 74.2184 251.665 72.4118 251.906C70.6052 252.147 61.7228 258.402 61.7228 258.402L58.1924 236.369Z" fill="#B25E47"/>
<path d="M83.9368 225.394L77.3428 228.533" stroke="#914839" stroke-width="0.75" stroke-linecap="round" stroke-linejoin="round"/>
<path d="M77.6738 224.017C79.9772 223.076 83.9367 225.417 83.9367 225.417C83.9367 225.417 87.7004 223.52 89.492 224.017C91.2835 224.514 92.6686 228.089 89.6952 231.13C87.6477 233.23 91.7878 234.058 90.1694 236.399C89.4167 237.468 91.2383 237.965 90.9899 240.351C90.7415 242.738 89.5522 242.978 89.6952 243.965C89.8382 244.951 90.4479 247.502 88.0316 248.481" stroke="#914839" stroke-width="0.75" stroke-linecap="round" stroke-linejoin="round"/>
<path d="M68.4604 260.848C61.3017 266.373 54.9109 270.92 49.2578 274.601C21.7223 292.516 10.5289 290.047 4.53707 280.954C4.51946 280.933 4.5043 280.911 4.4919 280.886C0.396957 274.601 0.253935 269.151 2.78317 264.326C8.94064 252.606 30.9735 244.709 50.2966 237.822C54.0076 236.497 57.6133 235.21 60.9931 233.945L68.4604 260.848Z" fill="#A7CAF0"/>
<path d="M49.2578 274.601C21.7223 292.516 10.5289 290.047 4.53707 280.954C4.51946 280.933 4.5043 280.911 4.4919 280.886C0.396957 274.601 0.253935 269.151 2.78317 264.326C6.70498 266.486 9.27938 271.304 12.2979 274.812C19.1479 282.731 27.7744 269.558 37.9666 268.745C40.9776 268.496 44.1165 269.324 47.3835 272.079C48.2175 272.742 48.8637 273.611 49.2578 274.601Z" fill="#A7CAF0"/>
<path d="M30.7549 284.734C37.2147 281.92 43.4073 278.529 49.2574 274.602C54.9331 270.921 61.3014 266.374 68.46 260.849L60.9702 233.938" stroke="#83ADDF" stroke-width="0.75" stroke-linecap="round" stroke-linejoin="round"/>
<path d="M60.9707 233.938C44.3274 240.193 22.0536 246.863 9.9043 256.325" stroke="#83ADDF" stroke-width="0.75" stroke-linecap="round" stroke-linejoin="round"/>
<path d="M532.061 175.841C531.388 175.48 530.698 175.153 529.991 174.862C528.252 174.124 526.433 173.588 524.571 173.266C517.917 172.085 511.067 173.643 503.886 176.767C497.367 179.597 490.577 183.722 483.419 188.261C483.28 187.14 483.21 186.011 483.208 184.881C483.208 170.526 494.499 158.881 508.418 158.881C513.625 158.93 518.691 160.585 522.922 163.621C527.154 166.656 530.346 170.924 532.061 175.841Z" fill="#A7CAF0"/>
<path d="M524.895 181.863C524.496 185.995 522.787 195.585 520.424 207.75C520.04 209.744 519.671 211.807 519.212 213.922C513.386 243.37 504.721 283.724 501.003 300.97H399.284L406.857 257.356C406.857 257.356 381.482 251.65 376.34 242.045C369.709 229.655 373.329 220.162 381.007 207.17C386.578 197.715 397.703 176.224 406.367 162.668C409.619 157.571 412.525 153.635 414.648 151.805C425.871 142.358 437.456 146.039 448.092 148.794C448.092 148.794 448.092 151.053 448.213 154.719C448.28 157.692 448.378 161.599 448.514 166.01C448.747 173.771 449.101 183.112 449.605 191.724C449.696 193.229 449.786 194.735 449.884 196.24C450.637 207.132 451.6 216.067 452.94 217.829C453.279 218.273 453.791 218.153 454.445 217.565C456.35 215.819 459.459 209.993 462.921 202.548C463.968 200.29 465.037 197.934 466.121 195.48C472.007 182.111 478.165 166.416 481.002 159.152C481.898 156.849 482.455 155.388 482.553 155.125C482.552 155.11 482.552 155.095 482.553 155.08L484.616 155.358L489.057 155.968C492.918 156.495 498.203 157.233 504.112 158.098C505.617 158.317 507.025 158.573 508.425 158.904C515.087 160.454 520.778 163.42 523.442 169.623C523.947 170.802 524.328 172.031 524.579 173.289C525.113 176.115 525.219 179.005 524.895 181.863Z" fill="#A7CAF0"/>
<path d="M524.571 173.296C517.917 172.115 511.067 173.673 503.886 176.797C497.367 179.627 490.577 183.752 483.419 188.291L481.16 189.729C475.718 193.199 470.69 194.961 466.105 195.487C473.859 177.888 482.086 156.269 482.545 155.133C482.544 155.118 482.544 155.103 482.545 155.088L489.049 155.976C492.911 156.503 498.195 157.24 504.104 158.106C505.61 158.324 507.017 158.58 508.417 158.911C515.079 160.462 520.77 163.428 523.435 169.631C523.94 170.81 524.321 172.038 524.571 173.296Z" fill="#A7CAF0"/>
<path d="M406.857 257.386C416.846 260.05 437.351 264.876 437.351 264.876" stroke="#83ADDF" stroke-width="0.75" stroke-linecap="round" stroke-linejoin="round"/>
<path d="M418.608 187.47L413.588 221.758C406.482 218.341 403.335 217.385 400.249 217.814C399.76 211.077 414.912 217.287 411.849 203.692C409.982 195.412 413.731 189.39 418.608 187.47Z" fill="#83ADDF"/>
<path d="M413.587 221.759L418.608 187.471L419.428 181.855" stroke="#83ADDF" stroke-width="0.75" stroke-linecap="round" stroke-linejoin="round"/>
<path d="M396.529 218.837C403.372 216.338 405.08 217.332 428.31 229.188" stroke="#83ADDF" stroke-width="0.75" stroke-linecap="round" stroke-linejoin="round"/>
<path d="M448.093 148.824C448.093 148.824 448.462 172.16 449.599 191.731C441.703 186.966 436.493 178.934 434.326 173.974C431.119 166.665 425.037 157.669 406.354 162.683C409.605 157.586 412.511 153.65 414.634 151.82C425.872 142.389 437.457 146.069 448.093 148.824Z" fill="#A7CAF0"/>
<path d="M488.582 177.647C487.965 178.506 474.619 186.462 474.867 187.569C475.116 188.675 477.314 193.199 477.314 194.057C477.314 194.599 469.109 204.814 462.47 211.641C458.638 215.601 455.326 218.416 454.438 217.573C452.398 215.631 470.494 168.878 476.32 154.011L482.56 155.088L489.064 155.976C488.507 166.71 489.124 176.895 488.582 177.647Z" fill="#83ADDF"/>
<path d="M482.561 155.087C482.56 155.102 482.56 155.117 482.561 155.132C482.177 156.638 472.693 193.575 462.486 211.641C459.294 217.302 456.035 221.11 452.956 221.427C439.85 222.669 448.108 148.854 448.108 148.854C452.971 149.946 467.8 152.558 476.336 154.041L482.561 155.087Z" fill="white"/>
<path d="M480.1 151.835C478.662 156.119 465.655 165.475 457.676 160.966C453.076 158.362 452.233 153.574 453.438 145.663C454.017 141.786 455.101 137.157 456.449 131.669C457.134 128.922 457.894 125.964 458.707 122.779C460.641 115.116 465.15 110.329 473.355 111.752C481.56 113.174 481.116 121.176 480.883 129.818C480.65 138.459 481.538 147.56 480.1 151.835Z" fill="#B25E47"/>
<path d="M469.628 130.299C469.011 138.331 465.473 147.063 453.437 145.663C454.016 141.786 455.1 137.157 456.448 131.669L469.628 130.299Z" fill="#914839"/>
<path d="M454.438 159.355C454.776 167.184 454.859 169.63 455.619 170.044C456.38 170.458 459.827 171.392 460.753 170.797C461.679 170.203 466.971 161.478 466.971 161.478C466.971 161.478 460.67 157.165 454.438 159.355Z" fill="#683F1D"/>
<path d="M460.257 167.086C461.348 180.673 463.652 213.004 463.983 215.518C464.314 218.032 454.009 228.668 452.97 227.351C451.932 226.034 446.67 216.331 446.67 213.455C446.67 210.58 456.2 166.537 456.2 166.537L460.257 167.086Z" fill="#683F1D"/>
<path d="M460.069 157.812C465.835 157.217 479.076 148.96 480.8 147.846C482.524 146.732 484.82 154.365 484.624 155.87C484.428 157.376 467.642 168.486 467.642 168.486C467.642 168.486 463.472 160.048 459.776 159.95C456.08 159.852 450.547 168.486 450.547 168.486C443.531 162.171 448.198 151.301 453.001 149.554C453.001 149.554 457.736 158.053 460.069 157.812Z" fill="#161616"/>
<path d="M445.458 271.492L440.31 301" stroke="#83ADDF" stroke-width="0.75" stroke-linecap="round" stroke-linejoin="round"/>
<path d="M487.914 99.7005C486.978 101.098 485.704 102.235 484.21 103.006C482.716 103.778 481.051 104.158 479.37 104.112C473.348 104.014 467.567 99.2413 467.567 99.2413C467.567 99.2413 462.298 93.8968 462.87 89.1545C463.045 87.7943 463.718 86.5473 464.759 85.6542C469.275 81.5894 476.321 85.3757 478.918 89.7266C481.515 94.0775 482.298 94.0474 485.279 94.085C487.868 94.1151 489.005 97.0659 487.914 99.7005Z" fill="#683F1D"/>
<path d="M479.37 104.112C473.348 104.014 467.567 99.2413 467.567 99.2413C467.567 99.2413 462.298 93.8968 462.87 89.1545C468.779 87.7544 475.967 89.4104 480.491 94.0172C484.097 97.6906 481.816 101.567 479.37 104.112Z" fill="#683F1D"/>
<path d="M470.96 95.5904C467.362 90.961 467.994 85.6767 471.811 84.2992" stroke="#7F542D" stroke-width="0.75" stroke-linecap="round" stroke-linejoin="round"/>
<path d="M475.756 98.3074C472.158 93.6856 472.79 88.3938 476.606 87.0162" stroke="#7F542D" stroke-width="0.75" stroke-linecap="round" stroke-linejoin="round"/>
<path d="M483.937 109.546C483.004 111.615 481.949 113.626 480.776 115.568C479.182 118.285 477.354 120.856 475.311 123.254C471.547 127.605 466.639 131.421 460.926 131.91C447.211 133.085 447.851 123.397 448.287 120.461C448.287 120.393 448.287 120.333 448.287 120.273C448.287 120.213 451.261 114.153 454.565 108.124C456.221 105.015 458.045 102 460.03 99.0905C464.434 92.9481 470.508 91.6835 476.515 94.2203C482.522 96.757 483.2 100.4 483.937 109.546Z" fill="#B25E47"/>
<path d="M480.776 115.621C479.18 118.319 477.351 120.873 475.311 123.253H474.92C473.781 123.255 472.665 122.938 471.698 122.339C470.73 121.739 469.95 120.88 469.445 119.86C468.94 118.84 468.731 117.699 468.841 116.566C468.951 115.433 469.377 114.353 470.069 113.449C470.761 112.546 471.692 111.854 472.757 111.452C473.822 111.05 474.978 110.954 476.095 111.175C477.211 111.396 478.244 111.926 479.075 112.704C479.906 113.481 480.503 114.476 480.799 115.575L480.776 115.621Z" fill="#914839"/>
<path d="M456.689 113.257C456.689 115.19 455.921 117.045 454.555 118.412C453.189 119.78 451.335 120.549 449.402 120.551C449.022 120.552 448.641 120.522 448.266 120.461C448.266 120.393 448.266 120.333 448.266 120.273C448.266 120.213 451.239 114.153 454.544 108.123C455.911 109.483 456.683 111.329 456.689 113.257Z" fill="#914839"/>
<path d="M485.722 115.99L483.667 117.879C480.31 121.04 479.587 121.823 479.587 121.823C477.713 117.126 477.277 109.237 480.822 103.419C484.367 97.5999 488.583 97.3967 490.803 99.1957C491.023 99.3725 491.201 99.5963 491.323 99.8506C492.926 102.824 490.751 111.323 485.722 115.99Z" fill="#683F1D"/>
<path d="M491.323 99.8736C487.183 101.018 483.69 107.8 483.667 117.902C480.31 121.063 479.587 121.846 479.587 121.846C477.713 117.149 477.277 109.26 480.822 103.442C484.367 97.6229 488.583 97.4196 490.803 99.2187C491.023 99.3955 491.201 99.6192 491.323 99.8736Z" fill="#683F1D"/>
<path d="M476.93 123.902C479.414 127.357 487.34 125.407 487.852 120.341C488.364 115.275 483.87 112.535 479.888 114.816C475.906 117.097 476.184 122.87 476.93 123.902Z" fill="#B25E47"/>
<path d="M485.007 99.0602C485.76 103.117 489.049 106.392 491.119 106.949" stroke="#7F542D" stroke-width="0.75" stroke-linecap="round" stroke-linejoin="round"/>
<path d="M481.537 102.365C482.29 105.978 484.894 110.758 489.93 110.419" stroke="#7F542D" stroke-width="0.75" stroke-linecap="round" stroke-linejoin="round"/>
<path d="M460.181 104.623C460.181 104.833 460.243 105.038 460.36 105.213C460.476 105.387 460.642 105.524 460.836 105.604C461.03 105.684 461.243 105.705 461.449 105.664C461.655 105.623 461.844 105.522 461.993 105.374C462.141 105.225 462.242 105.036 462.283 104.83C462.324 104.624 462.303 104.411 462.223 104.217C462.142 104.023 462.006 103.857 461.832 103.741C461.657 103.624 461.452 103.562 461.242 103.562C460.961 103.562 460.691 103.674 460.492 103.873C460.292 104.072 460.181 104.342 460.181 104.623Z" fill="#683F1D"/>
<path d="M468.304 108.522C468.89 108.522 469.365 108.047 469.365 107.461C469.365 106.875 468.89 106.4 468.304 106.4C467.717 106.4 467.242 106.875 467.242 107.461C467.242 108.047 467.717 108.522 468.304 108.522Z" fill="#683F1D"/>
<path d="M480.49 116.637C480.566 117.796 477.321 122.027 477.043 123.344C476.072 127.996 476.019 130.315 470.84 133.755C465.165 137.518 454.28 140.898 448.785 136.547C446.654 134.869 445.473 131.632 445.473 127.845C445.53 124.911 446.171 122.017 447.359 119.332C448.546 116.648 450.257 114.227 452.39 112.211C451.718 114.676 450.894 117.097 449.921 119.46C451.018 117.978 452.202 116.563 453.467 115.222C454.961 114.522 456.607 114.208 458.254 114.311C459.195 114.567 464.713 116.855 464.931 117.902C465.149 118.948 464.276 122.546 465.436 122.802C466.595 123.058 471.676 122.509 472.963 121.68C474.25 120.852 477.72 115.403 478.044 114.567C478.247 114.048 479.105 114.522 479.745 115.237C480.133 115.615 480.393 116.104 480.49 116.637Z" fill="#683F1D"/>
<path d="M484.744 119.829C483.456 116.818 480.159 116.908 478.36 119.317" stroke="#914839" stroke-width="0.75" stroke-linecap="round" stroke-linejoin="round"/>
<path d="M479.227 118.421C482.78 117.54 484.345 122.795 479.603 122.787" stroke="#914839" stroke-width="0.75" stroke-linecap="round" stroke-linejoin="round"/>
<path d="M459.218 98.8797C458.955 100.385 465.903 101.672 465.993 99.4217C466.083 97.171 459.504 97.2764 459.218 98.8797Z" fill="#683F1D"/>
<path d="M476.335 101.996C476.283 103.502 469.222 103.381 469.561 101.153C469.899 98.9249 476.396 100.378 476.335 101.996Z" fill="#683F1D"/>
<path d="M459.074 118.323C463.38 119.016 465.284 118.323 466.406 116.502" stroke="#914839" stroke-width="0.75" stroke-linecap="round" stroke-linejoin="round"/>
<path d="M458.074 111.76C459.504 108.846 461.401 107.793 463.276 107.582C464.163 107.458 464.989 107.057 465.634 106.435C466.28 105.813 466.711 105.002 466.866 104.119" stroke="#914839" stroke-width="0.75" stroke-linecap="round" stroke-linejoin="round"/>
<path d="M480.49 116.637C480.566 117.797 477.321 122.027 477.043 123.344C476.072 127.996 476.019 130.315 470.84 133.755C465.165 137.519 454.28 140.898 448.785 136.548C446.654 134.869 445.473 131.632 445.473 127.846C451.495 133.01 460.324 133.559 465.744 132.009C473.392 129.81 478.067 119.641 479.76 115.237C480.142 115.618 480.397 116.107 480.49 116.637Z" fill="#683F1D"/>
<path d="M446.421 121.846C454.377 128.621 465.337 123.261 465.992 122.787" stroke="#7F542D" stroke-width="0.75" stroke-linecap="round" stroke-linejoin="round"/>
<path d="M445.518 129.049C452.142 132.527 462.612 133.491 470.449 122.448" stroke="#7F542D" stroke-width="0.75" stroke-linecap="round" stroke-linejoin="round"/>
<path d="M453.753 138.482C455.386 136.133 459.677 135.11 464.179 133.86C472.94 131.414 474.288 127.785 475.139 119.197" stroke="#7F542D" stroke-width="0.75" stroke-linecap="round" stroke-linejoin="round"/>
<path d="M480.258 258.922C480.255 260.53 479.901 262.118 479.219 263.574C478.353 265.401 477.115 267.026 475.583 268.346C471.534 271.944 465.226 274.255 458.135 274.255C454.153 274.287 450.206 273.519 446.527 271.997C443.064 270.63 440.079 268.274 437.946 265.222C436.697 263.36 436.021 261.172 436.004 258.929C436.004 258.285 436.064 257.643 436.185 257.01C437.095 251.914 441.619 247.593 447.935 245.32C451.21 244.16 454.66 243.574 458.135 243.588C462.673 243.555 467.157 244.586 471.225 246.599C472.974 247.47 474.587 248.591 476.012 249.927C478.685 252.426 480.258 255.542 480.258 258.922Z" fill="#A7CAF0"/>
<path d="M479.218 263.573C478.352 265.4 477.114 267.026 475.583 268.346C471.533 271.944 465.225 274.255 458.134 274.255C454.153 274.286 450.206 273.518 446.527 271.997C443.063 270.63 440.079 268.274 437.945 265.222C453.738 269.34 470.795 265.869 479.218 263.573Z" fill="#83ADDF"/>
<path d="M529.24 199.71C525.837 205.281 514.298 220.727 502.939 235.473C493.356 247.901 483.902 259.825 479.566 264.891C478.412 266.228 477.071 267.392 475.584 268.346C472.912 270.038 469.928 271.177 466.807 271.694C463.687 272.211 460.495 272.096 457.42 271.357C453.024 270.25 449.215 267.729 447.138 263.731C446.237 261.978 445.69 260.065 445.527 258.101C445.196 254.518 446.091 250.159 447.936 245.304C451.421 236.166 458.263 225.319 466.491 214.705C467.499 213.403 468.538 212.101 469.585 210.806C471.195 208.798 472.846 206.831 474.538 204.904C475.125 204.219 475.712 203.549 476.314 202.872C476.781 202.345 477.248 201.818 477.722 201.299L479.34 199.515L479.43 199.417L481.079 197.648C482.201 196.451 483.337 195.269 484.459 194.117L485.964 192.612C486.514 192.055 487.071 191.498 487.628 190.956C487.651 190.929 487.676 190.904 487.703 190.881C488.877 189.721 490.049 188.597 491.219 187.508L491.377 187.365C495.338 183.626 499.502 180.108 503.85 176.827C508.441 173.424 512.589 170.963 515.946 169.781C521.607 167.794 526.786 170.203 529.955 174.922C534.027 180.877 534.818 190.587 529.24 199.71Z" fill="#A7CAF0"/>
<path d="M515.45 219.026C511.55 224.228 507.237 229.904 502.939 235.474C493.356 247.902 483.902 259.825 479.566 264.891C478.412 266.228 477.071 267.392 475.584 268.346" stroke="#83ADDF" stroke-width="0.75" stroke-linecap="round" stroke-linejoin="round"/>
<path d="M447.935 245.312C451.42 236.174 458.262 225.326 466.49 214.713C474.031 205.01 482.311 195.905 491.255 187.478" stroke="#83ADDF" stroke-width="0.75" stroke-linecap="round" stroke-linejoin="round"/>
<path d="M502.562 184.919C498.602 182.661 494.703 183.504 487.635 190.941" stroke="#83ADDF" stroke-width="0.75" stroke-linecap="round" stroke-linejoin="round"/>
<path d="M529.991 174.892C528.252 174.154 526.433 173.618 524.571 173.297C517.917 172.115 511.067 173.673 503.886 176.797C508.478 173.394 512.625 170.933 515.982 169.751C521.643 167.764 526.822 170.173 529.991 174.892Z" fill="#A7CAF0"/>
<path d="M502.938 235.473C493.355 247.901 483.901 259.825 479.565 264.891C478.411 266.228 477.07 267.392 475.583 268.346C472.911 270.038 469.927 271.177 466.807 271.694C463.686 272.211 460.494 272.097 457.419 271.357C453.023 270.25 449.214 267.729 447.137 263.732C454.197 266.479 461.213 266.487 466.226 263.957C469.018 262.605 471.213 260.27 472.391 257.401C473.437 254.817 474.646 252.303 476.012 249.873C484.172 235.511 495.328 230.272 502.938 235.473Z" fill="#83ADDF"/>
<path d="M422.289 173.839C421.928 171.814 428.725 169.653 434.009 169.051L435.003 177.986C435.003 177.986 423.539 180.869 422.289 173.839Z" fill="#83ADDF"/>
<path d="M432.911 168.487C430.163 158.227 430.095 141.621 431.036 139.272C431.977 136.924 433.874 137.805 435.003 137.872C436.132 137.94 436.659 134.922 440.476 134.922C440.476 134.922 440.687 131.113 443.329 130.676C443.329 130.676 442.32 125.128 446.769 126.017C447.777 126.22 446.769 132.377 449.328 141.072C449.471 141.561 454.861 137.699 456.103 136.819C458.098 135.381 461.959 134.907 459.445 139.129C457.939 141.696 455.433 145.754 453.686 148.298C450.217 153.497 448.418 159.632 448.53 165.882L432.911 168.487Z" fill="#B25E47"/>
<path d="M430.517 144.316C430.479 142.62 430.654 140.925 431.036 139.272C431.97 136.931 433.874 137.805 435.003 137.872C436.132 137.94 436.659 134.922 440.476 134.922C440.476 134.922 440.686 131.113 443.329 130.676C443.329 130.676 442.32 125.128 446.769 126.017C447.777 126.22 446.769 132.377 449.328 141.072C449.471 141.561 454.861 137.699 456.103 136.819C458.097 135.381 461.959 134.907 459.445 139.129C458.692 140.409 457.676 142.065 456.645 143.721" stroke="#914839" stroke-width="0.75" stroke-linecap="round" stroke-linejoin="round"/>
<path d="M440.476 134.921C440.46 135.629 440.503 136.336 440.604 137.037" stroke="#914839" stroke-width="0.75" stroke-linecap="round" stroke-linejoin="round"/>
<path d="M443.329 130.676C443.653 132.535 444.127 134.259 444.127 134.259" stroke="#914839" stroke-width="0.75" stroke-linecap="round" stroke-linejoin="round"/>
<path d="M428.077 164.248L429.274 181.11C429.274 181.11 451.202 177.346 450.87 176.857C450.539 176.368 449.967 162.555 449.967 162.555L428.077 164.248Z" fill="white"/>
<path d="M471.106 246.599C471.106 247.036 471.083 247.472 471.038 247.909C471.038 248.24 470.993 248.571 470.963 248.903C470.966 248.968 470.966 249.033 470.963 249.098C470.963 249.475 470.887 249.851 470.842 250.212C470.744 251.056 470.616 251.891 470.458 252.712C469.773 256.725 468.3 260.563 466.122 264.003C464.047 267.342 460.962 269.934 457.315 271.402C453.863 272.668 450.117 272.899 446.536 272.065H446.423C439.212 270.506 434.906 262.475 432.256 253.291C429.84 244.898 428.801 235.541 428.207 229.271C426.942 216.098 422.185 173.914 422.185 173.914C425.549 175.6 455.659 168.569 455.659 168.569C455.659 168.569 461.847 193.109 466.393 214.796C468.832 226.426 470.805 237.243 471.091 243.009C471.128 244.145 471.143 245.357 471.106 246.599Z" fill="#A7CAF0"/>
<path d="M432.241 253.208C429.824 244.815 428.786 235.459 428.191 229.188C426.926 216.015 422.169 173.831 422.169 173.831" stroke="#83ADDF" stroke-width="0.75" stroke-linecap="round" stroke-linejoin="round"/>
<path d="M455.637 168.486C455.637 168.486 461.824 193.026 466.371 214.713C468.81 226.342 470.782 237.159 471.068 242.925C471.128 244.145 471.143 245.357 471.068 246.561C470.995 248.761 470.744 250.951 470.315 253.11" stroke="#83ADDF" stroke-width="0.75" stroke-linecap="round" stroke-linejoin="round"/>
<path d="M466.107 263.912C464.032 267.251 460.947 269.843 457.3 271.312C453.848 272.578 450.102 272.808 446.521 271.974H446.408C439.197 270.416 434.891 262.384 432.241 253.201C433.429 254.54 434.707 255.798 436.065 256.964C439.302 259.817 443.007 262.089 447.018 263.679C454.078 266.464 461.094 266.472 466.107 263.912Z" fill="#83ADDF"/>
<path d="M255.842 265.335C252.734 263.492 249.907 261.21 247.449 258.561C239.244 250.092 231.363 237.009 225.536 225.944C221.532 218.341 218.506 211.687 217.008 208.126C216.925 207.938 216.842 207.735 216.759 207.524C216.549 207.005 216.315 206.425 216.082 205.8C211.061 192.688 200.718 156.955 222.555 151.332C231.325 149.073 235.924 152.837 245.386 167.568C247.231 170.436 249.263 173.718 251.544 177.452C265.567 200.418 283.807 238.289 285.515 248.662C287.224 259.035 269.873 273.141 255.842 265.335Z" fill="#161616"/>
<path d="M245.394 167.561C241.389 167.47 236.685 169.179 232.477 173.794C228.946 177.67 225.77 183.579 223.654 192.206C222.491 197.369 219.861 202.087 216.082 205.793C211.061 192.68 200.718 156.947 222.555 151.324C231.333 149.081 235.939 152.867 245.394 167.561Z" fill="#161616"/>
<path d="M247.449 258.568C239.244 250.1 231.363 237.017 225.537 225.951C221.532 218.349 218.506 211.694 217.008 208.134C216.925 207.946 216.843 207.743 216.76 207.532L228.412 197.422C235.292 197.633 241.314 217.205 235.616 222.12C230.746 226.313 231.1 234.834 240.313 236.422C247.095 237.566 247.494 253.502 247.449 258.568Z" fill="#393939"/>
<path d="M192.628 171.257C179.078 170.18 177.407 157.903 178.265 154.072C179.123 150.24 181.585 132.724 182.421 124.511C184.46 104.39 205.492 111.519 205.357 129.969C205.357 131.218 205.266 134.124 205.206 137.639C205.146 141.155 205.116 145.453 205.244 149.149C205.244 149.337 205.244 149.525 205.244 149.713C205.53 157.113 206.2 172.333 192.628 171.257Z" fill="#FEBD9D"/>
<path d="M205.244 149.148C191.996 149.465 191.778 140.507 192.591 134.139L205.207 137.639C205.147 141.214 205.116 145.452 205.244 149.148Z" fill="#F4A789"/>
<path d="M232.479 173.808C231.831 178.927 230.928 184.166 230.092 188.623C229.34 192.755 228.632 196.21 228.293 198.295C228.248 198.581 228.203 198.845 228.173 199.048C227.857 201.306 226.833 211.92 225.538 225.921C223.385 249.256 220.472 281.903 218.764 300.97H131.354C132.107 295.166 133.011 288.301 133.906 281.346C136.165 263.687 138.468 245.5 138.558 243.069C138.739 238.311 136.481 208.254 134.23 192.213C134.162 191.739 134.094 191.272 134.027 190.821C131.904 176.466 136.571 169.676 143.444 167.132C144.054 166.902 144.677 166.709 145.31 166.552C151.829 164.911 162.383 161.576 174.321 158.001C176.775 157.248 179.289 156.495 181.849 155.743C182.85 155.457 183.964 155.17 185.183 154.892C185.665 155.238 186.177 155.584 186.689 155.931L187.547 156.458C187.713 156.563 187.878 156.661 188.044 156.751C189.022 157.331 190.076 157.888 191.19 158.407C191.597 158.603 192.018 158.791 192.447 158.972C192.861 159.153 193.283 159.326 193.72 159.491H193.757C194.104 159.627 194.465 159.755 194.826 159.883H194.886L195.413 160.063L196.505 160.417C197.363 160.688 198.244 160.929 199.154 161.17C200.11 160.093 200.916 159.085 201.601 158.159L202.203 157.308L202.579 156.744C202.805 156.39 203.016 156.059 203.204 155.735C203.392 155.411 203.618 154.982 203.791 154.666C204.135 154.008 204.436 153.329 204.695 152.634L204.86 152.144C206.223 152.032 207.623 151.926 209.061 151.836C210.852 151.715 212.696 151.618 214.593 151.527C217.143 151.407 219.782 151.321 222.512 151.271C224.489 151.226 226.512 151.203 228.579 151.203C234.014 151.256 233.931 162.231 232.479 173.808Z" fill="#161616"/>
<path d="M230.1 188.638C229.227 193.335 228.444 197.166 228.173 199.086C227.857 201.344 226.833 211.958 225.538 225.959" stroke="#F4A789" stroke-width="0.75" stroke-linecap="round" stroke-linejoin="round"/>
<path d="M232.479 173.809C228.948 177.685 225.772 183.594 223.656 192.221C222.871 195.494 221.535 198.609 219.704 201.434C218.667 203.015 217.452 204.472 216.084 205.778C213.115 208.608 209.412 210.549 205.395 211.378C203.608 211.75 201.784 211.91 199.96 211.852C194.886 211.702 189.421 209.971 183.851 206.395C180.976 204.516 178.3 202.35 175.864 199.929C171.393 195.518 167.178 192.251 163.068 190.106C153.809 185.295 144.904 186.086 134.26 192.236C134.192 191.762 134.125 191.295 134.057 190.843C131.934 176.488 136.601 169.699 143.474 167.154C144.084 166.925 144.708 166.731 145.341 166.575C151.859 164.934 162.413 161.599 174.351 158.023C176.805 157.271 179.32 156.518 181.879 155.765C182.88 155.479 183.994 155.193 185.214 154.915C185.703 155.261 186.207 155.607 186.719 155.953C189.775 157.899 193.083 159.419 196.55 160.47C197.408 160.741 198.289 160.982 199.2 161.223C200.156 160.146 200.961 159.137 201.646 158.212C202.934 156.526 203.975 154.665 204.74 152.686C204.8 152.513 204.86 152.348 204.905 152.197C206.268 152.084 207.668 151.979 209.106 151.889C210.897 151.768 212.749 151.67 214.646 151.58C217.195 151.459 219.835 151.374 222.565 151.324C224.542 151.279 226.564 151.256 228.632 151.256C234.014 151.256 233.931 162.231 232.479 173.809Z" fill="#161616"/>
<path d="M153.568 208.503C153.568 208.503 170.286 211.891 163.82 225.395C158.393 236.724 164.453 241.805 170.444 237.966C176.986 233.773 189.534 238.779 189.534 248.331C189.534 266.397 149.721 278.238 144.783 254.421C139.845 230.604 136.691 205.951 153.568 208.503Z" fill="#393939"/>
<path d="M219.704 201.435L220.51 202.353L206.75 224.973L206.14 231.628L183.249 208.533L183.889 206.426L185.71 200.404L168.698 183.467C168.834 181.961 172.665 165.551 174.487 158.197L178.183 157.52L186.742 155.961C189.798 157.907 193.105 159.427 196.572 160.478C197.431 160.749 198.311 160.99 199.222 161.231C200.178 160.154 200.984 159.145 201.669 158.22C202.956 156.534 203.998 154.673 204.762 152.694L209.128 151.897C210.92 151.776 212.772 151.678 214.669 151.588L223.701 182.669L215.354 196.489L219.704 201.435Z" fill="#F4A789"/>
<path d="M211.364 156.699C210.89 165.069 209.595 177.324 208.233 188.849C207.224 197.4 206.17 205.545 205.395 211.431C204.642 216.881 204.191 220.359 204.191 220.359C202.617 217.626 201.205 214.803 199.96 211.905C198.455 208.465 196.663 204.287 194.691 199.44C190.641 189.654 185.605 177.076 179.418 162.329L178.176 157.579L186.735 156.021C189.791 157.967 193.098 159.487 196.565 160.538C197.424 160.809 198.304 161.05 199.215 161.291C200.171 160.214 200.976 159.205 201.661 158.28C202.949 156.594 203.991 154.733 204.755 152.754L209.121 151.956L211.364 156.699Z" fill="white"/>
<path d="M205.831 161.961C205.831 161.961 205.567 163.361 205.123 165.107C204.37 168.028 203.121 171.927 201.691 171.927C200.26 171.927 197.724 169.737 195.804 167.953C194.479 166.718 193.493 165.694 193.493 165.694L196.549 160.538C197.407 160.809 198.288 161.05 199.199 161.291C200.155 160.214 200.96 159.206 201.645 158.28L205.831 161.961Z" fill="#A7CAF0"/>
<path d="M208.232 188.849C206.283 205.341 204.19 220.336 204.19 220.336C201.932 216.625 198.808 209.459 194.66 199.417C195.774 193.787 198.048 180.463 199.643 169.179L203.053 168.427C204.514 173.124 206.817 182.774 208.232 188.849Z" fill="#A7CAF0"/>
<path d="M199.184 161.245L195.789 167.952L193.787 171.927C193.787 171.927 181.743 166.198 174.456 158.227C174.406 158.167 174.363 158.101 174.328 158.031C173.44 156.021 176.925 145.814 179.146 149.149C180.807 151.413 182.844 153.376 185.168 154.952C188.63 157.408 192.466 159.289 196.527 160.523C197.393 160.786 198.303 161.035 199.184 161.245Z" fill="#683F1D"/>
<path d="M207.382 166.582L205.123 165.077L199.199 161.215C200.155 160.139 200.961 159.13 201.646 158.204C203.048 156.385 204.149 154.352 204.905 152.182C205.136 151.544 205.266 150.874 205.289 150.195C206.735 150.23 208.109 150.833 209.113 151.874C209.787 152.648 210.235 153.594 210.408 154.606C211.266 159.108 207.382 166.582 207.382 166.582Z" fill="#683F1D"/>
<path d="M199.75 301L206.141 231.657L206.751 225.003L204.191 220.336" stroke="#F4A789" stroke-width="0.75" stroke-linecap="round" stroke-linejoin="round"/>
<path d="M330.951 149.382C328.693 146.371 326.615 145.197 324.719 145.039C324.899 144.632 325.072 144.211 325.245 143.774C326.751 139.965 325.321 138.505 324.026 138.889C322.731 139.273 316.228 146.484 315.482 147.922C313.488 151.806 307.955 167.252 307.458 168.69C308.587 177.866 320.699 180.809 320.699 180.809C321.971 176.985 324.425 174.629 327.127 172.762C329.83 170.896 331.102 167.862 333.902 161.915C335.912 157.73 335.656 155.758 330.951 149.382Z" fill="#FEBD9D"/>
<path d="M330.952 149.382C328.694 146.371 326.617 145.197 324.72 145.039C324.9 144.632 325.073 144.211 325.247 143.774C326.752 139.965 325.322 138.505 324.027 138.889C322.732 139.273 316.229 146.484 315.483 147.922" stroke="#F4A789" stroke-width="0.75" stroke-linecap="round" stroke-linejoin="round"/>
<path d="M327.557 188.283C328.927 185.137 322.047 181.727 322.047 181.727L318.283 188.667C318.283 188.667 324.666 192.74 327.557 188.283Z" fill="#393939"/>
<path d="M303.221 173.695C305.893 169.623 308.038 166.288 308.038 166.288C312.645 172.485 318.255 177.869 324.636 182.216L321.226 188.637C317.136 188.057 313.288 186.353 310.109 183.715C306.93 181.077 304.545 177.608 303.221 173.695Z" fill="#683F1D"/>
<path d="M255.851 265.334C263.378 272.862 281.09 274.45 297.545 242.752C314 211.054 327.535 188.419 327.535 188.419C327.535 188.419 319.315 190.308 304.569 170.255C304.569 170.255 289.393 190.579 274.067 209.172C256.408 230.588 242.422 251.868 255.851 265.334Z" fill="#161616"/>
<path d="M304.569 170.248C304.569 170.248 289.394 190.572 274.068 209.165C268.697 215.526 263.724 222.213 259.179 229.188" stroke="#F4A789" stroke-width="0.75" stroke-linecap="round" stroke-linejoin="round"/>
<path d="M322.123 164C322.123 164 325.428 156.329 321.017 150.736C321.017 150.736 324.186 146.31 324.72 145.038" stroke="#F4A789" stroke-width="0.75" stroke-linecap="round" stroke-linejoin="round"/>
<path d="M322.123 151.158L357.013 70.9983" stroke="#DDDDDD" stroke-width="3" stroke-linecap="round" stroke-linejoin="round"/>
<path d="M337.712 154.35C340.633 155.855 335.514 163.383 332.872 162.856C329.492 162.133 334.611 152.784 337.712 154.35Z" fill="#FEBD9D" stroke="#F4A789" stroke-width="0.75" stroke-linecap="round" stroke-linejoin="round"/>
<path d="M335.303 148.644C338.916 150.533 332.503 160.424 329.236 159.687C325.969 158.949 331.464 146.634 335.303 148.644Z" fill="#FEBD9D" stroke="#F4A789" stroke-width="0.75" stroke-linecap="round" stroke-linejoin="round"/>
<path d="M333.046 145.136C336.478 147.432 329.116 157.933 325.917 156.894C322.718 155.855 329.387 142.72 333.046 145.136Z" fill="#FEBD9D" stroke="#F4A789" stroke-width="0.75" stroke-linecap="round" stroke-linejoin="round"/>
<path d="M330.787 137.571C334.603 139.144 329.454 150.864 326.12 150.511C322.785 150.157 326.707 135.892 330.787 137.571Z" fill="#FEBD9D" stroke="#F4A789" stroke-width="0.75" stroke-linecap="round" stroke-linejoin="round"/>
<path d="M162.773 199.846C162.69 200.546 162.592 201.261 162.472 201.976C162.404 202.368 162.344 202.729 162.269 203.165C162.193 203.602 162.118 203.971 162.028 204.377C161.892 205.07 161.742 205.77 161.569 206.47C161.305 207.562 161.034 208.728 160.763 209.895C160.665 210.294 160.575 210.7 160.485 211.107C160.204 212.326 159.918 213.581 159.627 214.871C159.529 215.3 159.431 215.744 159.333 216.188C159.273 216.444 159.22 216.707 159.16 216.941C159.024 217.52 158.896 218.1 158.768 218.695C157.948 222.398 157.075 226.32 156.149 230.325C155.923 231.311 155.69 232.304 155.456 233.298C155.389 233.599 155.313 233.908 155.238 234.209L154.741 236.294C154.741 236.452 154.666 236.618 154.621 236.783C154.44 237.536 154.26 238.289 154.071 239.041C153.928 239.636 153.778 240.223 153.627 240.818C153.477 241.413 153.379 241.812 153.243 242.323C152.874 243.746 152.491 245.176 152.114 246.584L151.663 248.232C150.639 251.883 149.57 255.429 148.433 258.771C148.283 259.215 148.125 259.659 147.974 260.088C147.59 261.18 147.221 262.249 146.8 263.287C146.642 263.701 146.484 264.115 146.318 264.522C145.736 265.982 145.141 267.375 144.534 268.7C144.21 269.392 143.887 270.07 143.555 270.717C143.473 270.89 143.382 271.063 143.292 271.229C142.976 271.831 142.66 272.411 142.336 272.968C142.012 273.525 141.719 274.022 141.41 274.518V274.571C141.079 275.075 140.755 275.565 140.417 276.031C139.74 276.975 138.984 277.858 138.158 278.674C138.045 278.794 137.925 278.907 137.804 279.012C137.124 279.663 136.366 280.227 135.546 280.691L135.11 280.909H135.057C134.876 280.995 134.696 281.07 134.515 281.135C134.327 281.21 134.139 281.271 133.943 281.331C120.047 285.366 112.181 277.499 110.894 265.756C110.785 264.674 110.734 263.585 110.743 262.497C110.743 253.622 113.363 238.07 116.607 223.911C118.451 215.864 120.499 208.269 122.381 202.601L123.284 199.861C128.553 183.827 132.987 168.772 143.48 167.124C153.725 165.521 161.945 175.291 163.052 190.075C163.284 193.333 163.191 196.606 162.773 199.846Z" fill="#161616"/>
<path d="M133.905 281.376C134.099 281.321 134.29 281.256 134.477 281.18C134.658 281.115 134.839 281.04 135.019 280.954H135.072C135.222 280.891 135.368 280.818 135.509 280.736C136.328 280.272 137.087 279.709 137.767 279.058C137.887 278.952 138 278.839 138.121 278.719C138.947 277.904 139.702 277.02 140.379 276.077C140.718 275.617 141.049 275.128 141.373 274.616V274.564C141.689 274.067 141.997 273.555 142.298 273.013C142.625 272.456 142.941 271.876 143.247 271.274C143.337 271.109 143.428 270.935 143.51 270.762C143.842 270.115 144.165 269.437 144.489 268.745C145.101 267.42 145.696 266.027 146.273 264.567C146.439 264.161 146.597 263.747 146.755 263.333C147.154 262.294 147.507 261.225 147.929 260.133C148.08 259.697 148.238 259.26 148.388 258.816C149.525 255.474 150.594 251.929 151.617 248.278C151.768 247.736 151.919 247.186 152.069 246.629C152.453 245.222 152.822 243.791 153.198 242.369C153.334 241.864 153.454 241.367 153.582 240.863C153.71 240.359 153.883 239.681 154.026 239.087C154.214 238.334 154.395 237.581 154.576 236.828C154.621 236.663 154.659 236.497 154.696 236.339C154.862 235.639 155.035 234.947 155.193 234.254C155.268 233.953 155.344 233.644 155.411 233.343C155.645 232.35 155.878 231.356 156.104 230.37C157.03 226.365 157.903 222.443 158.723 218.74C158.859 218.153 158.987 217.566 159.115 216.986C159.175 216.723 159.228 216.459 159.288 216.233L159.581 214.916C159.873 213.611 160.159 212.357 160.44 211.152C160.53 210.746 160.62 210.339 160.718 209.94C160.989 208.751 161.26 207.607 161.524 206.515C161.697 205.815 161.847 205.115 161.983 204.423C162.073 204.016 162.156 203.61 162.224 203.211C162.291 202.812 162.367 202.413 162.427 202.021C162.547 201.269 162.645 200.591 162.728 199.891C162.728 199.725 162.773 199.56 162.788 199.394" stroke="#F4A789" stroke-width="0.75" stroke-linecap="round" stroke-linejoin="round"/>
<path d="M163.036 190.143C153.778 185.333 144.873 186.123 134.229 192.273C130.38 194.545 126.709 197.104 123.246 199.929C128.515 183.895 132.949 168.84 143.442 167.192C153.687 165.558 161.907 175.329 163.036 190.143Z" fill="#161616"/>
<path d="M142.336 272.983C142.035 273.525 141.726 274.037 141.41 274.534V274.586C141.086 275.098 140.755 275.587 140.417 276.047C139.74 276.99 138.984 277.874 138.158 278.689C138.045 278.809 137.925 278.922 137.804 279.027C137.124 279.679 136.366 280.242 135.546 280.706L135.11 280.924H135.057C134.876 281.01 134.696 281.085 134.515 281.15C134.327 281.226 134.139 281.286 133.943 281.346C120.047 285.381 112.181 277.514 110.894 265.772C110.785 264.689 110.734 263.601 110.743 262.512C110.743 253.637 113.363 238.086 116.607 223.926C124.232 228.398 126.318 238.093 122.516 248.647C121.673 250.971 120.614 253.211 119.355 255.339C110.984 269.596 128.162 279.84 142.336 272.983Z" fill="#393939"/>
<path d="M200.448 100.333C203.828 98.255 208.096 97.9313 207.931 112.489L200.448 100.333Z" fill="#BF8228"/>
<path d="M203.76 99.2561C202.76 101.491 201.45 103.574 199.869 105.444L200.787 122.102L182.721 122.704L179.906 122.802C178.257 116.968 178.009 113.016 176.488 112.015C176.106 111.696 175.839 111.26 175.73 110.774C175.621 110.288 175.676 109.78 175.886 109.328C176.451 107.732 174.584 108.628 173.379 106.626C172.709 105.511 172.514 100.882 177.55 101.447C175.901 98.2249 178.453 95.6429 184.407 95.8688C183.045 95.2139 182.668 92.9707 185.973 92.8126C189.969 92.5755 193.976 92.5755 197.972 92.8126C199.526 92.9417 201.015 93.4935 202.277 94.4084C203.051 94.9164 203.623 95.6792 203.894 96.5645C204.165 97.4498 204.118 98.402 203.76 99.2561Z" fill="#BF8228"/>
<path d="M203.76 99.2563C202.76 101.491 201.449 103.574 199.868 105.444L200.786 122.102L182.72 122.704C183.308 113.099 181.968 109.87 181.328 106.897C180.688 103.923 181.892 100.002 185.679 100.875C189.465 101.748 195.713 99.5273 194.667 97.4572C193.914 95.9517 197.053 92.6773 202.277 94.3935C203.054 94.9021 203.629 95.6675 203.9 96.5561C204.171 97.4448 204.121 98.4004 203.76 99.2563Z" fill="#BF8228"/>
<path d="M184.399 95.8762L191.423 96.2526" stroke="#7F542D" stroke-width="0.75" stroke-linecap="round" stroke-linejoin="round"/>
<path d="M177.541 101.447L185.151 102.199" stroke="#7F542D" stroke-width="0.75" stroke-linecap="round" stroke-linejoin="round"/>
<path d="M204.837 140.612C193.342 142.871 183.82 126.536 183.82 126.536C178.468 127.62 176.488 122.471 178.076 119.008C178.245 118.635 178.452 118.279 178.694 117.947C179.129 117.279 179.755 116.756 180.49 116.446C181.225 116.136 182.036 116.053 182.819 116.208C184.316 116.59 185.653 117.439 186.635 118.632C187.719 119.821 188.976 118.474 188.088 116.374C187.2 114.274 186.304 107.04 187.395 105.557C188.487 104.074 198.408 102.034 201.381 101.883C201.574 101.871 201.768 101.871 201.961 101.883C202.098 101.905 202.229 101.957 202.345 102.034C202.97 102.504 203.507 103.08 203.933 103.735C204.295 104.217 204.686 104.789 205.055 105.421C206.112 107.161 207.072 108.958 207.93 110.804C208.239 111.458 208.548 112.128 208.841 112.806C209.135 113.483 209.376 114.048 209.594 114.673C210.023 115.719 210.407 116.758 210.746 117.774C211.017 118.579 211.258 119.37 211.461 120.123C211.461 120.168 211.461 120.213 211.498 120.258C213.478 127.665 214.57 138.685 204.837 140.612Z" fill="#FEBD9D"/>
<path d="M197.852 121.334C200.215 121.748 203.776 121.5 205.221 120.092C205.221 120.092 205.763 125.196 202.707 125.618C199.169 126.107 197.852 121.334 197.852 121.334Z" fill="white" stroke="#F4A789" stroke-width="0.75" stroke-linecap="round" stroke-linejoin="round"/>
<path d="M207.712 134.44C208.098 135.668 207.982 137 207.389 138.143" stroke="#F4A789" stroke-width="0.75" stroke-linecap="round" stroke-linejoin="round"/>
<path d="M183.827 126.535C184.791 126.277 185.695 125.829 186.484 125.218" stroke="#F4A789" stroke-width="0.75" stroke-linecap="round" stroke-linejoin="round"/>
<path d="M180.236 120.807C181.945 118.549 185.227 119.972 186.13 122.267" stroke="#F4A789" stroke-width="0.75" stroke-linecap="round" stroke-linejoin="round"/>
<path d="M185.672 121.394C182.127 118.73 180.885 124.744 185.025 123.886" stroke="#F4A789" stroke-width="0.75" stroke-linecap="round" stroke-linejoin="round"/>
<path d="M200.042 108.545C199.936 110.119 202.097 112.663 204.084 113.273C206.071 113.882 206.689 114.432 206.169 116.065" stroke="#F4A789" stroke-width="0.75" stroke-linecap="round" stroke-linejoin="round"/>
<path d="M190.459 108.613C190.76 109.863 197.565 108.402 196.646 106.076C195.728 103.75 189.955 106.588 190.459 108.613Z" fill="#BF8228"/>
<path d="M199.628 104.586C199.538 106.091 205.522 106.046 205.499 104.924C205.477 103.803 199.809 101.853 199.628 104.586Z" fill="#BF8228"/>
<path d="M195.977 112C195.977 112.21 196.039 112.415 196.155 112.59C196.272 112.764 196.438 112.9 196.632 112.981C196.826 113.061 197.039 113.082 197.245 113.041C197.451 113 197.64 112.899 197.788 112.751C197.937 112.602 198.038 112.413 198.079 112.207C198.12 112.001 198.099 111.788 198.019 111.594C197.938 111.4 197.802 111.234 197.628 111.118C197.453 111.001 197.248 110.939 197.038 110.939C196.756 110.939 196.486 111.051 196.287 111.25C196.088 111.449 195.977 111.719 195.977 112Z" fill="#683F1D"/>
<path d="M204.189 111.518C204.775 111.518 205.251 111.043 205.251 110.457C205.251 109.871 204.775 109.396 204.189 109.396C203.603 109.396 203.128 109.871 203.128 110.457C203.128 111.043 203.603 111.518 204.189 111.518Z" fill="#683F1D"/>
<path d="M196.421 120.235C195.766 121.703 193.643 122.192 191.671 121.319C189.699 120.446 188.66 118.541 189.277 117.074C189.894 115.606 192.055 115.124 194.027 115.997C195.999 116.87 197.068 118.767 196.421 120.235Z" fill="#F4A789"/>
<path d="M211.521 120.228C209.925 120.936 208.223 120.695 207.456 119.55C206.56 118.218 207.283 116.163 209.074 114.959C209.248 114.842 209.429 114.737 209.616 114.643C210.045 115.689 210.429 116.728 210.768 117.744C211.039 118.549 211.28 119.34 211.483 120.092C211.498 120.138 211.505 120.183 211.521 120.228Z" fill="#F4A789"/>
<path d="M232.454 241.24C240.516 240.201 243.324 238.38 246.448 237.183C249.572 235.986 251.913 236.144 252.274 237.935C252.274 237.935 255.39 236.543 256.437 237.1C257.995 237.935 257.016 240.864 252.282 242.896C247.547 244.928 233.546 250.679 230.949 249.897C228.352 249.114 226.38 244.115 232.454 241.24Z" fill="#FEBD9D" stroke="#F4A789" stroke-width="0.75" stroke-linecap="round" stroke-linejoin="round"/>
<path d="M211.928 265.742C211.928 265.742 230.415 257.371 234.954 254.827C239.493 252.283 253.494 245.847 254.849 243.588C256.204 241.33 253.999 241.112 251.289 242.083C248.579 243.054 237.89 246.645 236.866 246.599C235.843 246.554 230.092 246.599 230.092 246.599C230.558 242.083 238.041 238.989 239.125 236.814C240.329 234.473 236.919 234.556 234.766 235.195C232.613 235.835 223.904 238.869 221.751 240.066C219.598 241.262 217.679 244.002 213.192 244.672L211.928 265.742Z" fill="#FEBD9D"/>
<path d="M247.698 248.248C251.266 246.351 254.254 244.575 254.849 243.596C256.204 241.338 253.998 241.12 251.288 242.091C248.578 243.062 237.889 246.652 236.866 246.607C235.842 246.562 230.091 246.607 230.091 246.607C230.558 242.091 238.04 238.997 239.124 236.821C240.328 234.48 236.918 234.563 234.765 235.203C233.508 235.579 229.993 236.769 226.869 237.935" stroke="#F4A789" stroke-width="0.75" stroke-linecap="round" stroke-linejoin="round"/>
<path d="M237.656 243.589C242.549 242.015 250.807 238.681 252.275 237.958" stroke="#F4A789" stroke-width="0.75" stroke-linecap="round" stroke-linejoin="round"/>
<path d="M230.091 246.599C229.992 247.165 229.992 247.743 230.091 248.308" stroke="#F4A789" stroke-width="0.75" stroke-linecap="round" stroke-linejoin="round"/>
<path d="M204.936 244.703H213.223V268.459L205.794 269.89L204.936 244.703Z" fill="#683F1D"/>
<path d="M208.232 271.741C208.435 271.937 193.576 275.452 176.187 278.938C157.135 282.754 135.05 286.54 126.423 285.885C114.379 284.975 108.794 272.66 110.706 262.55C111.317 258.866 113.139 255.492 115.885 252.96C117.866 251.226 120.087 249.786 122.479 248.685C125.128 247.465 127.905 246.546 130.759 245.945H130.834L131.783 245.749L133.04 245.516C133.567 245.425 134.094 245.342 134.628 245.267L134.967 245.222C135.29 245.169 135.607 245.132 135.93 245.094L136.969 244.974H137.014L138.015 244.876C138.362 244.838 138.715 244.808 139.062 244.785L140.101 244.71C140.801 244.657 141.493 244.62 142.186 244.597H142.938H143.375L145.362 244.552H146.288C147.086 244.552 147.876 244.552 148.652 244.552H150.014H150.09L152.679 244.612C154.184 244.612 155.645 244.688 157.015 244.725H158.52H161.622C173.131 244.59 206.726 243.619 206.726 243.619C206.726 243.619 207.81 271.327 208.232 271.741Z" fill="#161616"/>
<path d="M206.749 243.589C206.749 243.589 173.153 244.56 161.644 244.703C153.981 244.793 141.756 243.521 130.781 245.93" stroke="#F4A789" stroke-width="0.75" stroke-linecap="round" stroke-linejoin="round"/>
<path d="M176.187 278.968C157.135 282.784 135.05 286.57 126.423 285.915C114.379 285.005 108.794 272.69 110.706 262.58C111.317 258.896 113.139 255.521 115.885 252.99C117.866 251.256 120.087 249.816 122.479 248.715C121.635 251.039 120.577 253.279 119.317 255.407C110.969 269.641 128.162 279.886 142.336 273.028C142.905 272.763 143.46 272.469 144 272.148C155.697 265.177 170.858 274.97 176.187 278.968Z" fill="#393939"/>
<path d="M207.208 272.088C203.564 273.074 190.768 276.017 176.187 278.938C157.135 282.754 135.049 286.54 126.423 285.886" stroke="#F4A789" stroke-width="0.75" stroke-linecap="round" stroke-linejoin="round"/>
</svg>
