<svg width="41" height="41" viewBox="0 0 41 41" fill="none" xmlns="http://www.w3.org/2000/svg">
<g clip-path="url(#clip0_213_2121)">
<path d="M15.9508 20.5C19.1675 20.5 21.7842 17.8833 21.7842 14.6667C21.7842 11.45 19.1675 8.83334 15.9508 8.83334C12.7342 8.83334 10.1175 11.45 10.1175 14.6667C10.1175 17.8833 12.7342 20.5 15.9508 20.5ZM15.9508 12.1667C17.3342 12.1667 18.4508 13.2833 18.4508 14.6667C18.4508 16.05 17.3342 17.1667 15.9508 17.1667C14.5675 17.1667 13.4508 16.05 13.4508 14.6667C13.4508 13.2833 14.5675 12.1667 15.9508 12.1667ZM15.9508 23.4167C12.0508 23.4167 4.28418 25.3667 4.28418 29.25V32.1667H27.6175V29.25C27.6175 25.3667 19.8508 23.4167 15.9508 23.4167ZM8.18418 28.8333C9.58418 27.8667 12.9675 26.75 15.9508 26.75C18.9342 26.75 22.3175 27.8667 23.7175 28.8333H8.18418ZM27.6842 23.5167C29.6175 24.9167 30.9508 26.7833 30.9508 29.25V32.1667H37.6175V29.25C37.6175 25.8833 31.7842 23.9667 27.6842 23.5167ZM25.9508 20.5C29.1675 20.5 31.7842 17.8833 31.7842 14.6667C31.7842 11.45 29.1675 8.83334 25.9508 8.83334C25.0508 8.83334 24.2175 9.05001 23.4508 9.41668C24.5008 10.9 25.1175 12.7167 25.1175 14.6667C25.1175 16.6167 24.5008 18.4333 23.4508 19.9167C24.2175 20.2833 25.0508 20.5 25.9508 20.5Z" fill="white"/>
</g>
<defs>
<clipPath id="clip0_213_2121">
<rect width="40" height="40" fill="white" transform="translate(0.951172 0.5)"/>
</clipPath>
</defs>
</svg>
