<svg width="24" height="24" viewBox="0 0 24 24" fill="none" xmlns="http://www.w3.org/2000/svg">
<g clip-path="url(#clip0_1_157)">
<path d="M8.62203 10.4277C9.10231 8.94939 8.29479 7.36412 6.81626 6.88375C5.33806 6.40333 3.75275 7.21094 3.27232 8.68947C2.792 10.1678 3.59951 11.753 5.07804 12.2334C6.54964 12.7116 8.1417 11.9058 8.62203 10.4277ZM5.51262 10.896C4.77345 10.6558 4.36957 9.86331 4.60976 9.12404C4.84971 8.38562 5.64185 7.98081 6.38173 8.22119C7.1209 8.46133 7.52482 9.25389 7.28464 9.99315C7.04501 10.7306 6.2501 11.1356 5.51262 10.896Z" fill="black"/>
<path d="M9.64367 13.5721C8.38616 12.6584 6.62891 12.9367 5.71517 14.1943C4.80153 15.4518 5.07964 17.2091 6.33739 18.1228C7.59992 19.0401 9.36013 18.7473 10.2659 17.5006C11.1795 16.2431 10.9014 14.4859 9.64367 13.5721ZM9.12824 16.674C8.67242 17.3013 7.79131 17.4409 7.16398 16.9851C6.5352 16.5283 6.39603 15.6498 6.85288 15.0209C7.30963 14.3923 8.1883 14.253 8.81713 14.7098C9.44586 15.1666 9.58508 16.0453 9.12824 16.674Z" fill="black"/>
<path d="M12.9499 13.5721C11.6924 14.4857 11.414 16.2429 12.3277 17.5006C13.2367 18.7517 14.9981 19.0369 16.2562 18.1229C17.5137 17.2093 17.7922 15.4521 16.8784 14.1944C15.9648 12.9368 14.2077 12.6584 12.9499 13.5721ZM15.4296 16.9852C14.8023 17.441 13.9212 17.3014 13.4654 16.6741C13.0086 16.0454 13.1477 15.1667 13.7765 14.7098C14.4052 14.253 15.2839 14.3921 15.7408 15.021C16.1976 15.6497 16.0585 16.5283 15.4296 16.9852Z" fill="black"/>
<path d="M13.9717 10.4277C14.4516 11.9049 16.0429 12.7121 17.5156 12.2334C18.9939 11.7531 19.8018 10.168 19.3213 8.68949C18.841 7.21115 17.2559 6.4034 15.7774 6.88377C14.2991 7.3641 13.4913 8.94918 13.9717 10.4277ZM16.212 8.22116C16.9513 7.98098 17.7438 8.38485 17.9839 9.12402C18.2241 9.8632 17.8204 10.6558 17.0811 10.896C16.3436 11.1355 15.5487 10.7306 15.3091 9.99313C15.0689 9.25401 15.4727 8.4614 16.212 8.22116Z" fill="black"/>
<path d="M11.2968 8.48438C12.8476 8.48438 14.1093 7.22269 14.1093 5.67188C14.1093 4.12106 12.8476 2.85938 11.2968 2.85938C9.74594 2.85938 8.48425 4.12106 8.48425 5.67188C8.48425 7.22269 9.74594 8.48438 11.2968 8.48438ZM11.2968 4.26562C12.0722 4.26562 12.703 4.89647 12.703 5.67188C12.703 6.44728 12.0722 7.07812 11.2968 7.07812C10.5213 7.07812 9.8905 6.44728 9.8905 5.67188C9.8905 4.89647 10.5213 4.26562 11.2968 4.26562Z" fill="black"/>
<path d="M11.2968 11.9999C11.6851 11.9999 11.9999 11.6851 11.9999 11.2968C11.9999 10.9085 11.6851 10.5937 11.2968 10.5937C10.9084 10.5937 10.5936 10.9085 10.5936 11.2968C10.5936 11.6851 10.9084 11.9999 11.2968 11.9999Z" fill="black"/>
<path d="M23.6112 22.6678C21.6741 21.6993 19.4893 21.1873 17.2929 21.1873H16.7273C20.194 19.2604 22.5467 15.5495 22.5467 11.2968C22.5467 5.06771 17.5 0 11.2968 0C5.07802 0 0 5.07844 0 11.2968C0 17.5156 5.07844 22.5936 11.2968 22.5936H17.2929C19.2721 22.5936 21.2395 23.0542 22.9823 23.9256C23.3304 24.0997 23.7523 23.9577 23.9256 23.6112C24.0992 23.2638 23.9585 22.8415 23.6112 22.6678ZM1.40624 11.2968C1.40624 5.84311 5.84311 1.40624 11.2968 1.40624C16.7246 1.40624 21.1405 5.84311 21.1405 11.2968C21.1405 16.7505 16.7246 21.1873 11.2968 21.1873C5.84316 21.1873 1.40624 16.7505 1.40624 11.2968Z" fill="black"/>
</g>
<defs>
<clipPath id="clip0_1_157">
<rect width="24" height="24" fill="white"/>
</clipPath>
</defs>
</svg>
