<svg width="40" height="41" viewBox="0 0 40 41" fill="none" xmlns="http://www.w3.org/2000/svg">
<g clip-path="url(#clip0_213_2132)">
<path d="M19.9997 3.83337C10.7997 3.83337 3.33301 11.3 3.33301 20.5C3.33301 29.7 10.7997 37.1667 19.9997 37.1667C29.1997 37.1667 36.6663 29.7 36.6663 20.5C36.6663 11.3 29.1997 3.83337 19.9997 3.83337ZM19.9997 33.8334C12.6497 33.8334 6.66634 27.85 6.66634 20.5C6.66634 13.15 12.6497 7.16671 19.9997 7.16671C27.3497 7.16671 33.333 13.15 33.333 20.5C33.333 27.85 27.3497 33.8334 19.9997 33.8334ZM20.5163 19.0667C17.5663 18.3167 16.6163 17.5 16.6163 16.2834C16.6163 14.8834 17.933 13.9 20.1163 13.9C22.4163 13.9 23.283 15 23.3497 16.6334H26.1997C26.1163 14.4 24.7497 12.35 22.0497 11.6834V8.83337H18.1663V11.65C15.6497 12.1834 13.633 13.8167 13.633 16.3334C13.633 19.3167 16.1163 20.8167 19.733 21.6834C22.983 22.45 23.633 23.6 23.633 24.8C23.633 25.6834 22.983 27.1167 20.133 27.1167C17.4663 27.1167 16.4163 25.9167 16.2663 24.3834H13.3997C13.5663 27.2167 15.6663 28.8167 18.1663 29.3334V32.1667H22.0663V29.3834C24.5997 28.9 26.5997 27.45 26.6163 24.7667C26.5997 21.1 23.4497 19.8334 20.5163 19.0667Z" fill="white"/>
</g>
<defs>
<clipPath id="clip0_213_2132">
<rect width="40" height="40" fill="white" transform="translate(0 0.5)"/>
</clipPath>
</defs>
</svg>
