<svg width="40" height="40" viewBox="0 0 40 40" fill="none" xmlns="http://www.w3.org/2000/svg">
<rect width="40" height="40" rx="20" fill="black" fill-opacity="0.5"/>
<path d="M14.8721 26.8377L20.4276 23.4189V16.5813L14.8721 13.1625V26.8377ZM20.4276 23.4189L25.9832 20.0001L20.4276 16.5813V23.4189Z" fill="white"/>
<path d="M13.8721 26.8377V28.6273L15.3962 27.6893L19.4276 25.2085L20.9517 24.2705L21.4276 23.9777L26.5073 20.8517L27.8912 20.0001L26.5073 19.1484L21.4276 16.0225L20.9517 15.7296L19.4276 14.7917L15.3962 12.3108L13.8721 11.3729V13.1625V26.8377Z" stroke="black" stroke-opacity="0.15" stroke-width="2"/>
<path d="M14.8721 26.8377L20.4276 23.4189V16.5813L14.8721 13.1625V26.8377ZM20.4276 23.4189L25.9832 20.0001L20.4276 16.5813V23.4189Z" fill="white"/>
<path d="M13.8721 26.8377V28.6273L15.3962 27.6893L19.4276 25.2085L20.9517 24.2705L21.4276 23.9777L26.5073 20.8517L27.8912 20.0001L26.5073 19.1484L21.4276 16.0225L20.9517 15.7296L19.4276 14.7917L15.3962 12.3108L13.8721 11.3729V13.1625V26.8377Z" stroke="black" stroke-opacity="0.15" stroke-width="2"/>
</svg>
