<svg width="467" height="252" viewBox="0 0 467 252" fill="none" xmlns="http://www.w3.org/2000/svg">
<path d="M337.623 126.852H176.632C174.788 126.852 173.294 128.346 173.294 130.19V130.486C173.294 132.33 174.788 133.824 176.632 133.824H337.623C339.466 133.824 340.961 132.33 340.961 130.486V130.19C340.961 128.346 339.466 126.852 337.623 126.852Z" stroke="#DDDDDD" stroke-width="2" stroke-miterlimit="10"/>
<path d="M336.478 8.46893H177.777C175.301 8.46893 173.294 10.476 173.294 12.9518V13.3587C173.294 15.8345 175.301 17.8416 177.777 17.8416H336.478C338.953 17.8416 340.961 15.8345 340.961 13.3587V12.9518C340.961 10.476 338.953 8.46893 336.478 8.46893Z" stroke="#DDDDDD" stroke-width="2" stroke-miterlimit="10"/>
<path d="M334.8 17.8416H179.444V126.851H334.8V17.8416Z" stroke="#DDDDDD" stroke-width="2" stroke-miterlimit="10"/>
<path d="M323.306 49.6705L305.802 49.2981C305.802 49.2981 310.126 38.6357 307.312 30.8976L324.14 30.539C324.924 32.6884 325.427 34.93 325.637 37.2081C325.995 40.8565 325.713 45.4497 323.306 49.6705Z" stroke="#DDDDDD" stroke-linecap="round" stroke-linejoin="round"/>
<path d="M311.607 36.6353H322.642" stroke="#DDDDDD" stroke-linecap="round" stroke-linejoin="round"/>
<path d="M311.062 43.0078H322.097" stroke="#DDDDDD" stroke-linecap="round" stroke-linejoin="round"/>
<path d="M313.532 39.7319L322.215 39.9044" stroke="#DDDDDD" stroke-linecap="round" stroke-linejoin="round"/>
<path d="M191.198 33.8976H208.302C208.302 33.8976 207.364 47.1739 212.674 51.705L193.701 52.174C193.701 52.174 189.949 45.9256 191.198 33.8976Z" stroke="#DDDDDD" stroke-linecap="round" stroke-linejoin="round"/>
<path d="M202.494 39.4217H205.267" stroke="#DDDDDD" stroke-linecap="round" stroke-linejoin="round"/>
<path d="M194.253 39.4217H201.108" stroke="#DDDDDD" stroke-linecap="round" stroke-linejoin="round"/>
<path d="M194.806 43.4354H201.813" stroke="#DDDDDD" stroke-linecap="round" stroke-linejoin="round"/>
<path d="M195.521 46.8012C195.659 46.6632 205.942 46.5529 205.942 46.5529" stroke="#DDDDDD" stroke-linecap="round" stroke-linejoin="round"/>
<path d="M218.543 50.1736H234.544C234.544 50.1736 233.426 63.6705 237.702 68.4775H220.916C217.841 62.8949 216.994 56.3555 218.543 50.1736Z" fill="#DDDDDD" stroke="#DDDDDD" stroke-linecap="round" stroke-linejoin="round"/>
<path d="M222.102 59.56H231.329" stroke="#F9F9F9" stroke-linecap="round" stroke-linejoin="round"/>
<path d="M222.557 63.0913H227.902" stroke="#F9F9F9" stroke-linecap="round" stroke-linejoin="round"/>
<path d="M222.102 54.7327L230.322 55.1258" stroke="#F9F9F9" stroke-linecap="round" stroke-linejoin="round"/>
<path d="M219.985 92.6092L232.089 92.1471L240.455 68.4775L268.587 65.7602L282.063 43.4354" stroke="#DDDDDD" stroke-width="2" stroke-linecap="round" stroke-linejoin="round"/>
<path d="M282.78 42.208L274.394 48.1944L281.387 52.4221L282.78 42.208Z" fill="#DDDDDD" stroke="#DDDDDD" stroke-width="2" stroke-linecap="round" stroke-linejoin="round"/>
<path d="M135.347 48.7668C148.538 48.7668 159.231 38.0738 159.231 24.8834C159.231 11.693 148.538 1 135.347 1C122.157 1 111.464 11.693 111.464 24.8834C111.464 38.0738 122.157 48.7668 135.347 48.7668Z" stroke="#DDDDDD" stroke-width="2" stroke-linecap="round" stroke-linejoin="round"/>
<path d="M123.83 12.4141L135.348 24.8834L144.934 19.6695" stroke="#DDDDDD" stroke-width="2" stroke-linecap="round" stroke-linejoin="round"/>
<path d="M315.311 208.357H274.745C270.547 208.357 267.145 211.76 267.145 215.958V216.647C267.145 220.845 270.547 224.247 274.745 224.247H315.311C319.509 224.247 322.912 220.845 322.912 216.647V215.958C322.912 211.76 319.509 208.357 315.311 208.357Z" stroke="#DDDDDD" stroke-miterlimit="10"/>
<path d="M153.818 94.5265H131.217C125.744 94.5265 121.307 98.9636 121.307 104.437V105.334C121.307 110.807 125.744 115.244 131.217 115.244H153.818C159.291 115.244 163.728 110.807 163.728 105.334V104.437C163.728 98.9636 159.291 94.5265 153.818 94.5265Z" stroke="#DDDDDD" stroke-miterlimit="10"/>
<path d="M411.659 30.2978H379.217C377.312 30.2978 375.769 31.8416 375.769 33.7461V34.0565C375.769 35.961 377.312 37.5048 379.217 37.5048H411.659C413.564 37.5048 415.108 35.961 415.108 34.0565V33.7461C415.108 31.8416 413.564 30.2978 411.659 30.2978Z" stroke="#DDDDDD" stroke-miterlimit="10"/>
<path d="M80.9119 18.7521H40.3453C36.1478 18.7521 32.7451 22.1549 32.7451 26.3523V27.042C32.7451 31.2395 36.1478 34.6422 40.3453 34.6422H80.9119C85.1094 34.6422 88.5121 31.2395 88.5121 27.042V26.3523C88.5121 22.1549 85.1094 18.7521 80.9119 18.7521Z" stroke="#DDDDDD" stroke-miterlimit="10"/>
<path d="M46.8506 138.603L69.8788 131.175L86.6862 141.134L89.8518 240.765H59.5061L46.8506 138.603Z" fill="#161616"/>
<path d="M67.4368 237.516H13.4491L16.0699 163.032C15.28 161.401 14.589 159.724 14.0008 158.011C7.71102 139.39 20.7734 131.176 29.4771 129.1C35.4359 127.686 44.0154 127.948 48.9949 128.162C50.5053 128.224 51.6846 128.279 52.3605 128.279C56.3604 141.218 59.5846 154.384 62.0159 167.708C62.37 169.588 62.6964 171.446 62.9953 173.28C62.9983 173.296 62.9983 173.313 62.9953 173.328C69.3472 211.019 67.4368 237.516 67.4368 237.516Z" fill="#A7CAF0"/>
<path d="M116.776 211.819C108.355 216.751 97.065 213.695 97.065 213.695L95.8098 238.613L84.7751 239.303C84.7751 239.303 86.5544 217.192 85.8647 196.04C85.6096 188.57 84.8647 180.336 83.8509 172.149C83.5888 170.08 83.3198 168.046 83.0302 166.011C81.2094 153.176 78.8232 140.962 76.7266 132.603C78.7 131.472 80.8387 130.658 83.0647 130.19C88.0821 129.195 93.2793 129.654 98.0444 131.514C98.5272 134.569 99.2099 140.769 99.8927 147.694C101.272 161.666 102.7 178.598 102.7 178.598C104.169 157.701 124.362 156.577 126.673 188.191C126.811 203.102 123.204 208.068 116.776 211.819Z" fill="#A7CAF0"/>
<path d="M116.362 187.059L91.4443 192.963L94.141 149.045L94.7203 139.644L98.0514 131.513C98.0514 131.513 110.01 138.534 112.583 145.9C113.306 148.45 113.797 151.061 114.052 153.7C115.624 166.217 116.362 187.059 116.362 187.059Z" fill="#A7CAF0"/>
<path d="M114.052 153.707C110.362 151.403 104.837 148.431 99.8994 147.7L94.1406 149.045L94.7199 139.644L98.0511 131.513C98.0511 131.513 110.01 138.534 112.583 145.9C113.306 148.453 113.797 151.066 114.052 153.707Z" fill="#A7CAF0"/>
<path d="M52.3812 128.279C56.3811 141.218 59.6053 154.384 62.0366 167.708C59.5052 165.996 57.2828 163.867 55.464 161.411C41.1395 142.79 25.0563 145.121 14.0008 158.011C7.71102 139.39 20.7734 131.176 29.4771 129.1C35.4359 127.686 44.0154 127.948 48.9949 128.162C50.526 128.224 51.7053 128.279 52.3812 128.279Z" fill="#A7CAF0"/>
<path d="M99.9006 147.7C98.0316 148.7 96.6799 149.914 96.0798 151.149C94.5212 154.418 89.5693 161.404 83.0243 165.99C81.2036 153.156 78.8173 140.941 76.7207 132.583C78.6941 131.451 80.8328 130.637 83.0588 130.169C88.0823 129.172 93.2863 129.639 98.0523 131.514C98.5351 134.576 99.2179 140.776 99.9006 147.7Z" fill="#A7CAF0"/>
<path d="M63.0364 173.28C61.2088 164.618 48.774 152.39 48.774 152.39L51.4982 145.01L46.0566 142.452L49.0153 128.161C50.5257 128.224 51.7051 128.279 52.3809 128.279C56.9489 143.02 60.509 158.055 63.0364 173.28Z" fill="#83ADDF"/>
<path d="M91.4441 150.721C88.0108 157.51 85.4612 164.712 83.8577 172.149C82.2273 158.844 79.8488 145.641 76.7334 132.603C78.7068 131.472 80.8455 130.657 83.0715 130.189L90.4579 141.858L85.9337 147.038L91.4441 150.721Z" fill="#83ADDF"/>
<path d="M55.8087 124.3C54.4714 125.453 53.3097 126.796 52.3604 128.286L53.5742 145.01C53.5742 145.01 59.0916 137.424 68.3332 137.969L55.8087 124.3Z" fill="white"/>
<path d="M75.6853 126.685C75.6853 126.837 72.6162 137.81 72.6162 137.81C72.6162 137.81 78.6371 140.506 82.7889 145.044C82.7889 145.044 80.7682 132.754 80.0302 130.699C79.2923 128.644 75.6853 126.685 75.6853 126.685Z" fill="white"/>
<path d="M97.1006 154.769C97.3627 162.252 97.4316 206.419 97.1006 213.695" stroke="#83ADDF" stroke-width="0.75" stroke-linecap="round" stroke-linejoin="round"/>
<path d="M78.8166 115.858L77.1614 119.12L76.8303 119.81C76.8303 119.81 76.2234 122.865 75.8579 125.437C75.6756 126.485 75.5879 127.547 75.5958 128.61C75.7544 130.334 76.8303 139.459 67.9473 138.548C59.0643 137.638 55.5332 126.058 55.5332 126.058C55.8642 123.182 59.1126 108.658 59.1126 108.658C59.1126 108.658 62.5058 100.554 72.7613 101.995C79.658 102.961 79.12 110.672 78.0235 115.623L78.8166 115.858Z" fill="#FEBD9D"/>
<path d="M78.8164 115.858L77.1611 119.12L76.8301 119.809C76.8301 119.809 76.2232 122.865 75.8577 125.437C71.4438 124.285 65.8781 120.416 66.8091 112.085L78.0301 115.623L78.8164 115.858Z" fill="#F4A789"/>
<path d="M58.6644 102.885C49.1676 94.9262 50.9952 84.4777 58.6644 86.1605C58.6644 86.1605 55.816 82.0638 61.5127 76.9533C64.8439 73.9601 70.5475 73.236 74.4441 76.1464C76.9959 78.0637 81.9616 75.9878 82.8443 74.4705C87.5617 78.9947 85.4237 86.9191 79.2925 87.6501L58.6644 102.885Z" fill="#BF8228"/>
<path d="M59.6575 102.602C54.3677 97.0851 54.1401 89.9952 58.9333 87.34C58.9333 87.34 57.9609 79.3881 67.2646 78.5466C77.3614 77.6363 80.4994 85.2158 76.3407 90.8504L59.6575 102.602Z" fill="#BF8228"/>
<path d="M65.6855 88.5951C66.3752 82.9743 70.3064 79.6707 74.472 80.1328C78.6376 80.5949 82.1274 79.3535 82.6239 77.05" stroke="#7F542D" stroke-width="0.75" stroke-linecap="round" stroke-linejoin="round"/>
<path d="M71.9609 84.1264C72.3265 84.1264 82.0233 87.6989 83.7819 80.2918" stroke="#7F542D" stroke-width="0.75" stroke-linecap="round" stroke-linejoin="round"/>
<path d="M58.2783 100.126C58.2783 99.9673 61.575 95.2982 60.9956 90.6843" stroke="#7F542D" stroke-width="0.75" stroke-linecap="round" stroke-linejoin="round"/>
<path d="M58.389 102.443C56.0924 99.1123 53.3682 90.8018 58.6649 88.8155" stroke="#7F542D" stroke-width="0.75" stroke-linecap="round" stroke-linejoin="round"/>
<path d="M58.6641 86.1609C59.183 86.137 59.7007 86.2307 60.1784 86.4349C60.6561 86.6391 61.0815 86.9486 61.4228 87.3403" stroke="#7F542D" stroke-width="0.75" stroke-linecap="round" stroke-linejoin="round"/>
<path d="M61.0371 83.6292C61.6509 78.3601 69.4304 74.3807 74.2582 76.0428" stroke="#7F542D" stroke-width="0.75" stroke-linecap="round" stroke-linejoin="round"/>
<path d="M84.135 105.416L83.8385 105.996L78.8176 115.858L77.1624 119.12L76.8245 119.81L68.2656 112.548L62.7482 107.844C61.571 108.225 60.3613 108.497 59.1344 108.658C58.0995 108.627 57.1026 108.261 56.2931 107.616C55.4836 106.971 54.9052 106.08 54.6446 105.078C53.4652 101.258 56.3688 98.6437 59.4723 99.1954C59.9117 99.266 60.3389 99.3984 60.7413 99.5885C64.969 96.6988 64.9552 91.0228 62.6793 89.3262C61.8586 84.8088 71.6795 80.0087 73.2865 83.4916C75.5417 88.3951 79.2935 87.6296 79.2935 87.6296C80.8143 91.1721 82.0594 94.8268 83.0177 98.5609C83.0729 98.7816 83.1281 99.0092 83.1764 99.2161C83.7125 101.244 84.0338 103.322 84.135 105.416Z" fill="#FEBD9D"/>
<path d="M70.1882 112.368C73.2316 112.368 75.6987 109.901 75.6987 106.857C75.6987 103.814 73.2316 101.347 70.1882 101.347C67.1449 101.347 64.6777 103.814 64.6777 106.857C64.6777 109.901 67.1449 112.368 70.1882 112.368Z" fill="#F4A789"/>
<path d="M84.1344 105.416L83.8378 105.995C83.2576 105.591 82.7704 105.067 82.4091 104.46C82.0478 103.852 81.8207 103.174 81.7429 102.471C81.6652 101.768 81.7387 101.057 81.9585 100.385C82.1782 99.7126 82.5392 99.0953 83.0171 98.5742C83.0723 98.7949 83.1275 99.0225 83.1757 99.2294C83.7109 101.252 84.0322 103.326 84.1344 105.416Z" fill="#F4A789"/>
<path d="M78.8176 115.858L77.1624 119.12L76.8245 119.809L68.2656 112.547L78.8176 115.858Z" fill="#F4A789"/>
<path d="M73.5414 98.2505C74.0518 98.2505 74.4655 97.8368 74.4655 97.3264C74.4655 96.816 74.0518 96.4022 73.5414 96.4022C73.031 96.4022 72.6172 96.816 72.6172 97.3264C72.6172 97.8368 73.031 98.2505 73.5414 98.2505Z" fill="#683F1D"/>
<path d="M79.9544 96.395C80.4648 96.395 80.8786 95.9812 80.8786 95.4708C80.8786 94.9604 80.4648 94.5467 79.9544 94.5467C79.444 94.5467 79.0303 94.9604 79.0303 95.4708C79.0303 95.9812 79.444 96.395 79.9544 96.395Z" fill="#683F1D"/>
<path d="M75.8848 88.3745C75.8089 89.8711 80.0228 89.6366 80.3056 89.1883C80.6918 88.5952 76.0158 85.8779 75.8848 88.3745Z" fill="#BF8228"/>
<path d="M67.4789 92.3332C67.2168 93.9815 71.6721 91.4711 71.9273 90.5124C71.9735 90.3078 71.9724 90.0952 71.9242 89.8911C71.8759 89.6869 71.7816 89.4964 71.6486 89.3341C71.5156 89.1719 71.3473 89.0421 71.1566 88.9547C70.9659 88.8672 70.7577 88.8245 70.5479 88.8296C69.5755 88.9538 67.6582 91.1952 67.4789 92.3332Z" fill="#BF8228"/>
<path d="M87.2444 110.34C87.2386 111.153 87.1461 111.962 86.9685 112.754C85.2512 120.196 76.2786 122.734 68.2163 115.513C61.4092 109.423 59.4712 99.2091 59.4712 99.2091C59.4692 99.1954 59.4692 99.1815 59.4712 99.1678C59.9106 99.2384 60.3378 99.3707 60.7402 99.5609C60.7402 99.5609 62.4782 104.23 65.9748 107.071C67.5197 108.334 68.9611 109.003 70.3888 109.016C72.1819 109.016 73.9544 108.016 75.9061 105.844C79.3545 101.954 81.9615 102.306 82.9201 102.526C83.1977 101.444 83.2887 100.322 83.1891 99.2091C84.6167 100.844 87.2996 105.54 87.2444 110.34Z" fill="#BF8228"/>
<path d="M76.3203 92.3331C76.9203 96.7815 78.4721 97.6022 80.6239 98.2574C81.9618 98.6712 80.6239 101.223 80.6239 101.223" stroke="#F4A789" stroke-width="0.75" stroke-linecap="round" stroke-linejoin="round"/>
<path d="M82.5269 104.271C82.1269 108.989 77.4095 109.333 76.4854 106.802C76.4854 106.802 80.4717 106.147 82.5269 104.271Z" fill="white" stroke="#F4A789" stroke-width="0.75" stroke-linecap="round" stroke-linejoin="round"/>
<path d="M59.1064 108.644C59.9148 108.602 60.7101 108.422 61.4582 108.113" stroke="#F4A789" stroke-width="0.75" stroke-linecap="round" stroke-linejoin="round"/>
<path d="M56.8564 103.334C57.4013 102.485 59.8979 101.396 60.96 104.271" stroke="#F4A789" stroke-width="0.75" stroke-linecap="round" stroke-linejoin="round"/>
<path d="M60.4774 103.34C58.0774 103.002 57.9394 106.657 60.8637 105.961" stroke="#F4A789" stroke-width="0.75" stroke-linecap="round" stroke-linejoin="round"/>
<path d="M74.6751 94.6235L68.5088 96.7551C68.0337 96.9194 67.7816 97.4378 67.9459 97.913L69.0117 100.996C69.176 101.471 69.6943 101.723 70.1695 101.559L76.3358 99.4274C76.811 99.2631 77.063 98.7448 76.8988 98.2696L75.8329 95.1864C75.6687 94.7113 75.1503 94.4592 74.6751 94.6235Z" stroke="#683F1D" stroke-linecap="round" stroke-linejoin="round"/>
<path d="M79.3613 93.2432L84.7615 91.3742C84.9791 91.2994 85.2176 91.3141 85.4245 91.4149C85.6313 91.5158 85.7897 91.6946 85.8649 91.9121L86.9546 95.0777C87.0297 95.2945 87.016 95.5322 86.9165 95.7389C86.817 95.9456 86.6398 96.1046 86.4236 96.1812L82.0166 97.6985" stroke="#683F1D" stroke-linecap="round" stroke-linejoin="round"/>
<path d="M87.2444 110.34C87.2386 111.153 87.1461 111.962 86.9685 112.754C85.2512 120.196 76.2786 122.734 68.2163 115.513C61.4092 109.423 59.4712 99.2091 59.4712 99.2091C59.4692 99.1954 59.4692 99.1815 59.4712 99.1678C59.9106 99.2384 60.3378 99.3707 60.7402 99.5609C60.7402 99.5609 62.4782 104.23 65.9748 107.071C67.5197 108.334 68.9611 109.003 70.3888 109.016C74.1199 113.23 76.9269 114.534 80.3338 114.065C83.0099 113.693 85.4629 112.371 87.2444 110.34Z" fill="#BF8228"/>
<path d="M72.9268 118.644C78.2717 116.016 82.4718 115.596 85.2788 116.389" stroke="#7F542D" stroke-width="0.75" stroke-linecap="round" stroke-linejoin="round"/>
<path d="M68.6719 115.927C73.203 113.471 81.7757 112.906 86.6862 113.713" stroke="#7F542D" stroke-width="0.75" stroke-linecap="round" stroke-linejoin="round"/>
<path d="M62.1338 107.037C66.796 114.134 79.1756 111.334 81.9619 109.685C84.6034 108.113 84.4103 104.016 83.0585 101.816" stroke="#7F542D" stroke-width="0.75" stroke-linecap="round" stroke-linejoin="round"/>
<path d="M76.21 96.1814L78.141 95.4917" stroke="#683F1D" stroke-linecap="round" stroke-linejoin="round"/>
<path d="M85.2162 90.5402C84.4299 91.4367 86.3059 93.2575 89.1473 94.2299C90.8378 94.8094 92.3605 95.7945 93.5819 97.099C93.5819 97.099 92.9267 101.003 95.2164 102.389C95.2164 102.389 94.2026 103.603 93.5474 102.747C92.8922 101.892 91.5336 97.4093 88.9956 97.699C87.2438 97.899 89.8922 102.954 90.2715 104.934C90.6508 106.913 91.8026 109.692 94.2026 110.851C96.6027 112.01 99.1062 118.982 99.1062 118.982C99.1062 118.982 108.803 115.458 108.838 115.375C108.872 115.293 107.534 111.927 107.534 111.927C107.534 111.927 107.803 107.023 107.769 103.382C107.734 99.7404 106.5 97.03 103.575 96.9403C103.575 96.9403 103.872 95.1334 101.589 94.961C101.589 94.961 101.437 92.2023 96.7613 93.6299C96.7751 93.6437 86.899 88.616 85.2162 90.5402Z" fill="#FEBD9D"/>
<path d="M98.0505 122.355C97.9126 122.155 97.1953 117.907 97.1953 117.907L109.051 114.079L111.12 118.907L98.0505 122.355Z" fill="white"/>
<path d="M103.574 96.9541C103.574 96.9541 103.871 95.1471 101.588 94.9747C101.588 94.9747 101.436 92.216 96.7605 93.6436C96.7605 93.6436 86.8843 88.6159 85.2015 90.5401C84.4153 91.4367 86.2912 93.2574 89.1327 94.2299C90.8232 94.8093 92.3458 95.7944 93.5673 97.0989C93.5673 97.0989 92.9121 101.002 95.2018 102.389C95.2018 102.389 94.188 103.603 93.5328 102.747C92.8776 101.892 91.5189 97.4093 88.9809 97.6989C87.2292 97.8989 89.8775 102.954 90.2568 104.934C90.6362 106.913 91.7879 109.692 94.188 110.851" stroke="#F4A789" stroke-width="0.75" stroke-linecap="round" stroke-linejoin="round"/>
<path d="M93.6777 102.885C94.6226 103.492 99.6779 103.974 99.9331 107.83" stroke="#F4A789" stroke-width="0.75" stroke-linecap="round" stroke-linejoin="round"/>
<path d="M95.2158 102.388C95.4862 102.517 95.7838 102.578 96.083 102.566C96.3821 102.554 96.6739 102.469 96.9331 102.32" stroke="#F4A789" stroke-width="0.75" stroke-linecap="round" stroke-linejoin="round"/>
<path d="M93.582 97.099C93.8359 96.3289 94.2525 95.6224 94.8035 95.0274C95.3544 94.4324 96.0269 93.9629 96.7752 93.6506" stroke="#F4A789" stroke-width="0.75" stroke-linecap="round" stroke-linejoin="round"/>
<path d="M101.472 94.9612C97.2854 96.4302 96.5888 99.5062 96.775 101.258C96.9612 103.01 97.7198 103.706 98.713 103.555C98.9694 103.491 99.2043 103.361 99.3935 103.177C99.5826 102.992 99.7191 102.761 99.7889 102.506" stroke="#F4A789" stroke-width="0.75" stroke-linecap="round" stroke-linejoin="round"/>
<path d="M103.575 96.9539C102.55 97.0569 101.597 97.5243 100.888 98.2711C100.179 99.018 99.7618 99.9945 99.7124 101.023C99.4917 103.533 100.844 104.106 101.781 103.54C102.816 102.885 103.85 100.492 103.85 100.492" stroke="#F4A789" stroke-width="0.75" stroke-linecap="round" stroke-linejoin="round"/>
<path d="M126.678 188.198C125.402 207.509 104.567 204.164 102.705 178.605C102.705 178.605 101.277 161.673 99.8981 147.7C99.2084 140.804 98.5187 134.597 98.0498 131.521L96.6152 121.748L115.161 116.231C115.161 116.231 118.809 130.796 122.002 148.424C123.326 155.749 124.575 163.597 125.45 171.142C126.16 176.802 126.57 182.495 126.678 188.198Z" fill="#A7CAF0"/>
<path d="M102.705 178.604C102.705 178.604 101.277 161.673 99.8981 147.7C99.2085 140.803 98.5188 134.596 98.0498 131.52" stroke="#83ADDF" stroke-width="0.75" stroke-linecap="round" stroke-linejoin="round"/>
<path d="M131.108 176.342C131.157 176.184 134.612 170.894 137.86 169.528C141.109 168.163 145.35 166.08 146.716 164.156C148.081 162.232 150.854 162.197 149.123 166.025C147.392 169.852 145.405 170.577 145.405 170.577C145.405 170.577 154.254 167.963 159.44 166.914C164.627 165.866 166.247 168.17 160.909 170.163C157.933 171.234 155.058 172.566 152.316 174.142C152.316 174.142 161.323 172.99 165.04 173.039C168.758 173.087 169.868 175.108 164.833 176.342C168.24 176.391 168.765 178.329 164.73 179.218C160.695 180.108 153.888 181.86 153.888 181.86C153.888 181.86 161.068 181.391 163.971 181.86C166.875 182.329 165.351 184.618 161.433 185.053C157.516 185.487 136.605 189.239 133.357 188.77L131.108 176.342Z" fill="#FEBD9D"/>
<path d="M142.025 167.556C144.094 166.481 145.901 165.274 146.715 164.108C148.095 162.205 150.853 162.149 149.122 165.977C147.391 169.805 145.405 170.529 145.405 170.529C145.405 170.529 154.253 167.915 159.44 166.867C164.626 165.819 166.247 168.122 160.909 170.115C157.933 171.187 155.057 172.518 152.315 174.095C152.315 174.095 161.322 172.943 165.04 172.991C168.757 173.039 169.868 175.06 164.833 176.295C168.24 176.343 168.764 178.281 164.729 179.171C160.695 180.06 153.888 181.86 153.888 181.86C153.888 181.86 161.067 181.391 163.971 181.86C166.874 182.329 165.35 184.619 161.433 185.054" stroke="#F4A789" stroke-width="0.75" stroke-linecap="round" stroke-linejoin="round"/>
<path d="M125.452 174.694L131.735 173.018L135.611 190.563L130.528 192.239L125.452 174.694Z" fill="white"/>
<path d="M142.102 171.66L145.405 170.556" stroke="#F4A789" stroke-width="0.75" stroke-linecap="round" stroke-linejoin="round"/>
<path d="M152.874 178.046L164.833 176.322" stroke="#F4A789" stroke-width="0.75" stroke-linecap="round" stroke-linejoin="round"/>
<path d="M133.135 193.653C133.135 193.653 114.652 201.316 99.0585 208.274C95.2239 209.992 91.5686 211.661 88.3961 213.157C72.3474 220.778 65.5334 224.192 54.54 220.137C46.7467 217.254 38.6775 204.668 28.9324 186.991C24.9461 179.75 20.6977 171.66 16.07 163.032C13.7665 154.211 28.2221 147.859 38.2637 149.432C38.312 149.432 41.3328 149.432 44.5673 152.88C48.4226 156.963 67.7059 189.881 67.7059 189.881C73.913 186.874 127.79 171.177 127.79 171.177L133.135 193.653Z" fill="#A7CAF0"/>
<path d="M99.0587 208.274C95.2241 209.992 91.5688 211.661 88.3963 213.157C72.3476 220.778 65.5336 224.192 54.5402 220.137C46.7469 217.254 38.6777 204.667 28.9326 186.991C34.0155 185.791 40.0364 186.488 42.4985 194.757C47.2159 210.619 58.361 218.537 69.7751 208.357C78.6857 200.426 93.4999 198.791 99.0587 208.274Z" fill="#83ADDF"/>
<path d="M38.2773 149.445C38.2773 149.445 41.3257 149.445 44.5809 152.894C48.4362 156.984 67.7195 189.902 67.7195 189.902C73.9266 186.888 127.804 171.198 127.804 171.198L133.149 193.674C133.149 193.674 104.458 205.564 88.4097 213.178C72.361 220.792 65.5539 224.213 54.5605 220.151C45.3051 216.744 35.6428 199.661 23.3252 176.619" stroke="#83ADDF" stroke-width="0.75" stroke-linecap="round" stroke-linejoin="round"/>
<path d="M60.7266 196.04C60.7266 196.04 63.6232 191.454 67.7061 189.881" stroke="#83ADDF" stroke-width="0.75" stroke-linecap="round" stroke-linejoin="round"/>
<path d="M171.012 150.287C171.17 145.005 174.722 140.901 176.295 138.928C177.867 136.956 175.322 135.446 176.295 131.121C177.798 124.5 185.605 128.225 185.605 117.562C185.605 114.252 186.391 113.542 186.391 113.542C186.391 113.542 180.557 100.7 191.123 96.4377C191.123 96.4377 192.067 90.9892 201.688 88.5409C211.309 86.0926 219.985 96.0308 213.758 110.383L213.282 121.742C214.185 121.913 215.006 122.377 215.619 123.061C216.232 123.745 216.603 124.612 216.675 125.528C217.365 130.356 223.53 127.342 223.848 139.797L171.012 150.287Z" fill="#7F542D"/>
<path d="M193.386 133.397C188.606 134.88 184.854 134.611 184.854 130.342C184.854 126.328 189.813 124.19 188.993 117.673C188.172 111.155 189.441 108.059 191.634 105.259C193.827 102.458 196.993 92.8444 204.786 94.5479C212.579 96.2514 213.752 110.41 213.752 110.41L209.614 123.549C209.614 123.549 214.655 130.549 213.172 133.094C211.69 135.639 193.386 133.397 193.386 133.397Z" fill="#683F1D"/>
<path d="M212.074 124.114C212.074 124.114 216.019 124.176 215.012 129.245C214.653 130.978 214.888 132.78 215.679 134.363C216.47 135.946 217.77 137.216 219.371 137.97" stroke="#BF8228" stroke-width="0.75" stroke-linecap="round" stroke-linejoin="round"/>
<path d="M191.123 100.072C186.744 105.203 188.441 110.328 188.441 110.328" stroke="#BF8228" stroke-width="0.75" stroke-linecap="round" stroke-linejoin="round"/>
<path d="M186.875 127.224C182.123 129.659 179.35 134.418 182.309 139.038C182.914 139.939 183.313 140.963 183.478 142.036C183.642 143.109 183.568 144.205 183.261 145.246" stroke="#BF8228" stroke-width="0.75" stroke-linecap="round" stroke-linejoin="round"/>
<path d="M191.123 96.4372C191.123 96.4372 194.64 97.4579 195.654 99.6373" stroke="#BF8228" stroke-width="0.75" stroke-linecap="round" stroke-linejoin="round"/>
<path d="M198.157 96.1203C198.157 96.1203 206.026 88.8788 211.668 95.4307" stroke="#BF8228" stroke-width="0.75" stroke-linecap="round" stroke-linejoin="round"/>
<path d="M215.945 119.224C216.118 128.348 209.862 130.659 206.848 130.838C199.952 131.086 193.545 123.252 191.407 120.307C191.331 119.693 191.248 119.065 191.145 118.431C187.041 119.307 185.358 117.389 184.896 114.493C184.434 111.596 187.965 108.238 192.545 111.948C196.834 108.989 197.434 104.879 196.538 101.23C197.55 99.774 199.002 98.6798 200.681 98.1078C202.36 97.5357 204.178 97.5158 205.869 98.051C210.662 99.4304 214.007 106.01 215.325 113.148C215.626 114.777 215.821 116.425 215.911 118.079C215.925 118.465 215.938 118.845 215.945 119.224Z" fill="#FEBD9D"/>
<path d="M208.689 103.127C208.834 104.341 211.965 104.507 213.372 103.817C214.779 103.127 208.275 99.6653 208.689 103.127Z" fill="#7F542D"/>
<path d="M198.971 105.727C198.73 106.803 201.806 105.389 202.93 105.313C204.054 105.237 204.641 104.741 204.075 103.361C203.509 101.982 199.509 103.41 198.971 105.727Z" fill="#7F542D"/>
<path d="M205.123 111.969C205.634 111.969 206.048 111.555 206.048 111.045C206.048 110.534 205.634 110.121 205.123 110.121C204.613 110.121 204.199 110.534 204.199 111.045C204.199 111.555 204.613 111.969 205.123 111.969Z" fill="#683F1D"/>
<path d="M211.667 109.638C212.178 109.638 212.591 109.224 212.591 108.714C212.591 108.204 212.178 107.79 211.667 107.79C211.157 107.79 210.743 108.204 210.743 108.714C210.743 109.224 211.157 109.638 211.667 109.638Z" fill="#683F1D"/>
<path d="M208.868 108.224C208.806 110.983 210.137 111.934 210.455 112.245C211.213 112.983 212.958 112.245 212.165 114.935" stroke="#F4A789" stroke-width="0.75" stroke-linecap="round" stroke-linejoin="round"/>
<path d="M205.676 119.7C206.869 118.507 211.407 118.755 211.883 119.231C212.359 119.707 211.531 121.755 209.559 121.728C207.586 121.7 205.117 120.259 205.676 119.7Z" fill="white" stroke="#F4A789" stroke-width="0.75" stroke-linecap="round" stroke-linejoin="round"/>
<path d="M187.475 114.797C188.523 113.266 190.689 113.776 191.564 114.542C188.757 114.073 188.502 117.204 191.647 116.369" stroke="#F4A789" stroke-width="0.75" stroke-linecap="round" stroke-linejoin="round"/>
<path d="M205.971 117.617C205.537 118.921 203.213 119.307 200.75 118.486C198.288 117.665 196.681 115.941 197.123 114.638C197.564 113.334 199.881 112.948 202.344 113.776C204.806 114.603 206.413 116.341 205.971 117.617Z" fill="#F4A789"/>
<path d="M215.903 118.079C214.751 118.293 213.793 118.079 213.351 117.445C212.662 116.404 213.517 114.562 215.317 113.148C215.618 114.778 215.814 116.425 215.903 118.079Z" fill="#F4A789"/>
<path d="M188.627 119.231C188.627 119.628 188.745 120.016 188.965 120.346C189.186 120.676 189.499 120.934 189.866 121.086C190.233 121.238 190.636 121.277 191.025 121.2C191.415 121.122 191.772 120.931 192.053 120.651C192.334 120.37 192.525 120.012 192.602 119.623C192.68 119.234 192.64 118.83 192.488 118.463C192.336 118.097 192.079 117.783 191.749 117.563C191.419 117.342 191.031 117.224 190.634 117.224C190.37 117.224 190.109 117.276 189.866 117.377C189.622 117.478 189.401 117.626 189.215 117.812C189.028 117.999 188.881 118.22 188.78 118.463C188.679 118.707 188.627 118.968 188.627 119.231Z" fill="#A7CAF0"/>
<path d="M269.689 147.667L259.875 160.371C259.875 160.371 246.771 213.165 240.143 217.613C238.056 218.99 235.663 219.836 233.173 220.076C230.684 220.317 228.173 219.945 225.86 218.993C225.86 218.958 225.86 218.931 225.86 218.896C225.86 218.862 220.005 213.965 221.122 206.71C221.226 206.02 234.343 183.371 239.964 173.385C244.454 165.343 249.916 156.143 249.916 156.143L269.689 147.667Z" fill="#FEBD9D"/>
<path d="M249.943 156.149C249.943 156.149 250.709 144.225 250.978 142.88C251.247 141.535 259.302 133.79 260.447 133.176C261.592 132.562 268.723 134.673 269.309 135.328C269.896 135.983 269.234 137.514 267.316 137.397C265.399 137.28 267.047 141.921 267.047 141.921C267.047 141.921 270.144 145.204 269.689 147.666C269.689 147.666 257.654 159.791 257.495 159.749C257.337 159.708 249.943 156.149 249.943 156.149Z" fill="#FEBD9D"/>
<path d="M249.943 156.149C249.943 156.149 250.709 144.225 250.978 142.88C251.247 141.535 259.302 133.79 260.447 133.176C261.592 132.562 268.723 134.673 269.309 135.328C269.896 135.983 269.234 137.514 267.316 137.397C265.399 137.28 267.047 141.921 267.047 141.921C267.047 141.921 270.144 145.204 269.689 147.666C269.689 147.666 257.654 159.791 257.495 159.749C257.337 159.708 249.943 156.149 249.943 156.149Z" fill="#FEBD9D"/>
<path d="M250.978 142.88C251.247 141.501 259.302 133.79 260.447 133.176C261.592 132.562 268.723 134.673 269.309 135.328C269.895 135.983 269.233 137.514 267.316 137.397" stroke="#F4A789" stroke-width="0.75" stroke-linecap="round" stroke-linejoin="round"/>
<path d="M262.482 137.969C262.6 137.707 267.083 136.211 267.848 136.48C268.614 136.749 272.296 142.88 272.414 144.108C272.531 145.335 270.786 150.721 269.193 150.246C267.6 149.77 269.255 145.197 269.255 145.197L262.482 137.969Z" fill="#FEBD9D" stroke="#F4A789" stroke-width="0.75" stroke-linecap="round" stroke-linejoin="round"/>
<path d="M265.586 148.591C266.889 149.453 268.4 147.473 269.255 145.197L266.358 142.846C266.358 142.846 263.669 147.328 265.586 148.591Z" fill="#FEBD9D" stroke="#F4A789" stroke-width="0.75" stroke-linecap="round" stroke-linejoin="round"/>
<path d="M269.951 143.459L270.889 145.825C270.917 145.893 270.926 145.968 270.914 146.042C270.903 146.115 270.872 146.183 270.824 146.24C270.777 146.297 270.714 146.34 270.644 146.364C270.574 146.388 270.499 146.392 270.427 146.377L267.937 145.853L247.247 128.39C247.09 128.258 246.96 128.096 246.866 127.914C246.772 127.732 246.714 127.533 246.697 127.329C246.68 127.124 246.703 126.918 246.765 126.723C246.828 126.528 246.928 126.346 247.061 126.19C247.328 125.874 247.71 125.678 248.122 125.643C248.534 125.608 248.944 125.738 249.261 126.004L269.951 143.459Z" fill="#683F1D"/>
<path d="M256.543 142.404C258.874 139.039 261.433 136.39 262.674 136.087C264.55 135.632 264.978 137.859 260.564 144.301C261.286 146.135 261.401 148.153 260.891 150.058C260.38 151.963 259.272 153.653 257.729 154.88" fill="#FEBD9D"/>
<path d="M256.543 142.404C258.874 139.039 261.433 136.39 262.674 136.087C264.55 135.632 264.978 137.859 260.564 144.301C261.286 146.135 261.401 148.153 260.891 150.058C260.38 151.963 259.272 153.653 257.729 154.88" stroke="#F4A789" stroke-width="0.75" stroke-linecap="round" stroke-linejoin="round"/>
<path d="M237.634 181.86C237.489 182.55 236.441 184.467 236.254 185.136C233.199 198.144 228.082 210.723 225.861 218.875C225.232 221.24 224.728 223.637 224.351 226.055C223.233 232.869 222.882 239.29 222.882 239.29L172.48 238.345L166.377 238.234L166.611 212.454L166.666 207.034C166.666 207.034 152.259 206.04 152.149 206.344C152.038 206.647 152.838 198.468 152.838 198.468C148.114 193.054 147.824 185.116 148.99 180.336C149.776 177.136 152.983 168.515 156.273 161.329C157.587 158.299 159.13 155.373 160.887 152.577C165.025 146.453 167.59 145.991 173.018 144.873C178.446 143.756 187.66 138.908 187.66 138.908L205.178 136.956C205.178 136.956 214.336 137.59 222.495 137.245C230.254 136.914 234.613 138.666 238.02 145.811C238.206 146.184 238.379 146.577 238.558 146.984C241.075 152.853 243.337 161.232 244.434 165.563C240.958 173.964 237.634 181.86 237.634 181.86Z" fill="#161616"/>
<path d="M238.027 145.811C230.875 145.032 226.406 150.97 221.158 162.212C214.889 175.598 201.212 177.447 188.115 166.95C176.584 157.694 168.115 155.515 156.308 161.336C157.622 158.306 159.165 155.38 160.922 152.584C165.06 146.459 167.625 145.997 173.053 144.88C178.481 143.763 187.695 138.914 187.695 138.914L205.178 136.956C205.178 136.956 214.337 137.59 222.496 137.245C230.261 136.914 234.62 138.666 238.027 145.811Z" fill="#161616"/>
<path d="M173.949 203.371L178.632 173.474C179.936 175.474 183.529 178.253 182.37 183.902C179.418 198.164 189.267 186.867 193.108 193.729C194.702 196.585 181.239 201.254 173.949 203.371Z" fill="#393939"/>
<path d="M191.032 136.859C189.653 136.266 187.694 138.204 187.694 138.928C187.694 139.652 189.681 145.825 192.329 148.708C194.977 151.591 199.819 152.225 201.653 145.452C206.543 150.542 211.309 148.625 210.667 142.425C210.026 136.225 205.598 135.025 205.598 135.025L191.032 136.859Z" fill="white"/>
<path d="M173.528 206.054L173.949 203.371L178.632 173.474L180.101 164.135" stroke="#393939" stroke-width="0.75" stroke-linecap="round" stroke-linejoin="round"/>
<path d="M152.872 198.481C160.032 196.193 167.593 195.434 175.066 196.254" stroke="#393939" stroke-width="0.75" stroke-linecap="round" stroke-linejoin="round"/>
<path d="M204.336 155.418C205.372 155.418 206.212 154.578 206.212 153.542C206.212 152.506 205.372 151.666 204.336 151.666C203.3 151.666 202.46 152.506 202.46 153.542C202.46 154.578 203.3 155.418 204.336 155.418Z" fill="white"/>
<path d="M206.219 163.287C207.255 163.287 208.095 162.447 208.095 161.411C208.095 160.375 207.255 159.535 206.219 159.535C205.183 159.535 204.343 160.375 204.343 161.411C204.343 162.447 205.183 163.287 206.219 163.287Z" fill="white"/>
<path d="M156.977 224.806H156.942C149.018 222.082 151.459 209.93 152.377 203.578L161.225 201.44L174.77 198.171C174.77 198.171 177.094 228.006 156.977 224.806Z" fill="#FEBD9D"/>
<path d="M206.847 130.824C206.847 130.997 206.736 134.135 206.647 136.39C206.612 137.383 206.571 138.211 206.557 138.521C206.502 139.562 204.295 143.907 199.66 142.749C195.026 141.59 191.143 137.597 191.033 136.838C190.922 136.08 193.033 130.128 191.908 120.976C195.943 116.258 207.771 119.231 206.847 130.824Z" fill="#FEBD9D"/>
<path d="M206.846 130.824C206.846 130.824 206.736 134.08 206.646 136.397C203.453 135.962 197.397 134.073 197.763 125.928C199.094 127.941 203.68 130.983 206.846 130.824Z" fill="#F4A789"/>
<path d="M245.496 177.922C245.444 177.92 245.394 177.905 245.348 177.88C245.303 177.855 245.264 177.82 245.234 177.777L229.861 155.942C229.831 155.904 229.809 155.859 229.8 155.811C229.79 155.763 229.792 155.713 229.806 155.666C229.817 155.62 229.837 155.576 229.865 155.538C229.894 155.5 229.93 155.469 229.972 155.446C230.94 154.825 232.051 154.462 233.199 154.39C235.696 154.39 238.227 156.715 241.944 162.418C248.841 172.984 246.613 176.901 245.772 177.812C245.739 177.846 245.699 177.874 245.656 177.893C245.612 177.911 245.565 177.922 245.517 177.922H245.496Z" fill="#F9F9F9"/>
<path d="M233.199 154.736C235.379 154.736 237.751 156.618 241.655 162.612C247.386 171.398 246.993 175.929 245.517 177.578L230.137 155.743C231.055 155.151 232.109 154.805 233.199 154.736ZM233.199 154.046C231.993 154.115 230.825 154.493 229.806 155.143C229.722 155.189 229.648 155.254 229.59 155.331C229.531 155.408 229.49 155.497 229.468 155.591C229.447 155.685 229.446 155.783 229.465 155.878C229.484 155.974 229.522 156.064 229.579 156.143L244.951 177.978C245.011 178.062 245.09 178.132 245.18 178.182C245.271 178.232 245.372 178.262 245.476 178.267H245.517C245.613 178.267 245.708 178.247 245.796 178.208C245.884 178.168 245.963 178.111 246.027 178.04C246.91 177.053 249.248 173.005 242.234 162.232C238.441 156.418 235.827 154.046 233.199 154.046Z" fill="#DDDDDD"/>
<path d="M251.814 181.937C251.748 181.934 251.684 181.915 251.628 181.881L245.331 177.874C245.286 177.845 245.248 177.805 245.221 177.758C245.193 177.712 245.177 177.659 245.172 177.605C245.17 177.553 245.178 177.501 245.197 177.452C245.216 177.403 245.245 177.359 245.283 177.323C245.965 176.707 246.853 176.368 247.773 176.371C248.473 176.397 249.161 176.567 249.793 176.872C250.425 177.177 250.986 177.61 251.442 178.143C253.186 180.081 252.131 181.764 252.131 181.778C252.097 181.83 252.05 181.872 251.994 181.9C251.938 181.928 251.876 181.941 251.814 181.937Z" fill="#F9F9F9"/>
<path d="M247.773 176.715C248.426 176.741 249.066 176.902 249.654 177.188C250.242 177.474 250.764 177.879 251.187 178.378C252.773 180.136 251.814 181.591 251.814 181.591L245.518 177.577C246.134 177.017 246.939 176.709 247.773 176.715ZM247.773 176.026C246.768 176.019 245.798 176.391 245.055 177.067C244.976 177.138 244.914 177.227 244.874 177.326C244.835 177.425 244.819 177.531 244.827 177.638C244.836 177.744 244.869 177.847 244.924 177.938C244.98 178.029 245.055 178.107 245.145 178.164L251.442 182.171C251.595 182.27 251.781 182.304 251.959 182.267C252.137 182.23 252.294 182.123 252.394 181.971C252.442 181.895 253.621 180.047 251.704 177.915C251.217 177.345 250.616 176.883 249.941 176.557C249.265 176.232 248.529 176.051 247.78 176.026H247.773Z" fill="#DDDDDD"/>
<path d="M196.79 174.081L231.57 153.542C231.57 153.542 243.136 165.667 245.515 177.577L208.625 196.73C208.625 196.73 204.528 183.55 196.79 174.081Z" fill="#F9F9F9" stroke="#DDDDDD" stroke-linecap="round" stroke-linejoin="round"/>
<path d="M210.35 195.826L219.253 198.482L251.813 181.591C250.084 179.746 247.918 178.366 245.516 177.578L210.35 195.826Z" fill="#DDDDDD" stroke="#DDDDDD" stroke-miterlimit="10"/>
<path d="M226.723 184.812C226.392 186.378 223.233 186.743 221.295 186.619C219.357 186.495 212.916 186.868 212.916 186.868C212.916 186.868 216.488 188.799 216.861 189.164C218.026 190.885 218.928 192.77 219.537 194.757C220.475 197.633 219.778 199.357 218.847 199.151C217.916 198.944 217.578 197.433 217.578 197.433C217.247 199.357 216.054 197.757 216.054 197.757C216.054 198.371 213.095 203.633 211.916 202.585C210.736 201.537 212.398 198.854 212.398 198.854H211.178C208.924 200.7 206.551 202.395 204.074 203.93C201.806 205.247 199.325 206.155 196.743 206.613C196.743 206.613 191.039 210.654 183.853 214.958C174.977 220.296 163.852 226.055 158.445 225.158C157.042 224.978 155.718 224.409 154.621 223.516C153.524 222.623 152.699 221.44 152.238 220.103C152.225 220.06 152.209 220.019 152.19 219.979C152.155 219.882 152.1 219.73 152.038 219.53C151.231 216.772 149.397 204.882 174.756 198.151L174.915 198.109L193.095 193.716C196.881 189.854 205.302 182.336 206.695 181.923C208.088 181.509 227.054 183.24 226.723 184.812Z" fill="#FEBD9D"/>
<path d="M212.371 198.833C212.371 198.833 210.695 201.496 211.888 202.565C213.081 203.633 216.026 198.371 216.026 197.737C216.026 197.737 217.22 199.337 217.551 197.406C217.551 197.406 217.875 198.93 218.82 199.137C219.764 199.344 220.468 197.613 219.509 194.737C218.905 192.75 218.002 190.867 216.833 189.15C216.468 188.778 212.888 186.847 212.888 186.847C212.888 186.847 219.337 186.474 221.275 186.599C223.213 186.723 226.372 186.357 226.696 184.792C227.02 183.226 208.04 181.502 206.647 181.916C205.957 182.123 203.488 184.102 200.736 186.516" stroke="#F4A789" stroke-width="0.75" stroke-linecap="round" stroke-linejoin="round"/>
<path d="M212.916 186.868L209.688 185.592" stroke="#F4A789" stroke-width="0.75" stroke-linecap="round" stroke-linejoin="round"/>
<path d="M210.529 189.881C210.529 189.881 215.688 192.102 216.047 192.854C216.405 193.606 217.461 195.888 217.564 197.426" stroke="#F4A789" stroke-width="0.75" stroke-linecap="round" stroke-linejoin="round"/>
<path d="M211.108 193.654C211.108 193.654 214.943 196.019 215.398 196.475C215.712 196.844 215.932 197.284 216.04 197.757" stroke="#F4A789" stroke-width="0.75" stroke-linecap="round" stroke-linejoin="round"/>
<path d="M367.306 188.64C367.551 195.542 367.351 202.454 366.706 209.33C365.644 220.986 364.878 230.807 366.361 238.297H445.143C445.143 238.297 448.191 227.262 444.005 204.868C439.818 182.474 434.108 171.136 432.28 167.253L367.306 188.64Z" fill="#161616"/>
<path d="M432.184 167.377C430.384 169.695 423.122 177.785 405.363 183.778L404.535 184.054C400.313 185.45 396.022 186.631 391.68 187.592C374.555 191.357 366.369 188.971 366.369 188.971C366.141 183.537 363.796 178.378 361.962 175.123C361.294 173.931 360.557 172.779 359.755 171.674C359.379 174.816 358.717 177.916 357.776 180.936C356.031 186.523 352.396 191.178 352.582 191.364C343.389 205.31 326.664 183.364 330.713 163.384C330.713 163.384 335.361 144.398 338.989 129.873C339.499 127.804 340.023 126.045 340.568 124.5C343.906 115.059 348.003 114.038 354.148 111.217C357.52 109.762 365.562 108.417 365.562 108.417C366.084 107.238 366.837 106.174 367.774 105.289C368.712 104.403 369.817 103.713 371.024 103.259L370.824 101.879C371.962 101.734 373.155 101.576 374.383 101.396L376.514 101.079L376.762 101.038L377.79 100.879C379.038 100.679 380.314 100.458 381.583 100.224L382.776 100.003L383.673 99.8239C388.213 99.0007 392.668 97.7657 396.983 96.1342C397.542 95.9066 398.101 95.6997 398.646 95.5204L399.142 95.3549L399.515 95.2445L400.128 95.0721C400.335 95.01 400.542 94.9617 400.749 94.9135L401.066 94.8376L401.756 94.6997L401.991 94.6514L402.68 94.541L402.984 94.4997H403.101C403.335 94.4629 403.565 94.4353 403.791 94.4169L404.529 94.3617H404.735H405.549C412.039 94.3617 417.529 97.8653 420.915 104.934C422.193 107.689 423.106 110.599 423.632 113.59C426.798 130.439 424.66 147.66 424.66 147.66L432.364 165.998C432.459 166.223 432.492 166.47 432.461 166.712C432.429 166.954 432.334 167.184 432.184 167.377Z" fill="#A7CAF0"/>
<path d="M420.901 104.886C407.742 103.424 395.465 113.493 389.927 124.197C382.755 138.06 365.458 139.163 359.471 132.818C355.444 128.542 348.761 122.88 340.574 124.466C343.912 115.024 348.009 114.004 354.154 111.183C357.464 109.755 365.265 108.424 365.561 108.39C366.084 107.21 366.836 106.147 367.773 105.261C368.711 104.375 369.816 103.685 371.023 103.231L370.823 101.852C371.961 101.707 373.154 101.548 374.382 101.369L376.513 101.052L376.761 101.01L377.789 100.852C379.037 100.652 380.313 100.431 381.582 100.196L382.775 99.9757L383.672 99.7964C387.586 99.0614 391.444 98.0519 395.217 96.7756C395.831 96.5618 396.417 96.3342 396.983 96.0859C397.548 95.8377 398.1 95.6514 398.645 95.4721L399.141 95.3066L399.514 95.1963L400.128 95.0238C400.334 94.9618 400.541 94.9135 400.748 94.8652L401.066 94.7894L401.755 94.6514L401.99 94.6031L402.679 94.4928L402.983 94.4514H403.1C403.335 94.4146 403.564 94.387 403.79 94.3687L404.528 94.3135H404.735H405.548C412.024 94.3135 417.514 97.817 420.901 104.886Z" fill="#A7CAF0"/>
<path d="M359.755 171.633C359.672 172.322 359.582 173.012 359.472 173.633C359.134 173.254 348.665 161.377 335.533 160.419C337.988 158.943 341.451 157.274 343.858 157.846C347.996 158.826 343.168 139.225 351.865 133.825C350.789 138.294 348.968 145.391 349.375 151.598C350.009 160.929 355.665 166.446 359.755 171.633Z" fill="#A7CAF0"/>
<path d="M405.874 180.06C405.804 181.3 405.633 182.531 405.364 183.743L404.536 184.019C400.314 185.415 396.023 186.596 391.681 187.557L391.163 187.116C382.08 179.164 391.163 173.626 388.86 160.37C386.26 145.418 390.481 137.032 393.55 133.121C392.677 140.688 392.217 148.298 392.17 155.915C392.308 167.37 393.17 171.522 394.929 172.688C397.219 173.998 400.874 174.998 405.033 175.446L405.874 180.06Z" fill="#A7CAF0"/>
<path d="M395.431 101.086C395.252 106.962 393.047 112.595 389.189 117.031C387.582 114.596 384.589 111.286 382.575 111.472C377.058 111.975 376.182 121.238 376.182 121.238C376.182 121.238 374.113 111.582 371.589 112.424C368.016 113.603 364.802 121.562 364.802 121.562C363.8 117.179 364.063 112.601 365.561 108.362C366.084 107.182 366.836 106.119 367.773 105.233C368.711 104.347 369.816 103.657 371.023 103.203L370.823 101.823C371.961 101.679 373.154 101.52 374.382 101.341L376.513 101.023L376.761 100.982L377.789 100.823C379.037 100.623 380.313 100.403 381.582 100.168L382.775 99.9476L383.672 99.7682C387.586 99.0332 391.444 98.0238 395.217 96.7475C395.381 98.1875 395.452 99.6364 395.431 101.086Z" fill="#83ADDF"/>
<path d="M420.875 174.447C418.191 184.124 414.757 193.578 410.605 202.723C403.584 218.317 389.453 244.214 389.453 244.214L376.28 242.373C376.28 242.373 383.398 222.269 385.936 209.454C387.246 202.82 389.322 194.337 391.157 187.102C392.874 180.364 394.384 174.688 394.888 172.674C397.177 173.985 400.833 174.985 404.991 175.433C410.301 176.096 415.688 175.762 420.875 174.447Z" fill="#B25E47"/>
<path d="M420.873 174.446C422.942 172.267 424.646 147.611 424.646 147.611" stroke="#83ADDF" stroke-width="0.75" stroke-linecap="round" stroke-linejoin="round"/>
<path d="M396.315 114.962C396.315 114.962 395.625 120.39 394.894 123.473C394.584 124.721 394.06 128.404 393.515 133.128C392.642 140.695 392.182 148.305 392.136 155.922C392.274 167.377 393.136 171.529 394.894 172.695" stroke="#83ADDF" stroke-width="0.75" stroke-linecap="round" stroke-linejoin="round"/>
<path d="M392.424 163.55C399.04 166.745 406.506 167.738 413.728 166.384" stroke="#83ADDF" stroke-width="0.75" stroke-linecap="round" stroke-linejoin="round"/>
<path d="M414.294 175.605C414.473 170.86 416.073 161.812 418.673 158.508C421.556 154.846 423.777 157.763 423.777 157.763" stroke="#83ADDF" stroke-width="0.75" stroke-linecap="round" stroke-linejoin="round"/>
<path d="M418.776 163.301C418.775 163.601 418.863 163.894 419.028 164.143C419.193 164.392 419.429 164.587 419.706 164.702C419.982 164.817 420.286 164.848 420.58 164.79C420.873 164.732 421.143 164.588 421.355 164.376C421.566 164.165 421.71 163.895 421.768 163.601C421.827 163.308 421.796 163.003 421.681 162.727C421.566 162.451 421.371 162.215 421.122 162.049C420.872 161.884 420.579 161.796 420.28 161.798C419.882 161.8 419.5 161.959 419.219 162.24C418.937 162.522 418.778 162.903 418.776 163.301Z" fill="#83ADDF"/>
<path d="M376.286 116.086C376.727 119.224 376.562 120.155 375.369 124.307C374.176 128.459 371.189 141.797 373.376 151.273C375.707 161.391 381.307 173.343 381.134 176.791C380.962 180.239 379.817 186.929 386.19 188.619" stroke="#83ADDF" stroke-width="0.75" stroke-linecap="round" stroke-linejoin="round"/>
<path d="M359.472 173.64C359.134 173.261 348.665 161.384 335.533 160.426C335.237 160.426 334.947 160.384 334.657 160.377" stroke="#83ADDF" stroke-width="0.75" stroke-linecap="round" stroke-linejoin="round"/>
<path d="M352.347 126.852C352.502 127.859 352.594 128.875 352.623 129.894C352.489 131.224 352.235 132.54 351.864 133.825C350.788 138.294 348.968 145.391 349.375 151.598C349.988 160.929 355.664 166.446 359.72 171.633" stroke="#83ADDF" stroke-width="0.75" stroke-linecap="round" stroke-linejoin="round"/>
<path d="M292.849 146.956C289.435 147.121 288.263 146.618 285.407 144.942C282.552 143.266 278.642 138.045 277.855 129.948L287.09 125.189C287.09 125.189 300.063 141.535 292.849 146.956Z" fill="#B25E47"/>
<path d="M274.559 131.273C275.248 135.852 276.179 137.818 277.255 137.701C278.331 137.583 279.269 134.942 277.855 129.949L274.559 131.273Z" fill="#B25E47" stroke="#914839" stroke-miterlimit="10"/>
<path d="M278.055 130.259C278.744 134.838 279.669 136.804 280.744 136.686C281.82 136.569 282.758 133.928 281.351 128.935L278.055 130.259Z" fill="#B25E47" stroke="#914839" stroke-miterlimit="10"/>
<path d="M242.454 78.5332L282.062 62.5328L307.325 117.045L271.489 135.011L242.454 78.5332Z" fill="#DDDDDD" stroke="#DDDDDD" stroke-width="2" stroke-linecap="round" stroke-linejoin="round"/>
<path d="M247.62 78.5333L287.235 62.5328L307.325 117.045L274.255 130.342L247.62 78.5333Z" fill="#F9F9F9" stroke="#DDDDDD" stroke-width="2" stroke-linecap="round" stroke-linejoin="round"/>
<path d="M287.828 129.245C282.807 124.962 279.552 117.72 281.483 116.762C282.959 116.03 286.648 120.162 289.897 121.713C292.643 123.099 294.925 125.256 296.462 127.92C297.2 129.472 300.745 136.038 302.366 137.072C303.987 138.107 326.718 154.197 330.705 156.632C334.691 159.066 353.147 170.949 354.154 183.646C355.16 196.343 341.181 200.481 332.705 194.495C326.284 189.977 294.545 149.169 292.848 146.955C292.848 146.955 295.104 141.873 290.662 138.914C288.048 137.169 287.014 133.583 287.828 129.245Z" fill="#B25E47"/>
<path d="M290.696 138.914C288.082 137.169 287.048 133.596 287.862 129.258C282.841 124.975 279.586 117.734 281.517 116.775C282.993 116.044 286.682 120.175 289.931 121.727C292.677 123.113 294.959 125.27 296.497 127.934C296.897 128.769 298.103 131.051 299.386 133.148" stroke="#914839" stroke-width="0.75" stroke-linecap="round" stroke-linejoin="round"/>
<path d="M371.032 103.237C371.177 103.852 371.177 104.492 371.032 105.106C371.032 105.106 370.446 105.948 372.025 108.313C373.248 110.072 374.894 111.495 376.812 112.451C377.281 112.555 387.005 107.141 388.536 100.52C388.536 100.52 384.281 88.3265 387.488 86.1196C390.695 83.9126 395.371 68.0363 381.232 72.1399C381.232 72.1399 378.543 59.3671 369.742 60.2568C360.942 61.1465 357.728 69.6088 356.218 78.0159C354.708 86.423 358.687 100.458 365.315 99.8786L371.032 103.237Z" fill="#B25E47"/>
<path d="M360.983 80.1401C360.294 81.5195 358.321 81.885 356.611 80.9953C354.9 80.1056 354.08 78.2849 354.783 76.9263C355.487 75.5676 357.452 75.1814 359.163 76.0711C360.873 76.9607 361.694 78.7815 360.983 80.1401Z" fill="#914839"/>
<path d="M370.156 97.3473C371.8 96.9058 373.254 95.9366 374.294 94.5886C374.294 94.5886 377.253 99.7267 369.915 101.947C369.935 101.947 368.273 97.7197 370.156 97.3473Z" fill="#914839"/>
<path d="M404.991 92.0093C404.826 93.2645 400.232 94.6576 401.488 96.5956C402.867 98.7198 401.288 101.52 397.57 99.6301C394.363 98.0094 392.991 98.5957 391.777 101.092C390.563 103.589 388.032 101.141 385.66 101.265C383.287 101.389 380.673 100.72 380.832 98.0922C380.99 95.4645 385.177 94.6438 383.466 92.1748C381.756 89.7058 380.708 87.6298 383.632 83.5125C383.632 83.5125 388.887 82.1331 388.804 77.5951C388.722 73.057 383.218 72.8846 381.342 76.0916C381.342 76.0916 377.97 72.8846 377.135 69.588C376.446 66.8293 375.597 64.3189 374.528 63.1533C374.345 62.9434 374.125 62.7682 373.88 62.6361C373.88 62.6361 366.342 59.2635 362.721 66.3051C359.1 73.3467 357.204 86.2229 359.597 91.4644C360.482 93.4609 361.993 95.1148 363.902 96.1762C365.811 97.2376 368.013 97.6487 370.176 97.3473L370.549 99.8646L371.052 103.216C369.845 103.671 368.74 104.361 367.802 105.247C366.865 106.132 366.113 107.196 365.59 108.375C365.59 108.375 357.528 109.72 354.148 111.175C354.148 111.175 353.19 108.182 350.314 107.306C347.438 106.43 343.817 105.513 343.486 101.43C343.155 97.3473 337.196 98.4094 335.865 94.2714C334.534 90.1333 337.362 87.4436 339.196 86.2712C341.031 85.0987 343.072 82.7331 341.7 79.9813C340.327 77.2295 341.658 74.6502 344.741 72.6087C347.824 70.5673 347.348 68.3328 347.431 66.0154C347.527 63.1119 349.5 62.2843 351.445 60.8153C353.569 59.2291 350.576 54.5186 356.617 53.691C359.955 53.2289 360.424 52.484 362.907 50.4357C364.783 48.8977 367.907 51.5254 371.183 49.815C374.459 48.1046 376.183 47.4012 379.19 50.6081C382.197 53.8151 386.591 52.2151 387.129 56.7531C387.653 61.1188 385.591 62.0222 385.439 62.1464C385.604 62.1464 391.411 62.1878 392.77 67.4431C394.129 72.6984 391.729 73.7329 395.06 77.0985C398.391 80.4641 399.846 82.1262 398.287 84.8022C397.412 86.2988 397.77 88.3471 400.977 88.9402C404.184 89.5333 405.184 90.7609 404.991 92.0093Z" fill="#683F1D"/>
<path d="M362.7 66.3053C359.072 73.3469 357.182 86.2231 359.576 91.4646C360.461 93.4611 361.972 95.115 363.881 96.1764C365.79 97.2378 367.992 97.6489 370.155 97.3475L370.528 99.8648C368.072 104.851 361.5 106.203 357.52 105.168C352.265 103.789 356.141 100.741 351.031 98.7613C344.982 96.4234 350.824 90.837 349.741 89.6783C348.658 88.5197 346.927 86.5817 348.803 83.9196C350.679 81.2574 355.01 81.1057 354.638 77.8642C354.265 74.6228 355.072 73.54 357.307 72.2434C361.445 69.8502 360.755 65.9742 359.969 63.7397C359.183 61.5052 361.045 56.3395 366.597 55.8154C371.238 55.3947 373.493 58.0499 374.507 63.1535C374.324 62.9436 374.104 62.7684 373.859 62.6362C373.859 62.6362 366.321 59.2637 362.7 66.3053Z" fill="#683F1D"/>
<path d="M374.508 63.1535C373.515 58.0499 371.239 55.3947 366.597 55.8154C361.08 56.3257 359.183 61.5121 359.97 63.7397C360.756 65.9674 361.432 69.8502 357.307 72.2434C355.073 73.54 354.28 74.6228 354.638 77.8642C354.997 81.1057 350.776 81.3126 348.804 83.9196C347.482 85.5656 346.64 87.5437 346.369 89.637" stroke="#7F542D" stroke-width="0.75" stroke-linecap="round" stroke-linejoin="round"/>
<path d="M358.555 86.685C356.61 87.3747 355.107 89.0437 355.383 90.6782C355.714 92.7058 355.093 93.3334 353.845 93.7059C352.596 94.0783 351.355 93.9542 350.727 96.1542C350.544 96.9041 350.422 97.6675 350.362 98.437C350.238 99.5405 350.065 100.416 348.982 101.058" stroke="#7F542D" stroke-width="0.75" stroke-linecap="round" stroke-linejoin="round"/>
<path d="M378.183 62.9878C379.933 62.4927 381.732 62.1874 383.548 62.0774" stroke="#7F542D" stroke-width="0.75" stroke-linecap="round" stroke-linejoin="round"/>
<path d="M355.349 101.948C356.128 99.6027 358.838 101.106 359.018 98.5751C359.069 97.6877 359.452 96.8521 360.091 96.2338C360.73 95.6155 361.577 95.2598 362.466 95.2371" stroke="#7F542D" stroke-width="0.75" stroke-linecap="round" stroke-linejoin="round"/>
<path d="M382.928 79.5261C383.7 77.2157 386.011 76.7191 386.583 77.064" stroke="#914839" stroke-width="0.75" stroke-linecap="round" stroke-linejoin="round"/>
<path d="M383.355 78.6366C385.597 77.9469 386.073 81.1539 383.79 80.9401" stroke="#914839" stroke-width="0.75" stroke-linecap="round" stroke-linejoin="round"/>
<path d="M368.32 67.9465C368.017 68.9948 369.589 69.4293 370.596 69.188C371.603 68.9466 372.121 69.7259 372.569 69.2983C373.017 68.8707 371.948 67.4776 370.734 67.0293C370.516 66.9294 370.28 66.8738 370.04 66.8659C369.799 66.858 369.56 66.8979 369.336 66.9832C369.111 67.0686 368.906 67.1977 368.731 67.3631C368.557 67.5284 368.417 67.7268 368.32 67.9465Z" fill="#683F1D"/>
<path d="M365.479 68.2912C365.879 69.1464 364.596 69.7258 363.7 69.6706C362.803 69.6154 362.472 70.3603 362.038 70.0292C361.603 69.6982 362.314 68.3947 363.293 67.8498C363.465 67.7338 363.658 67.653 363.862 67.6124C364.065 67.5717 364.275 67.5719 364.478 67.613C364.682 67.6541 364.875 67.7352 365.047 67.8516C365.219 67.9681 365.366 68.1175 365.479 68.2912Z" fill="#683F1D"/>
<path d="M368.804 75.8914C369.314 75.8914 369.728 75.4776 369.728 74.9672C369.728 74.4568 369.314 74.043 368.804 74.043C368.294 74.043 367.88 74.4568 367.88 74.9672C367.88 75.4776 368.294 75.8914 368.804 75.8914Z" fill="#683F1D"/>
<path d="M362.472 75.3952C362.982 75.3952 363.396 74.9814 363.396 74.471C363.396 73.9606 362.982 73.5468 362.472 73.5468C361.962 73.5468 361.548 73.9606 361.548 74.471C361.548 74.9814 361.962 75.3952 362.472 75.3952Z" fill="#683F1D"/>
<path d="M364.217 81.2366C362.838 80.4021 361.459 78.5331 363.293 77.9675C365.128 77.402 365.714 76.5882 365.769 71.9122" stroke="#914839" stroke-width="0.75" stroke-linecap="round" stroke-linejoin="round"/>
<path d="M366.928 86.1402C368.997 85.5195 368.997 82.0436 368.997 82.0436C367.329 83.0208 365.586 83.8625 363.783 84.5609C363.783 84.5609 364.666 86.8161 366.928 86.1402Z" fill="white" stroke="#914839" stroke-width="0.75" stroke-linecap="round" stroke-linejoin="round"/>
<path d="M383.611 83.5122C382.812 83.5604 382.01 83.5604 381.211 83.5122" stroke="#914839" stroke-width="0.75" stroke-linecap="round" stroke-linejoin="round"/>
<path d="M370.129 80.2778C370.819 81.6571 372.791 82.0226 374.501 81.133C376.212 80.2433 377.033 78.4225 376.329 77.0639C375.626 75.7052 373.66 75.319 371.95 76.2087C370.239 77.0984 369.419 78.9191 370.129 80.2778Z" fill="#914839"/>
<path d="M459.461 235.434H7.44158C3.33171 235.434 0 238.766 0 242.876V243.558C0 247.668 3.33171 251 7.44158 251H459.461C463.571 251 466.902 247.668 466.902 243.558V242.876C466.902 238.766 463.571 235.434 459.461 235.434Z" fill="#DDDDDD"/>
<path d="M14 251C25.9589 245.275 43.7112 244.013 57.2357 251" stroke="#DDDDDD" stroke-width="0.75" stroke-linecap="round" stroke-linejoin="round"/>
<path d="M9.86816 235.434C21.6685 241.979 29.5101 241.462 44.0691 241.269C54.9039 241.131 67.9525 246.648 76.6493 251" stroke="#DDDDDD" stroke-width="0.75" stroke-linecap="round" stroke-linejoin="round"/>
<path d="M65.8633 235.434C74.4221 245.055 80.3464 246.255 83.2362 243.779C86.2845 241.144 89.4432 240.434 92.664 243.213C96.4089 246.434 101.63 239.903 104.568 235.434" stroke="#DDDDDD" stroke-width="0.75" stroke-linecap="round" stroke-linejoin="round"/>
<path d="M99.2363 251C102.685 247.807 108.892 243.862 118.458 243.213C129.837 242.448 144.307 247.717 152.058 251" stroke="#DDDDDD" stroke-width="0.75" stroke-linecap="round" stroke-linejoin="round"/>
<path d="M137.079 235.434C150.431 242.434 165.025 246.538 176.811 243.213C188.322 239.979 215.798 244 225.778 235.434" stroke="#DDDDDD" stroke-width="0.75" stroke-linecap="round" stroke-linejoin="round"/>
<path d="M187.723 251C196.275 246.124 209.599 243.151 219.986 251" stroke="#DDDDDD" stroke-width="0.75" stroke-linecap="round" stroke-linejoin="round"/>
<path d="M234.689 251C250.552 238.634 282.325 236.379 308.829 243.138C340.189 251.138 354.265 241.91 359.969 235.434" stroke="#DDDDDD" stroke-width="0.75" stroke-linecap="round" stroke-linejoin="round"/>
<path d="M263.263 251C274.773 245.82 290.277 244.758 306.609 251" stroke="#DDDDDD" stroke-width="0.75" stroke-linecap="round" stroke-linejoin="round"/>
<path d="M363.624 251C382.894 242.034 398.322 243.062 412.591 251" stroke="#DDDDDD" stroke-width="0.75" stroke-linecap="round" stroke-linejoin="round"/>
<path d="M390.804 235.434C422.563 246.096 448.847 254.359 466.157 239.882" stroke="#DDDDDD" stroke-width="0.75" stroke-linecap="round" stroke-linejoin="round"/>
<path d="M416.143 235.434C432.26 244.896 451.088 244.186 462.668 236.289" stroke="#DDDDDD" stroke-width="0.75" stroke-linecap="round" stroke-linejoin="round"/>
</svg>
