<svg width="33" height="32" viewBox="0 0 33 32" fill="none" xmlns="http://www.w3.org/2000/svg">
<g clip-path="url(#clip0_213_2125)">
<path d="M27.167 3.99998H25.8337V1.33331H23.167V3.99998H9.83366V1.33331H7.16699V3.99998H5.83366C4.36699 3.99998 3.16699 5.19998 3.16699 6.66665V28C3.16699 29.4666 4.36699 30.6666 5.83366 30.6666H27.167C28.6337 30.6666 29.8337 29.4666 29.8337 28V6.66665C29.8337 5.19998 28.6337 3.99998 27.167 3.99998ZM27.167 6.66665V10.6666H5.83366V6.66665H27.167ZM5.83366 28V13.3333H27.167V28H5.83366Z" fill="white"/>
<path opacity="0.3" d="M5.83301 6.67999H27.1663V10.6667H5.83301V6.67999Z" fill="white"/>
</g>
<defs>
<clipPath id="clip0_213_2125">
<rect width="32" height="32" fill="white" transform="translate(0.5)"/>
</clipPath>
</defs>
</svg>
