<svg width="41" height="41" viewBox="0 0 41 41" fill="none" xmlns="http://www.w3.org/2000/svg">
<g clip-path="url(#clip0_213_2684)">
<path d="M23.8337 3.83337H10.5003C8.66699 3.83337 7.16699 5.33337 7.16699 7.16671V33.8334C7.16699 35.6667 8.66699 37.1667 10.5003 37.1667H30.5003C32.3337 37.1667 33.8337 35.6667 33.8337 33.8334V13.8334L23.8337 3.83337ZM10.5003 33.8334V7.16671H22.167V13.8334H30.5003V33.8334H10.5003ZM18.8337 32.1667H22.167V30.5H23.8337C24.7503 30.5 25.5003 29.75 25.5003 28.8334V23.8334C25.5003 22.9167 24.7503 22.1667 23.8337 22.1667H18.8337V20.5H25.5003V17.1667H22.167V15.5H18.8337V17.1667H17.167C16.2503 17.1667 15.5003 17.9167 15.5003 18.8334V23.8334C15.5003 24.75 16.2503 25.5 17.167 25.5H22.167V27.1667H15.5003V30.5H18.8337V32.1667Z" fill="white"/>
</g>
<defs>
<clipPath id="clip0_213_2684">
<rect width="40" height="40" fill="white" transform="translate(0.5 0.5)"/>
</clipPath>
</defs>
</svg>
