<svg width="41" height="41" viewBox="0 0 41 41" fill="none" xmlns="http://www.w3.org/2000/svg">
<g clip-path="url(#clip0_216_2689)">
<path d="M24.1167 8.83333L32.1667 16.8833V32.1667H8.83333V8.83333H24.1167ZM24.1167 5.5H8.83333C7 5.5 5.5 7 5.5 8.83333V32.1667C5.5 34 7 35.5 8.83333 35.5H32.1667C34 35.5 35.5 34 35.5 32.1667V16.8833C35.5 16 35.15 15.15 34.5167 14.5333L26.4667 6.48333C25.85 5.85 25 5.5 24.1167 5.5ZM12.1667 25.5H28.8333V28.8333H12.1667V25.5ZM12.1667 18.8333H28.8333V22.1667H12.1667V18.8333ZM12.1667 12.1667H23.8333V15.5H12.1667V12.1667Z" fill="white"/>
</g>
<defs>
<clipPath id="clip0_216_2689">
<rect width="40" height="40" fill="white" transform="translate(0.5 0.5)"/>
</clipPath>
</defs>
</svg>
